<svg xmlns="http://www.w3.org/2000/svg" width="122" height="122" viewBox="0 0 122 122">
  <g id="business_benefits" transform="translate(-992 -2762)">
    <circle id="Ellipse_56" data-name="Ellipse 56" cx="61" cy="61" r="61" transform="translate(992 2762)" fill="#1492e6"/>
    <g id="hands-and-gestures_2_" data-name="hands-and-gestures (2)" transform="translate(998 2789)">
      <g id="Group_46" data-name="Group 46" transform="translate(62.564)">
        <g id="Group_45" data-name="Group 45">
          <path id="Path_259" data-name="Path 259" d="M337.179,0A1.18,1.18,0,0,0,336,1.179V6.605a1.179,1.179,0,1,0,2.359,0V1.179A1.18,1.18,0,0,0,337.179,0Z" transform="translate(-336)" fill="#fff"/>
        </g>
      </g>
      <g id="Group_48" data-name="Group 48" transform="translate(35.436 36.8)">
        <g id="Group_47" data-name="Group 47">
          <path id="Path_260" data-name="Path 260" d="M107.179,312a1.179,1.179,0,1,0,1.179,1.179A1.18,1.18,0,0,0,107.179,312Z" transform="translate(-106 -312)" fill="#fff"/>
        </g>
      </g>
      <g id="Group_50" data-name="Group 50" transform="translate(26 12.502)">
        <g id="Group_49" data-name="Group 49">
          <path id="Path_261" data-name="Path 261" d="M80.256,127.938a4.723,4.723,0,0,0-4.718-4.718H66.733a29.62,29.62,0,0,0,1.808-11.26,13.433,13.433,0,0,0-.083-1.356,4.717,4.717,0,0,0-9.433.113V111.9c0,7.46-9.579,11.651-16.808,13.448a3.543,3.543,0,0,0-3.243-2.125H27.179A1.18,1.18,0,0,0,26,124.4v28.307a1.18,1.18,0,0,0,1.179,1.179H38.974a3.543,3.543,0,0,0,3.232-2.1q.9.23,1.667.433a38.255,38.255,0,0,0,11.9,1.668H68.461a4.715,4.715,0,0,0,3.919-7.341,4.732,4.732,0,0,0,2.368-7.08,4.716,4.716,0,0,0,2.35-7.074A4.719,4.719,0,0,0,80.256,127.938Zm-40.1,22.41a1.181,1.181,0,0,1-1.179,1.179H28.359V125.579H38.974a1.181,1.181,0,0,1,1.179,1.179ZM75.538,130.3h-5.9a1.179,1.179,0,1,0,0,2.359h3.538a2.359,2.359,0,1,1,0,4.718h-5.9a1.179,1.179,0,1,0,0,2.359H70.82a2.359,2.359,0,0,1,0,4.718h-5.9a1.179,1.179,0,1,0,0,2.359h3.538a2.359,2.359,0,1,1,0,4.718H55.777a35.983,35.983,0,0,1-11.308-1.591q-.892-.233-1.957-.507V127.705c8.536-2.033,18.872-7,18.872-15.808v-1.179a2.359,2.359,0,0,1,4.718,0v0c0,.513.64,6.8-1.926,12.5H60.2a1.179,1.179,0,1,0,0,2.359H75.538a2.359,2.359,0,1,1,0,4.718Z" transform="translate(-26 -106)" fill="#fff"/>
        </g>
      </g>
      <g id="Group_52" data-name="Group 52" transform="translate(35.436 41.518)">
        <g id="Group_51" data-name="Group 51">
          <path id="Path_262" data-name="Path 262" d="M107.179,352A1.18,1.18,0,0,0,106,353.179v9.436a1.179,1.179,0,0,0,2.359,0v-9.436A1.18,1.18,0,0,0,107.179,352Z" transform="translate(-106 -352)" fill="#fff"/>
        </g>
      </g>
      <g id="Group_54" data-name="Group 54" transform="translate(48.41 14.861)">
        <g id="Group_53" data-name="Group 53">
          <path id="Path_263" data-name="Path 263" d="M221.9,126h-4.718a1.179,1.179,0,0,0,0,2.359H221.9a1.179,1.179,0,0,0,0-2.359Z" transform="translate(-216 -126)" fill="#fff"/>
        </g>
      </g>
      <g id="Group_56" data-name="Group 56" transform="translate(72 14.861)">
        <g id="Group_55" data-name="Group 55">
          <path id="Path_264" data-name="Path 264" d="M421.9,126h-4.718a1.179,1.179,0,0,0,0,2.359H421.9a1.179,1.179,0,0,0,0-2.359Z" transform="translate(-416 -126)" fill="#fff"/>
        </g>
      </g>
      <g id="Group_58" data-name="Group 58" transform="translate(69.236 4.854)">
        <g id="Group_57" data-name="Group 57">
          <path id="Path_265" data-name="Path 265" d="M397.919,41.5a1.18,1.18,0,0,0-1.668,0l-3.335,3.335a1.18,1.18,0,0,0,1.668,1.668l3.335-3.335A1.18,1.18,0,0,0,397.919,41.5Z" transform="translate(-392.57 -41.151)" fill="#fff"/>
        </g>
      </g>
      <g id="Group_60" data-name="Group 60" transform="translate(52.556 4.854)">
        <g id="Group_59" data-name="Group 59">
          <path id="Path_266" data-name="Path 266" d="M256.5,44.832,253.164,41.5a1.18,1.18,0,0,0-1.668,1.668l3.335,3.335a1.18,1.18,0,0,0,1.668-1.668Z" transform="translate(-251.15 -41.151)" fill="#fff"/>
        </g>
      </g>
    </g>
  </g>
</svg>
