<svg xmlns="http://www.w3.org/2000/svg" width="243" height="243" viewBox="0 0 243 243">
  <g id="consulting" transform="translate(-1048 -1416)">
    <g id="Group_16" data-name="Group 16" transform="translate(823 200)">
      <circle id="Ellipse_33" data-name="Ellipse 33" cx="121.5" cy="121.5" r="121.5" transform="translate(225 1216)" fill="#107bc4"/>
    </g>
    <g id="communications" transform="translate(1108 1476)">
      <path id="Path_115" data-name="Path 115" d="M79.71,34.534A7.532,7.532,0,0,0,66.85,29.208L49.393,46.666a25.709,25.709,0,0,1-8.276,5.518,15.732,15.732,0,1,0-22.5,2.757A21.67,21.67,0,0,0,1,76.194V97.839H46.258V72.595a3.577,3.577,0,0,1,1.053-2.544L77.5,39.859a7.481,7.481,0,0,0,2.206-5.325ZM30.516,58.484l1.769-.246c-.506,2.385-2,4.181-3.737,4.181-1.675,0-3.129-1.673-3.686-3.935ZM16.742,42.742A11.806,11.806,0,1,1,28.548,54.548,11.818,11.818,0,0,1,16.742,42.742Zm57.98-5.663L44.528,67.27a7.481,7.481,0,0,0-2.206,5.325V93.9H14.774V70.29H10.839V93.9h-5.9V76.194A17.734,17.734,0,0,1,20.856,58.574c.76,4.439,3.916,7.78,7.692,7.78,4.034,0,7.328-3.825,7.78-8.717a29.692,29.692,0,0,0,15.846-8.192L69.633,31.988a3.6,3.6,0,0,1,6.141,2.546,3.58,3.58,0,0,1-1.053,2.544Z" transform="translate(0 25.161)" fill="#fff"/>
      <path id="Path_116" data-name="Path 116" d="M80.257,54.987a15.736,15.736,0,1,0-13.322,3.1,15.283,15.283,0,0,0-5.073,7.773L59.045,76.194H39.887a6.887,6.887,0,0,0,0,13.774H58.581v7.871H92.032V69.9A15.369,15.369,0,0,0,80.257,54.987ZM58.581,42.742A11.806,11.806,0,1,1,70.387,54.548,11.818,11.818,0,0,1,58.581,42.742ZM88.1,93.9H62.516V89.968h1.649a7.857,7.857,0,0,0,7.466-5.382l6.525-19.577-3.731-1.246L67.9,83.34a3.933,3.933,0,0,1-3.735,2.692H39.887a2.952,2.952,0,0,1,0-5.9H62.052L65.661,66.9A11.419,11.419,0,0,1,88.1,69.9Z" transform="translate(30.968 25.161)" fill="#fff"/>
      <path id="Path_117" data-name="Path 117" d="M13,11h3.935v3.935H13Z" transform="translate(11.613 9.677)" fill="#fff"/>
      <path id="Path_118" data-name="Path 118" d="M17,11H40.613v3.935H17Z" transform="translate(15.484 9.677)" fill="#fff"/>
      <path id="Path_119" data-name="Path 119" d="M13,15H44.484v3.935H13Z" transform="translate(11.613 13.548)" fill="#fff"/>
      <path id="Path_120" data-name="Path 120" d="M13,19H44.484v3.935H13Z" transform="translate(11.613 17.419)" fill="#fff"/>
      <path id="Path_121" data-name="Path 121" d="M57,9h3.935v3.935H57Z" transform="translate(54.194 7.742)" fill="#fff"/>
      <path id="Path_122" data-name="Path 122" d="M35,9H74.355v3.935H35Z" transform="translate(32.903 7.742)" fill="#fff"/>
      <path id="Path_123" data-name="Path 123" d="M35,13H82.226v3.935H35Z" transform="translate(32.903 11.613)" fill="#fff"/>
      <path id="Path_124" data-name="Path 124" d="M35,17H82.226v3.935H35Z" transform="translate(32.903 15.484)" fill="#fff"/>
      <path id="Path_125" data-name="Path 125" d="M105.419,1H62.129a9.85,9.85,0,0,0-9.839,9.839v1.968H16.871A7.879,7.879,0,0,0,9,20.677V40.355a7.879,7.879,0,0,0,7.871,7.871h17.71v9.581l14.37-9.581H52.29a7.9,7.9,0,0,0,7.029-4.394,9.712,9.712,0,0,0,2.81.458h5.307l14.37,9.581V44.29h23.613a9.85,9.85,0,0,0,9.839-9.839V10.839A9.85,9.85,0,0,0,105.419,1ZM52.29,44.29H47.759l-9.242,6.161V44.29H16.871a3.939,3.939,0,0,1-3.935-3.935V20.677a3.939,3.939,0,0,1,3.935-3.935H52.29v17.71A9.776,9.776,0,0,0,55.86,41.97,3.947,3.947,0,0,1,52.29,44.29Zm59.032-9.839a5.91,5.91,0,0,1-5.9,5.9H77.871v6.161l-9.242-6.161h-6.5a5.91,5.91,0,0,1-5.9-5.9V10.839a5.91,5.91,0,0,1,5.9-5.9h43.29a5.91,5.91,0,0,1,5.9,5.9Z" transform="translate(7.742)" fill="#fff"/>
      <path id="Path_126" data-name="Path 126" d="M35,5h3.935V8.935H35Z" transform="translate(32.903 3.871)" fill="#fff"/>
      <path id="Path_127" data-name="Path 127" d="M39,5h3.935V8.935H39Z" transform="translate(36.774 3.871)" fill="#fff"/>
      <path id="Path_128" data-name="Path 128" d="M43,5H74.484V8.935H43Z" transform="translate(40.645 3.871)" fill="#fff"/>
    </g>
  </g>
</svg>
