<svg xmlns="http://www.w3.org/2000/svg" width="243" height="243" viewBox="0 0 243 243">
  <g id="custom_application" transform="translate(-1468 -1416)">
    <g id="Group_16" data-name="Group 16" transform="translate(1243 200)">
      <circle id="Ellipse_33" data-name="Ellipse 33" cx="121.5" cy="121.5" r="121.5" transform="translate(225 1216)" fill="#107bc4"/>
    </g>
    <g id="computer" transform="translate(1531 1478.5)">
      <path id="Path_129" data-name="Path 129" d="M160,32.5h73.274v3.664H160Zm0,0" transform="translate(-123.363 -24.673)" fill="#fff"/>
      <path id="Path_130" data-name="Path 130" d="M32,32.5h3.664v3.664H32Zm0,0" transform="translate(-24.673 -24.673)" fill="#fff"/>
      <path id="Path_131" data-name="Path 131" d="M64,32.5h3.664v3.664H64Zm0,0" transform="translate(-49.345 -24.673)" fill="#fff"/>
      <path id="Path_132" data-name="Path 132" d="M96,32.5h3.664v3.664H96Zm0,0" transform="translate(-74.018 -24.673)" fill="#fff"/>
      <path id="Path_133" data-name="Path 133" d="M117.238.5H0V99.419H84.562l15.854,15.3a9.266,9.266,0,0,0,6.478,2.62h.367a9.342,9.342,0,0,0,6.064-16.121l-1.89-1.8h5.8ZM61.927,95.756H55.31l-2.919-8.189-8.2-3.4L36.34,87.9l-4.678-4.678,3.729-7.852L32,67.179l-8.189-2.919V57.642L32,54.73l3.4-8.2-3.73-7.852L36.347,34l7.852,3.73,8.192-3.4,2.919-8.189h6.617l2.912,8.189,8.2,3.4L80.891,34l4.678,4.678-3.73,7.852,3.4,8.192,8.189,2.919v6.617L88.6,65.974l.747-2.79L72.894,46.73l-2.1.564a18.135,18.135,0,0,0-12.318-4.805A18.34,18.34,0,0,0,40.157,60.808a18.137,18.137,0,0,0,4.8,12.318l-.563,2.1L60.849,91.678l2.792-.747Zm4.438-47.276L56.549,51.11,69.463,64.025l-7.773,7.77L48.778,58.883,46.147,68.7a14.5,14.5,0,0,1-2.326-7.892A14.672,14.672,0,0,1,58.476,46.153a14.491,14.491,0,0,1,7.89,2.326Zm-.549,47.276,2.124-5.978,5.19-1.388,7.633,7.366Zm45.332,16.014a5.631,5.631,0,0,1-4.03,1.9,5.709,5.709,0,0,1-4.162-1.589L86.1,95.81v-.055H86.04L74.189,84.314,61.951,87.593,48.485,74.14l2.2-8.173L61.7,76.985,74.653,64.034,63.634,53.015l8.174-2.2L85.27,64.277l-3.3,12.29,28.835,27.308a5.651,5.651,0,0,1,.34,7.9Zm2.426-16.014h-6.01L86.07,75.409l1.377-5.13,9.64-3.435V55.056L88,51.826l-2.153-5.193,4.142-8.716-8.335-8.334-8.716,4.142-5.193-2.153-3.23-9.089H52.724l-3.23,9.089L44.3,33.724l-8.716-4.142L27.25,37.917l4.142,8.716L29.24,51.826l-9.089,3.23V66.845l9.089,3.23,2.153,5.193L27.25,83.985l8.334,8.334L44.3,88.177l5.193,2.153,1.927,5.426H3.664V18.818h109.91Zm0-80.6H3.664V4.164h109.91Zm0,0" transform="translate(0 0)" fill="#fff"/>
    </g>
  </g>
</svg>
