<svg xmlns="http://www.w3.org/2000/svg" width="243" height="243" viewBox="0 0 243 243">
  <g id="data_engineering" transform="translate(-225 -1216)">
    <circle id="Ellipse_33" data-name="Ellipse 33" cx="121.5" cy="121.5" r="121.5" transform="translate(225 1216)" fill="#107bc4"/>
    <g id="data_engineeering" transform="translate(282.25 1273.25)">
      <path id="Path_106" data-name="Path 106" d="M28.487,53.8H81.82a1.75,1.75,0,1,0,0-3.5h-3.5V24.05a1.75,1.75,0,0,0-1.75-1.75H69.749V16.249A1.75,1.75,0,0,0,68,14.5H59.434a1.75,1.75,0,0,0-1.75,1.75V37.334H52.617V24.05a1.75,1.75,0,0,0-1.75-1.75H42.3a1.75,1.75,0,0,0-1.75,1.75v6.59H33.735a1.751,1.751,0,0,0-1.75,1.75V50.3h-3.5a1.75,1.75,0,0,0,0,3.5Zm46.328-28V50.3H69.749V25.8ZM61.184,18h5.065V50.3H61.184Zm-3.5,22.835V50.3H52.617V40.834ZM44.052,25.8h5.065V50.3H44.052Zm-8.567,8.34h5.067V50.3H35.485Z" fill="#fff"/>
      <path id="Path_107" data-name="Path 107" d="M49.863,86.089H17.636a1.75,1.75,0,1,0,0,3.5H49.863a1.75,1.75,0,1,0,0-3.5Z" fill="#fff"/>
      <path id="Path_108" data-name="Path 108" d="M49.86,95.563H17.633a1.75,1.75,0,0,0,0,3.5H49.86a1.75,1.75,0,1,0,0-3.5Z" fill="#fff"/>
      <path id="Path_109" data-name="Path 109" d="M49.86,105.038H17.633a1.75,1.75,0,1,0,0,3.5H49.86a1.75,1.75,0,1,0,0-3.5Z" fill="#fff"/>
      <path id="Path_110" data-name="Path 110" d="M49.863,67.141H17.636a1.75,1.75,0,0,0,0,3.5H49.863a1.75,1.75,0,1,0,0-3.5Z" fill="#fff"/>
      <path id="Path_111" data-name="Path 111" d="M17.633,80.114H49.86a1.75,1.75,0,1,0,0-3.5H17.633a1.75,1.75,0,0,0,0,3.5Z" fill="#fff"/>
      <path id="Path_112" data-name="Path 112" d="M121.741,114.458,109.9,102.612a1.751,1.751,0,0,0-2.475,0l-.922.922-.939-.94v-1.462a25.837,25.837,0,0,0,0-31.933V6.5a1.751,1.751,0,0,0-1.75-1.75H6.5A1.75,1.75,0,0,0,4.75,6.5v115a1.75,1.75,0,0,0,1.75,1.75h97.31a1.751,1.751,0,0,0,1.75-1.75v-8.657l8.9,8.9a5.15,5.15,0,1,0,7.283-7.283Zm-36.576-6.874a22.419,22.419,0,1,1,22.419-22.419A22.419,22.419,0,0,1,85.165,107.584ZM8.25,119.75V8.25h93.81V65.534a25.919,25.919,0,1,0,0,39.263V119.75Zm111.017-.484a1.653,1.653,0,0,1-2.334,0l-10.609-10.608,1.4-1.4.008-.007.007-.008.914-.914,10.609,10.608a1.65,1.65,0,0,1,0,2.333Z" fill="#fff"/>
      <path id="Path_113" data-name="Path 113" d="M90.758,67.09a1.75,1.75,0,0,0-1.037,3.343,15.354,15.354,0,0,1,10.863,14.733,1.75,1.75,0,0,0,3.5,0A18.838,18.838,0,0,0,90.758,67.09Z" fill="#fff"/>
    </g>
  </g>
</svg>
