<svg xmlns="http://www.w3.org/2000/svg" width="243" height="243" viewBox="0 0 243 243">
  <g id="machine_learning" transform="translate(-628 -1416)">
    <g id="Group_16" data-name="Group 16" transform="translate(403 200)">
      <circle id="Ellipse_33" data-name="Ellipse 33" cx="121.5" cy="121.5" r="121.5" transform="translate(225 1216)" fill="#107bc4"/>
    </g>
    <g id="man" transform="translate(687 1474.94)">
      <circle id="Ellipse_34" data-name="Ellipse 34" cx="4.064" cy="4.064" r="4.064" transform="translate(44.674 46.644)" fill="#fff"/>
      <path id="Path_114" data-name="Path 114" d="M123.331,114.3l-10.177-10.177a6,6,0,0,0,.612-2.611,6.082,6.082,0,0,0-11.819-2.032H91.037a6.09,6.09,0,0,0-3.69-3.69V90.16l13.629-13.629a2.017,2.017,0,0,0,.6-1.437v-8.5a6.082,6.082,0,1,0-7.755-7.755h-8.5a2.032,2.032,0,0,0-2.032,2.032v6.47a6.061,6.061,0,0,0,0,11.445v8.5H80.878a6.09,6.09,0,0,0-3.69-3.69V56.431a6.071,6.071,0,0,0,2.479-1.658h7.681a2.027,2.027,0,0,0,1.437-.6l2.032-2.032a2.023,2.023,0,0,0,.6-1.437V48.676h10.534a6.1,6.1,0,1,0,0-4.064H97.509V32.046a6.082,6.082,0,0,0-2.032-11.819,6,6,0,0,0-2.611.612L78.625,6.6A2.027,2.027,0,0,0,77.188,6H34.514a4.085,4.085,0,0,1-3.79-2.634,2.041,2.041,0,0,0-2.168-1.292,14.334,14.334,0,0,0-9.449,5.515A14.109,14.109,0,0,0,26,29.581a38.179,38.179,0,0,0-1.65,10.967H22.321a10.161,10.161,0,1,0,0,20.321h2.25A38.68,38.68,0,0,0,44.674,90.8v8.683H16.225A14.242,14.242,0,0,0,2,113.7v10.161H6.064V113.7a10.172,10.172,0,0,1,10.161-10.161h29.9L60.931,112.8v11.067H73.124a2.027,2.027,0,0,0,1.437-.6l6.692-6.692L83.88,119.2a2.027,2.027,0,0,0,1.437.6h6.47a6.082,6.082,0,1,0,7.755-7.755v-8.5h2.406a6.088,6.088,0,0,0,5.722,4.064,6,6,0,0,0,2.611-.612l2.644,2.644-2.628,2.628a2.023,2.023,0,0,0-.6,1.437v10.161h4.064v-9.319l2.032-2.032,4.064,4.064v7.287h4.064v-8.128a2.023,2.023,0,0,0-.6-1.437ZM79.594,99.479H65V91.351h4.438a6.061,6.061,0,0,0,11.445,0h2.406v4.438A6.09,6.09,0,0,0,79.594,99.479ZM69.434,24.291a6.09,6.09,0,0,0,3.69,3.69v8.5H65V24.291Zm3.69-2.032a2.032,2.032,0,1,1,2.032,2.032A2.034,2.034,0,0,1,73.124,22.259Zm-3.69,30.482a6.09,6.09,0,0,0,3.69,3.69v8.5H65V52.741Zm7.755,36.578a2.032,2.032,0,1,1-2.032-2.032A2.034,2.034,0,0,1,77.188,89.319Zm-7.755-2.032H65V69h8.128V83.6A6.09,6.09,0,0,0,69.434,87.287Zm17.915,14.225a2.032,2.032,0,1,1-2.032-2.032A2.034,2.034,0,0,1,87.349,101.511ZM99.541,58.837a2.032,2.032,0,1,1-2.032,2.032A2.034,2.034,0,0,1,99.541,58.837ZM93.819,62.9a6.09,6.09,0,0,0,3.69,3.69v7.661L87.349,84.413V78.784a6.061,6.061,0,0,0,0-11.445V62.9Zm-8.5,8.128a2.032,2.032,0,1,1-2.032,2.032A2.034,2.034,0,0,1,85.317,71.03ZM75.156,52.741a2.032,2.032,0,1,1,2.032-2.032A2.034,2.034,0,0,1,75.156,52.741Zm11.351-2.032H81.252a6.082,6.082,0,0,0-11.819-2.032H65V40.548H80.411l6.938,6.938v2.382Zm21.162-6.1a2.032,2.032,0,1,1-2.032,2.032A2.034,2.034,0,0,1,107.67,44.612ZM97.509,26.323a2.032,2.032,0,1,1-2.032-2.032A2.034,2.034,0,0,1,97.509,26.323Zm-7.517-2.611a6,6,0,0,0-.612,2.611,6.088,6.088,0,0,0,4.064,5.722V44.612H90.222l-7.533-7.533a2.027,2.027,0,0,0-1.437-.6H77.188v-8.5a6.082,6.082,0,1,0-7.755-7.755H65V10.066H76.347Zm-69.6-6.064A10.173,10.173,0,0,1,27.727,6.382a8.171,8.171,0,0,0,6.787,3.684H60.931V26.323H30.876a10.648,10.648,0,0,1-1.622-.126,1.482,1.482,0,0,0-.148-.022l-.163-.024A10.29,10.29,0,0,1,20.391,17.648ZM22.321,56.8a6.1,6.1,0,1,1,0-12.193h2.032V56.8Zm6.1,0V40.548a34.2,34.2,0,0,1,1.565-10.189c.3.018,30.949.028,30.949.028v60.9A34.592,34.592,0,0,1,28.417,56.8ZM60.931,95.311v12.695l-12.193-7.622V92.666A38.271,38.271,0,0,0,60.931,95.311ZM72.283,119.8H65v-8.128H76.347l2.032,2.032Zm25.227,0a2.032,2.032,0,1,1,2.032-2.032A2.034,2.034,0,0,1,97.509,119.8Zm-2.032-7.755a6.09,6.09,0,0,0-3.69,3.69H86.158L78.625,108.2a2.027,2.027,0,0,0-1.437-.6H65v-4.064h14.6a6.061,6.061,0,0,0,11.445,0h4.438Zm10.161-10.534a2.032,2.032,0,1,1,2.032,2.032A2.034,2.034,0,0,1,105.638,101.511Z" fill="#fff"/>
    </g>
  </g>
</svg>
