<svg xmlns="http://www.w3.org/2000/svg" xmlns:xlink="http://www.w3.org/1999/xlink" width="852.411" height="566.551" viewBox="0 0 852.411 566.551">
  <defs>
    <linearGradient id="linear-gradient" x1="0.5" y1="1" x2="0.5" gradientUnits="objectBoundingBox">
      <stop offset="0" stop-color="gray" stop-opacity="0.251"/>
      <stop offset="0.54" stop-color="gray" stop-opacity="0.122"/>
      <stop offset="1" stop-color="gray" stop-opacity="0.102"/>
    </linearGradient>
    <linearGradient id="linear-gradient-2" x1="-17.87" y1="168.19" x2="-17.87" y2="167.19" xlink:href="#linear-gradient"/>
    <linearGradient id="linear-gradient-3" y2="-0.001" xlink:href="#linear-gradient"/>
    <linearGradient id="linear-gradient-4" x1="-1.948" y1="1.001" x2="-1.948" y2="0" xlink:href="#linear-gradient"/>
    <linearGradient id="linear-gradient-5" x1="2.68" y1="0.777" x2="2.68" y2="-0.153" xlink:href="#linear-gradient"/>
  </defs>
  <g id="new_landing_img" transform="translate(-916.148 -253.414)">
    <path id="Path_13" data-name="Path 13" d="M940.12,186.69H102.631a7.469,7.469,0,0,0-7.461,7.478V706.73a15.068,15.068,0,0,0,15.043,15.094H932.538a15.068,15.068,0,0,0,15.042-15.094V194.168a7.469,7.469,0,0,0-7.461-7.478Z" transform="translate(820.978 79.692)" fill="url(#linear-gradient)"/>
    <path id="Path_14" data-name="Path 14" d="M944.745,223.5V708.7a14.922,14.922,0,0,1-14.913,14.922H114.172A14.922,14.922,0,0,1,99.25,708.7V223.5Z" transform="translate(819.425 74.705)" fill="#fff"/>
    <path id="Path_15" data-name="Path 15" d="M210.7,216.69V722.7H114.172A14.922,14.922,0,0,1,99.25,707.777V216.733Z" transform="translate(820.425 75.628)" fill="#d7d9e1"/>
    <path id="Path_16" data-name="Path 16" d="M944.745,197.4v21.561H99.25V197.4a7.4,7.4,0,0,1,7.4-7.4H937.345a7.4,7.4,0,0,1,7.4,7.4Z" transform="translate(820.425 79.244)" fill="#ededf4"/>
    <rect id="Rectangle_3" data-name="Rectangle 3" width="81.264" height="8.645" transform="translate(1169.45 340.722)" fill="#ededf4"/>
    <rect id="Rectangle_4" data-name="Rectangle 4" width="456.463" height="8.645" transform="translate(1169.45 365.793)" fill="#ededf4"/>
    <rect id="Rectangle_5" data-name="Rectangle 5" width="456.463" height="8.645" transform="translate(1169.45 390.864)" fill="#ededf4"/>
    <rect id="Rectangle_6" data-name="Rectangle 6" width="456.463" height="8.645" transform="translate(1169.45 415.935)" fill="#ededf4"/>
    <rect id="Rectangle_7" data-name="Rectangle 7" width="456.463" height="8.645" transform="translate(1169.45 441.005)" fill="#ededf4"/>
    <rect id="Rectangle_8" data-name="Rectangle 8" width="81.264" height="8.645" transform="translate(930.844 340.722)" fill="#ededf4"/>
    <rect id="Rectangle_9" data-name="Rectangle 9" width="81.264" height="8.645" transform="translate(930.844 365.793)" fill="#ededf4"/>
    <rect id="Rectangle_10" data-name="Rectangle 10" width="81.264" height="8.645" transform="translate(930.844 390.864)" fill="#ededf4"/>
    <rect id="Rectangle_11" data-name="Rectangle 11" width="81.264" height="8.645" transform="translate(930.844 415.935)" fill="#ededf4"/>
    <rect id="Rectangle_12" data-name="Rectangle 12" width="81.264" height="8.645" transform="translate(930.844 441.005)" fill="#ededf4"/>
    <rect id="Rectangle_13" data-name="Rectangle 13" width="3.458" height="5.187" transform="translate(1391.622 253.414) rotate(90)" fill="url(#linear-gradient-2)"/>
    <path id="Path_17" data-name="Path 17" d="M927.231,700.928a1.626,1.626,0,0,0-.865-1.279,1.66,1.66,0,0,0-2.2.925L916.2,717.32l-1.79,65.919h2.87l1.072-65.772,8.749-15.5a1.659,1.659,0,0,0,.13-1.037Z" transform="translate(709.983 10.212)" fill="#3f3d56"/>
    <path id="Path_18" data-name="Path 18" d="M1049.1,793.137a1.265,1.265,0,0,1-.138.164,2.309,2.309,0,0,1-.986.493h0a9.63,9.63,0,0,1-2.222.372h-.225a9.183,9.183,0,0,1-1.288,0,6.8,6.8,0,0,0-.942-.06h0a6.592,6.592,0,0,0-1.34.329,11.491,11.491,0,0,1-2.974.424h-4.305c-1.937,0-3.856.363-5.792.389h-.622a9.146,9.146,0,0,1-5.343-1.6,2.023,2.023,0,0,1-.7-.8,2.316,2.316,0,0,1-.13-1.063,2.506,2.506,0,0,1,.648-1.781,2.781,2.781,0,0,1,1.029-.5l1.971-.623,2.109-.631.138-.043.4-.112.251-.086a4.087,4.087,0,0,0,.864-.406,2.9,2.9,0,0,0,.864-.865c0-.069.087-.138.121-.207v-.164c-.06-.45-.112-.865-.19-1.349a5.315,5.315,0,0,1-2.646-1.5,8.534,8.534,0,0,1-1.548-2.084,43.94,43.94,0,0,1-2.014-5.334,48.076,48.076,0,0,0-4-7.686c-1.375-2.291-2.749-4.582-4.323-6.743-1.037-1.426-2.153-2.8-3.181-4.236a37.439,37.439,0,0,1-6.112-13.365,18.554,18.554,0,0,0-.743-2.715,28.494,28.494,0,0,0-2.594-4.106,13.473,13.473,0,0,1-1.893-4.859c-.182-.985-.484-2.04-1.461-2.144h0l-.1.207c-2.023,3.951-4.106,7.953-7.167,11.169a11.952,11.952,0,0,0-1.34,1.539,15.62,15.62,0,0,0-.865,1.651,10.9,10.9,0,0,1-1.9,2.784,6.452,6.452,0,0,1-.752.64,4.211,4.211,0,0,1-1.184.588h0a3.389,3.389,0,0,1-.51.121.6.6,0,0,1,0,.121c0,.052,0,.1,0,.138a16.911,16.911,0,0,1-.657,8.576.868.868,0,0,1-.086.251c-.147.406-.311.8-.484,1.184-.441.951-.96,1.859-1.366,2.827-.069.164-.138.329-.2.493-1.444,3.838-1.089,8.118-1.262,12.241a13.282,13.282,0,0,1-.32,2.68c-.242.994-.631,2.023-.865,3.043a5.192,5.192,0,0,0,0,2.352h-.087c-.389.147-.778.277-1.167.4v.052c.147.8.277,1.608.415,2.4a3.547,3.547,0,0,0,.743,1.919,3.619,3.619,0,0,1,.346.38c.285.441,0,1.029.086,1.556.078.743.77,1.375.657,2.118a1.383,1.383,0,0,1-.864.994,2.441,2.441,0,0,1-.553.182h-.112l-.648.078a29.992,29.992,0,0,1-8.014.078c-.527-.086-1.046-.207-1.573-.251a11.1,11.1,0,0,0-2.005.086,98.957,98.957,0,0,1-14.757.285c-1.28-.069-2.749-.277-3.458-1.375a4.037,4.037,0,0,1-.069-3.112,3.225,3.225,0,0,1,.432-1.089.794.794,0,0,1,.078-.1c.657-.813,1.9-.865,2.965-.865l3.458.1a3.1,3.1,0,0,0,1.02-.086,10.679,10.679,0,0,0,1.53-.865c.666-.32,1.5-.346,1.98-.864l.061-.078a2.753,2.753,0,0,0,.242-.372l.052-.069h0a.312.312,0,0,0,0-.069c.441-.579,1.219-.769,1.841-1.141a1.244,1.244,0,0,0,.268-.19l.069-.061a7.438,7.438,0,0,1-1.729-1.729,1.848,1.848,0,0,1-.4-.692,1.046,1.046,0,0,1,.043-.588.867.867,0,0,1,.06-.13c.242-.484.744-.916,1.02-1.409V778.3a2.222,2.222,0,0,0-.112-2.412c.285-4.712,1.582-9.32,1.876-14.04.112-1.876.06-3.761.147-5.637s.294-3.709.5-5.55c.476-4.219,1.617-8.351,1.461-12.587a7.765,7.765,0,0,1,0-1.184v-.078a7.091,7.091,0,0,1,.8-2.481,19.157,19.157,0,0,1,1.729-2.481c2.2-2.862,4.85-5.723,5.636-9.259a20,20,0,0,1,2.2-5.127,9,9,0,0,1,1.911-2.689,8.115,8.115,0,0,0,1.271-1.089,10.006,10.006,0,0,0,.951-2.715,12.562,12.562,0,0,0,.6-1.383.869.869,0,0,1,0-.147,9.371,9.371,0,0,0,.121-1.478v-.415h0a15.017,15.017,0,0,1,1.228-4.1l.216-.493a15.265,15.265,0,0,1-4.323-3.735,8.522,8.522,0,0,1-1.037-1.573,19.028,19.028,0,0,1-1.254-4.738c-.865-3.83-2.74-7.435-3-11.343a12.814,12.814,0,0,0-.415-3.553,7.6,7.6,0,0,0-.406-.864c-.069-.121-.13-.242-.19-.363a.692.692,0,0,1-.069-.138l-.19-.354-.294.225a214.8,214.8,0,0,1-23,15.726l-.691.406a2.531,2.531,0,0,0-.865.743l-.078.138h0c-.164.337-.207.726-.346,1.081a2.922,2.922,0,0,1-2,1.591,6.164,6.164,0,0,1-4.53-.588c-.173-.087-.346-.182-.51-.285a5.726,5.726,0,0,1-.571.277,5.6,5.6,0,0,1-.752.285,15.746,15.746,0,0,1-4.418.4,13.434,13.434,0,0,0-4.4.484,11.081,11.081,0,0,1-2.827.865h-.337a5.088,5.088,0,0,1-1.6-.476l-.294-.13c-.147-.078-.294-.147-.441-.242a2.346,2.346,0,0,1-.432-.337,1.584,1.584,0,0,1-.406-.683,1.161,1.161,0,0,1,0-.571.339.339,0,0,1,.121-.216.354.354,0,0,1,.208-.052,6.492,6.492,0,0,1,1.228.1,4.031,4.031,0,0,0,.718,0h.13a1.531,1.531,0,0,0,1.089-.605.566.566,0,0,0,.1-.173h0a.752.752,0,0,0,.069-.32.241.241,0,0,0,0-.078c-.147-.069-.3-.138-.441-.216l-.216-.13h-.043a2.1,2.1,0,0,1-.372-.3,1.148,1.148,0,0,1-.182-.225,1.351,1.351,0,0,1-.216-.432h0a2.056,2.056,0,0,0-.865,0c-.389.1-.787.337-1.176.415a.977.977,0,0,1-.588,0c-.562-.2-.752-.865-.865-1.461a.638.638,0,0,0-.069-.346h0a1.963,1.963,0,0,1,0-.674,2.455,2.455,0,0,1,.942-1.228l1.176-.986.087-.069q-.033-.146-.052-.294a1.728,1.728,0,0,1,0-.666,2.474,2.474,0,0,1,.942-1.228l2.594-2.187a3.043,3.043,0,0,1,1.651-.864c.942-.061,1.729.718,2.4,1.34a5.317,5.317,0,0,0,3.147,1.513,4.556,4.556,0,0,0,1.669-.225l.3-.1c-.061-.13-.13-.259-.19-.4s-.208-.441-.3-.657a7.167,7.167,0,0,0,4.063-1.945c1.158-1,2.153-2.187,3.32-3.173s2.706-1.876,3.985-2.9c2.974-2.412,4.954-5.957,8.135-8.083a10.608,10.608,0,0,0,3.129-2.438c.234-.337.406-.726.649-1.063.761-1.072,2.066-1.565,3.147-2.308a15.563,15.563,0,0,0,2.9-2.888c.623-.752,1.254-1.5,1.842-2.274.553-1.02,1.011-2.083,1.591-3.095a15.368,15.368,0,0,1,1.729-2.395c.147-.285.294-.571.458-.865s.277-.476.424-.7.216-.32.328-.475c-.328-.579-.64-1.081-.786-1.288l-.069-.1a11.162,11.162,0,0,0-1.012-.942q-.57-.1-1.115-.233a10.452,10.452,0,0,1-7.686-10.1h0a10.373,10.373,0,0,1,1.141-4.72c.147-.294.311-.571.484-.865a4.576,4.576,0,0,1-.476-.2,1.832,1.832,0,0,1-.666-.545,1.591,1.591,0,0,1-.276-.7,3.518,3.518,0,0,1,.259-1.729,7.751,7.751,0,0,1,.328-.778v-.043a9.976,9.976,0,0,1,8.429-5.343c3.683-.147,7.262,1.573,10.167,4.046a13.691,13.691,0,0,1,2.481,2.308,14.7,14.7,0,0,1,2.395,7.469,11.346,11.346,0,0,1,0,2.481,5.858,5.858,0,0,1-.173.865c-.052.173-.112.337-.173.5a3.519,3.519,0,0,1-.164.363h0a2.519,2.519,0,0,1-.182.337v.043l-.052.078.095.208a1.947,1.947,0,0,0,.1.19h0c.726.061,1.383.156,2.109.216a4.482,4.482,0,0,1,1.02.156,6.968,6.968,0,0,1,1.859,1.158c1.5,1.055,3.328,1.547,4.789,2.637,2.17,1.608,3.242,4.253,4.53,6.631,1.729,3.181,4.521,5.887,5.758,9.293l1.686,4.625a70.982,70.982,0,0,0,3.691,8.9c2.075,3.968,4.893,7.539,6.562,11.688a1.841,1.841,0,0,0,.865.968,75.8,75.8,0,0,1,6.051,10.1,19.517,19.517,0,0,1,2.058,5.853,13.909,13.909,0,0,1-.449,5.464,25.149,25.149,0,0,1-1.046,3.1,5.191,5.191,0,0,0-.354,1.107.557.557,0,0,0,0,.121,10.467,10.467,0,0,0,.259,2.058,3.789,3.789,0,0,1-.181,1.643.713.713,0,0,1-.1.242,9.527,9.527,0,0,0-.562,1.305v.164a6.5,6.5,0,0,0,.363,2.343,31.061,31.061,0,0,1,.354,8.593c-.087,1.427,1.072,2.594,2.04,3.64a38.563,38.563,0,0,1,4.539,6.6,20.924,20.924,0,0,1,1.859,3.709,32.739,32.739,0,0,1,.994,4.565c.916,4.729,3.9,8.9,4.711,13.651a12.242,12.242,0,0,0,2.767,5.87,12,12,0,0,1,1.193,1.444,5.83,5.83,0,0,1,.6,1.288,9.506,9.506,0,0,1,.484,3.268,5.189,5.189,0,0,0,.095,1.591c.337,1.1,1.539,1.729,2.04,2.74s.147,2.36.337,3.536a3.873,3.873,0,0,0,1.418,2.386c-.285.251-.588.484-.864.709a3.533,3.533,0,0,1,.743.778,3.018,3.018,0,0,1,.337.64c.476,1.1.493,2.4.865,3.562a2.539,2.539,0,0,1,.251,1.5,1.665,1.665,0,0,0-.121.441c0,.329.337.536.467.865a.864.864,0,0,1-.156.847Z" transform="translate(708.941 20.681)" fill="url(#linear-gradient-3)"/>
    <path id="Path_19" data-name="Path 19" d="M980.611,655.875a22.635,22.635,0,0,0,6.052-3.052l6.666-4.245a5.809,5.809,0,0,1-4.323-2.991,15.3,15.3,0,0,1-1.625-5.187,27.1,27.1,0,0,0-7.66,5.014c-.925.8-2.87,1.988-3.156,3.225s1.522,2.239,2.222,3.069C979.055,652.01,981.32,655.685,980.611,655.875Z" transform="translate(701.565 18.221)" fill="#fbbebe"/>
    <path id="Path_20" data-name="Path 20" d="M980.611,655.875a22.635,22.635,0,0,0,6.052-3.052l6.666-4.245a5.809,5.809,0,0,1-4.323-2.991,15.3,15.3,0,0,1-1.625-5.187,27.1,27.1,0,0,0-7.66,5.014c-.925.8-2.87,1.988-3.156,3.225s1.522,2.239,2.222,3.069C979.055,652.01,981.32,655.685,980.611,655.875Z" transform="translate(701.565 18.221)" opacity="0.1"/>
    <path id="Path_21" data-name="Path 21" d="M936.827,698.6a7.366,7.366,0,0,1-3.743,1.132,5.464,5.464,0,0,1-3.147-1.5c-.7-.622-1.452-1.4-2.395-1.331a3.085,3.085,0,0,0-1.651.865l-2.594,2.179a1.807,1.807,0,0,0-.865,2.222c.121.579.311,1.262.865,1.461s1.167-.233,1.729-.389a2.066,2.066,0,0,1,2.031.6,1.219,1.219,0,0,1,.346.778c0,.648-.726,1.072-1.375,1.107s-1.3-.181-1.945-.138a.354.354,0,0,0-.207.052.346.346,0,0,0-.121.208,1.357,1.357,0,0,0,.415,1.253,3.621,3.621,0,0,0,1.167.7,4.747,4.747,0,0,0,1.6.475,9.246,9.246,0,0,0,3.156-.865,13.832,13.832,0,0,1,4.392-.484,15.348,15.348,0,0,0,4.409-.389,4.989,4.989,0,0,0,3.337-2.706.7.7,0,0,0,.06-.415.71.71,0,0,0-.3-.354c-2-1.478-2.81-3.276-5.057-4.323Z" transform="translate(708.91 10.567)" fill="#fbbebe"/>
    <path id="Path_22" data-name="Path 22" d="M936.827,698.6a7.366,7.366,0,0,1-3.743,1.132,5.464,5.464,0,0,1-3.147-1.5c-.7-.622-1.452-1.4-2.395-1.331a3.085,3.085,0,0,0-1.651.865l-2.594,2.179a1.807,1.807,0,0,0-.865,2.222c.121.579.311,1.262.865,1.461s1.167-.233,1.729-.389a2.066,2.066,0,0,1,2.031.6,1.219,1.219,0,0,1,.346.778c0,.648-.726,1.072-1.375,1.107s-1.3-.181-1.945-.138a.354.354,0,0,0-.207.052.346.346,0,0,0-.121.208,1.357,1.357,0,0,0,.415,1.253,3.621,3.621,0,0,0,1.167.7,4.747,4.747,0,0,0,1.6.475,9.246,9.246,0,0,0,3.156-.865,13.832,13.832,0,0,1,4.392-.484,15.348,15.348,0,0,0,4.409-.389,4.989,4.989,0,0,0,3.337-2.706.7.7,0,0,0,.06-.415.71.71,0,0,0-.3-.354c-2-1.478-2.81-3.276-5.057-4.323Z" transform="translate(708.91 10.567)" opacity="0.1"/>
    <path id="Path_23" data-name="Path 23" d="M980.7,654.56a4.322,4.322,0,0,0-3.787-.458,8.153,8.153,0,0,0-3.268,2.179,14.9,14.9,0,0,0-2.3,3.043c-.614,1.063-1.089,2.2-1.686,3.268a34.063,34.063,0,0,1-3.89,5.282,15.174,15.174,0,0,1-2.9,2.87c-1.072.743-2.377,1.236-3.138,2.3-.242.337-.415.718-.657,1.063a10.412,10.412,0,0,1-3.121,2.412c-3.181,2.118-5.187,5.637-8.118,8.031-1.279,1.029-2.723,1.841-3.985,2.9s-2.161,2.153-3.311,3.147a7.09,7.09,0,0,1-4.063,1.928,20.75,20.75,0,0,0,3.977,6.259c1.729,1.729,4.323,2.9,6.743,2.2a2.931,2.931,0,0,0,2-1.582,6.532,6.532,0,0,1,.415-1.219,2.594,2.594,0,0,1,.908-.735,213.711,213.711,0,0,0,27.267-18.9c2.308-1.876,4.59-3.553,6.916-5.36a15.162,15.162,0,0,0,2.343-2.049,7.781,7.781,0,0,0,.942-8.576,20.536,20.536,0,0,0-2.17-2.948,26,26,0,0,0-5.118-5.057Z" transform="translate(706.992 16.398)" fill="#6c63ff"/>
    <path id="Path_24" data-name="Path 24" d="M980.7,654.56a4.322,4.322,0,0,0-3.787-.458,8.153,8.153,0,0,0-3.268,2.179,14.9,14.9,0,0,0-2.3,3.043c-.614,1.063-1.089,2.2-1.686,3.268a34.063,34.063,0,0,1-3.89,5.282,15.174,15.174,0,0,1-2.9,2.87c-1.072.743-2.377,1.236-3.138,2.3-.242.337-.415.718-.657,1.063a10.412,10.412,0,0,1-3.121,2.412c-3.181,2.118-5.187,5.637-8.118,8.031-1.279,1.029-2.723,1.841-3.985,2.9s-2.161,2.153-3.311,3.147a7.09,7.09,0,0,1-4.063,1.928,20.75,20.75,0,0,0,3.977,6.259c1.729,1.729,4.323,2.9,6.743,2.2a2.931,2.931,0,0,0,2-1.582,6.532,6.532,0,0,1,.415-1.219,2.594,2.594,0,0,1,.908-.735,213.711,213.711,0,0,0,27.267-18.9c2.308-1.876,4.59-3.553,6.916-5.36a15.162,15.162,0,0,0,2.343-2.049,7.781,7.781,0,0,0,.942-8.576,20.536,20.536,0,0,0-2.17-2.948,26,26,0,0,0-5.118-5.057Z" transform="translate(706.992 16.398)" fill="#1492e6" opacity="0.1"/>
    <path id="Path_25" data-name="Path 25" d="M967.629,808.047a5.756,5.756,0,0,0-1.833,1.141c-.147.182-.242.406-.4.579-.475.562-1.323.588-1.98.908a11.732,11.732,0,0,1-1.53.865,3.405,3.405,0,0,1-1.029.078l-3.458-.1c-1.107,0-2.4,0-3.043.925a3.23,3.23,0,0,0-.432,1.089,3.994,3.994,0,0,0,.069,3.095c.674,1.081,2.144,1.288,3.458,1.357a97.6,97.6,0,0,0,14.7-.285,11.869,11.869,0,0,1,2-.078,15.72,15.72,0,0,1,1.573.251,30.257,30.257,0,0,0,8.005-.078,4.071,4.071,0,0,0,1.323-.285,1.365,1.365,0,0,0,.865-.985c.112-.743-.579-1.366-.657-2.109-.052-.527.2-1.107-.086-1.548a2.358,2.358,0,0,0-.346-.372,3.536,3.536,0,0,1-.735-1.911l-.649-3.7a1.1,1.1,0,0,0-.294-.692,1.029,1.029,0,0,0-.45-.182c-2.723-.622-5.524-.052-8.247.294a22.942,22.942,0,0,1-4.219.207c-.6,0-.864-.112-1.3.285A8.618,8.618,0,0,1,967.629,808.047Z" transform="translate(704.666 -4.179)" fill="#3f3d56"/>
    <path id="Path_26" data-name="Path 26" d="M1044.915,812.861a5.689,5.689,0,0,1-1.53.6q-2.109.622-4.21,1.288a2.782,2.782,0,0,0-1.029.5,2.472,2.472,0,0,0-.648,1.772,2.3,2.3,0,0,0,.13,1.055,2.064,2.064,0,0,0,.7.8,9.381,9.381,0,0,0,5.714,1.591c2.014,0,4.011-.337,6.052-.389,2.438-.069,4.936.277,7.271-.406a7.027,7.027,0,0,1,1.383-.337,6.932,6.932,0,0,1,.943.06,9.844,9.844,0,0,0,3.726-.337,2.29,2.29,0,0,0,.995-.493.943.943,0,0,0,.268-1.011c-.13-.285-.458-.5-.467-.865a1.684,1.684,0,0,1,.121-.441,2.515,2.515,0,0,0-.251-1.487c-.467-1.383-.389-2.974-1.219-4.176a5.309,5.309,0,0,0-3.787-1.885,10.554,10.554,0,0,0-3.536.1c-1.306.277-2.525.865-3.812,1.236a12.613,12.613,0,0,1-4.582.432c-1.029-.086-.675.078-1.021.934A3.018,3.018,0,0,1,1044.915,812.861Z" transform="translate(693.308 -4.567)" fill="#3f3d56"/>
    <circle id="Ellipse_18" data-name="Ellipse 18" cx="10.391" cy="10.391" r="10.391" transform="translate(1670.583 648.351)" fill="#fbbebe"/>
    <path id="Path_27" data-name="Path 27" d="M1053.555,786.771a18.4,18.4,0,0,1-11.827,4.029,9.664,9.664,0,0,1-5.187-1.107c-.1-.588-.147-1.219-.259-1.807a6.623,6.623,0,0,1-4.184-3.562,43.454,43.454,0,0,1-2.014-5.3,47.638,47.638,0,0,0-4-7.642c-1.366-2.274-2.74-4.547-4.323-6.691-1.037-1.427-2.153-2.784-3.173-4.21a37.173,37.173,0,0,1-6.112-13.279,16.825,16.825,0,0,0-.744-2.7,26.768,26.768,0,0,0-2.594-4.081,13.408,13.408,0,0,1-1.894-4.833c-.181-.977-.475-2.031-1.461-2.135h0c-2.058,4-4.158,8.057-7.262,11.308a11.1,11.1,0,0,0-1.34,1.521,14.949,14.949,0,0,0-.864,1.651,10.375,10.375,0,0,1-1.893,2.767,4.436,4.436,0,0,1-2.447,1.331,16.648,16.648,0,0,1-1.176,10.21c-.432.951-.951,1.85-1.357,2.81-1.668,3.933-1.288,8.386-1.461,12.656a13.023,13.023,0,0,1-.311,2.663c-.441,1.729-1.331,3.614-.865,5.36-4.5,1.729-9.51,1.608-14.238.864a6.831,6.831,0,0,1-2.654-.8,7.4,7.4,0,0,1-1.729-1.729,1.852,1.852,0,0,1-.4-.692c-.181-.821.726-1.418,1.141-2.144a2.2,2.2,0,0,0-.095-2.438c.286-4.694,1.582-9.276,1.867-13.962.121-1.867.069-3.735.156-5.6s.285-3.683.493-5.516c.475-4.184,1.625-8.291,1.461-12.5a7.244,7.244,0,0,1,.865-3.726,18.2,18.2,0,0,1,1.729-2.464c2.2-2.844,4.841-5.689,5.628-9.2a19.876,19.876,0,0,1,2.187-5.092,9,9,0,0,1,1.919-2.672,8.465,8.465,0,0,0,1.262-1.089,10.19,10.19,0,0,0,.96-2.7,14.81,14.81,0,0,0,.579-1.375,7.677,7.677,0,0,0,.164-1.608,14.823,14.823,0,0,1,1.487-5,15.275,15.275,0,0,1-4.323-3.709,9,9,0,0,1-1.046-1.565,19.671,19.671,0,0,1-1.253-4.7c-.865-3.812-2.723-7.392-2.991-11.239a12.741,12.741,0,0,0-.415-3.536,11.836,11.836,0,0,0-.666-1.375,5.532,5.532,0,0,1-.562-1.392,23.716,23.716,0,0,1,0-3.233,23.511,23.511,0,0,0-.692-2.766,13.29,13.29,0,0,1-.1-3.657,30.346,30.346,0,0,0,.276-4.323,16.737,16.737,0,0,1,4.547-12.872l.086-.087c.683-.7,1.427-1.349,2.049-2.109.865-1.012,1.444-2.213,2.317-3.2.389-.441.864-.864,1.21-1.279a10.424,10.424,0,0,1,1.158-1.305,1.8,1.8,0,0,1,1.625-.432,4.257,4.257,0,0,0,.493,1.522c.743.061,1.409.164,2.144.225a4.479,4.479,0,0,1,1.02.156,6.726,6.726,0,0,1,1.859,1.15c1.487,1.046,3.32,1.539,4.781,2.594,2.17,1.591,3.242,4.227,4.521,6.588,1.729,3.164,4.521,5.853,5.758,9.233q.865,2.308,1.677,4.6a70.838,70.838,0,0,0,3.692,8.853c2.075,3.934,4.885,7.487,6.544,11.61a1.858,1.858,0,0,0,.865.96,75.708,75.708,0,0,1,6.052,10.037,19.066,19.066,0,0,1,2.049,5.818,16.93,16.93,0,0,1-1.487,8.515,4.252,4.252,0,0,0-.372,1.219,9.693,9.693,0,0,0,.259,2.04,3.86,3.86,0,0,1-.277,1.876,8.486,8.486,0,0,0-.562,1.3,5.543,5.543,0,0,0,.337,2.49,30.693,30.693,0,0,1,.346,8.542c-.078,1.418,1.081,2.594,2.04,3.614a38.568,38.568,0,0,1,4.539,6.562,21.61,21.61,0,0,1,1.85,3.683,32.328,32.328,0,0,1,1,4.547c.865,4.694,3.89,8.844,4.694,13.556a12.1,12.1,0,0,0,2.766,5.827,12.628,12.628,0,0,1,1.193,1.444,5.357,5.357,0,0,1,.588,1.279,9.464,9.464,0,0,1,.493,3.25,4.625,4.625,0,0,0,.1,1.582c.328,1.089,1.539,1.729,2.031,2.723s.156,2.343.346,3.51A3.735,3.735,0,0,0,1053.555,786.771Z" transform="translate(702.754 17.805)" fill="#1492e6"/>
    <path id="Path_28" data-name="Path 28" d="M939.319,694.872A7.392,7.392,0,0,1,935.576,696a5.438,5.438,0,0,1-3.147-1.5c-.709-.622-1.461-1.4-2.395-1.331a3.062,3.062,0,0,0-1.651.864l-2.593,2.179a2.4,2.4,0,0,0-.934,1.219,2.318,2.318,0,0,0,.06,1c.113.579.312,1.262.865,1.461s1.167-.233,1.729-.389a2.049,2.049,0,0,1,2.032.6,1.176,1.176,0,0,1,.346.778c0,.648-.717,1.081-1.375,1.107s-1.288-.182-1.937-.138a.362.362,0,0,0-.216.052.392.392,0,0,0-.121.208,1.383,1.383,0,0,0,.467,1.288,3.945,3.945,0,0,0,1.176.709,4.953,4.953,0,0,0,1.591.467,9.143,9.143,0,0,0,3.156-.865,13.7,13.7,0,0,1,4.4-.493,15.357,15.357,0,0,0,4.409-.389,4.981,4.981,0,0,0,3.329-2.706.589.589,0,0,0,.06-.415.691.691,0,0,0-.294-.354c-2.006-1.478-2.818-3.276-5.066-4.323Z" transform="translate(708.571 11.072)" fill="#fbbebe"/>
    <path id="Path_29" data-name="Path 29" d="M973.195,631.832a8.726,8.726,0,0,0-1.729.752,2.991,2.991,0,0,1-2.446-.138,1.831,1.831,0,0,1-.666-.545,2.594,2.594,0,0,1,0-2.412,9.847,9.847,0,0,1,8.775-6.121c3.674-.147,7.253,1.565,10.149,4.02a14.2,14.2,0,0,1,2.308,2.412,14.609,14.609,0,0,1,2.395,7.426,9.721,9.721,0,0,1-.225,3.32,4.047,4.047,0,0,1-1.876,2.542,3.744,3.744,0,0,1-3.294-.147,13.361,13.361,0,0,1-2.81-2.049,4.323,4.323,0,0,0-1.4-.865,1.453,1.453,0,0,0-1.522.363c-.475.579-.363,1.522-.8,2.144a2.368,2.368,0,0,1-2.109.709,2.412,2.412,0,0,1-2.006-.674,2.507,2.507,0,0,1-.2-2.049,6.533,6.533,0,0,0,.354-2.1c-.147-1.418-1.4-2.317-1.789-3.631-.251-.865.311-1.228.251-2.006a1.124,1.124,0,0,0-1.366-.951Z" transform="translate(702.714 20.53)" fill="#3f3d56"/>
    <path id="Path_30" data-name="Path 30" d="M1009.583,743.642v.086h0c-2.058,4-4.158,8.057-7.262,11.308a11.126,11.126,0,0,0-1.34,1.522,15.007,15.007,0,0,0-.864,1.651,10.371,10.371,0,0,1-1.893,2.766l-2.594,1.3,8.239-42.992Z" transform="translate(698.978 7.534)" opacity="0.1"/>
    <path id="Path_31" data-name="Path 31" d="M995.36,669.483a15.124,15.124,0,0,1-2.343,2.049c-2.369,1.807-4.651,3.458-6.916,5.36q-2.792,2.274-5.637,4.435a5.532,5.532,0,0,1-.562-1.392,23.736,23.736,0,0,1,0-3.233,23.558,23.558,0,0,0-.692-2.766,13.281,13.281,0,0,1-.1-3.657,30.345,30.345,0,0,0,.277-4.323,16.737,16.737,0,0,1,4.547-12.873l.086-.086a6.709,6.709,0,0,1,1.219-.545,4.322,4.322,0,0,1,3.786.458,25.812,25.812,0,0,1,5.187,5.066,19.972,19.972,0,0,1,2.17,2.939,7.78,7.78,0,0,1-1.02,8.567Z" transform="translate(701.228 16.621)" opacity="0.1"/>
    <path id="Path_32" data-name="Path 32" d="M983.19,650.83a4.323,4.323,0,0,0-3.8-.458,8.178,8.178,0,0,0-3.259,2.179,14.943,14.943,0,0,0-2.308,3.043c-.605,1.063-1.089,2.2-1.677,3.268a33.587,33.587,0,0,1-3.9,5.282,14.9,14.9,0,0,1-2.887,2.87c-1.081.744-2.386,1.236-3.147,2.3-.242.337-.415.718-.648,1.063a10.559,10.559,0,0,1-3.13,2.412c-3.173,2.118-5.187,5.637-8.109,8.031-1.279,1.029-2.723,1.842-3.985,2.9s-2.161,2.153-3.32,3.147a7.046,7.046,0,0,1-4.055,1.928,20.754,20.754,0,0,0,3.968,6.259c1.729,1.729,4.366,2.9,6.752,2.2a2.922,2.922,0,0,0,1.988-1.582,7.256,7.256,0,0,1,.424-1.219,2.6,2.6,0,0,1,.908-.735,214.282,214.282,0,0,0,27.267-18.9c2.308-1.876,4.591-3.553,6.916-5.36a14.753,14.753,0,0,0,2.343-2.049,7.78,7.78,0,0,0,.951-8.576,19.437,19.437,0,0,0-2.178-2.939A25.774,25.774,0,0,0,983.19,650.83Z" transform="translate(706.655 16.903)" fill="#1492e6"/>
    <g id="Group_12" data-name="Group 12" transform="translate(1670.753 648.506)" opacity="0.1">
      <path id="Path_33" data-name="Path 33" d="M978.647,642.506a2.386,2.386,0,0,1-2.006-.674,2.508,2.508,0,0,1-.2-2.049,6.488,6.488,0,0,0,.355-2.092c-.147-1.426-1.4-2.317-1.79-3.64-.251-.864.311-1.228.251-2.006a1.133,1.133,0,0,0-1.34-.925,8.729,8.729,0,0,0-1.729.752,2.992,2.992,0,0,1-2.447-.13,2.034,2.034,0,0,1-.666-.545,2.594,2.594,0,0,1,0-2.42V628.7a9.1,9.1,0,0,0-.743,1.513,2.593,2.593,0,0,0,0,2.412,1.831,1.831,0,0,0,.666.545,2.991,2.991,0,0,0,2.464.113,8.728,8.728,0,0,1,1.729-.752,1.123,1.123,0,0,1,1.34.925c.061.778-.5,1.141-.25,2.006.389,1.314,1.643,2.213,1.789,3.631a6.53,6.53,0,0,1-.354,2.1,2.507,2.507,0,0,0,.2,2.049,2.411,2.411,0,0,0,2.005.674,2.369,2.369,0,0,0,2.109-.709,2.926,2.926,0,0,0,.389-1.1,3.051,3.051,0,0,1-1.772.4Z" transform="translate(-968.036 -628.7)"/>
      <path id="Path_34" data-name="Path 34" d="M992.611,644.031a3.726,3.726,0,0,1-3.285-.138,14.3,14.3,0,0,1-2.853-2.04,4.09,4.09,0,0,0-1.392-.865,1.452,1.452,0,0,0-1.522.363,2.8,2.8,0,0,0-.45,1.21,1.513,1.513,0,0,1,1.254-.138,4.318,4.318,0,0,1,1.4.864,13.358,13.358,0,0,0,2.81,2.049,3.744,3.744,0,0,0,3.294.147,4,4,0,0,0,1.842-2.421A3.252,3.252,0,0,1,992.611,644.031Z" transform="translate(-970.078 -630.354)"/>
    </g>
    <circle id="Ellipse_19" data-name="Ellipse 19" cx="10.746" cy="10.746" r="10.746" transform="translate(1593.382 794.713)" fill="#3f3d56"/>
    <circle id="Ellipse_20" data-name="Ellipse 20" cx="10.746" cy="10.746" r="10.746" transform="translate(1593.382 794.713)" opacity="0.1"/>
    <circle id="Ellipse_21" data-name="Ellipse 21" cx="6.804" cy="6.804" r="6.804" transform="translate(1597.324 798.655)" fill="#65617d"/>
    <circle id="Ellipse_22" data-name="Ellipse 22" cx="6.804" cy="6.804" r="6.804" transform="translate(1597.324 798.655)" opacity="0.1"/>
    <path id="Path_35" data-name="Path 35" d="M881.43,790.6l7.054,15.942a1.366,1.366,0,0,0,2.481.052l8.386-17.074Z" transform="translate(714.451 -1.983)" fill="#3f3d56"/>
    <path id="Path_36" data-name="Path 36" d="M881.43,790.6l7.054,15.942a1.366,1.366,0,0,0,2.481.052l8.386-17.074Z" transform="translate(714.451 -1.983)" opacity="0.1"/>
    <circle id="Ellipse_23" data-name="Ellipse 23" cx="10.746" cy="10.746" r="10.746" transform="translate(1526.382 794.713)" fill="#3f3d56"/>
    <circle id="Ellipse_24" data-name="Ellipse 24" cx="10.746" cy="10.746" r="10.746" transform="translate(1526.382 794.713)" opacity="0.1"/>
    <circle id="Ellipse_25" data-name="Ellipse 25" cx="6.804" cy="6.804" r="6.804" transform="translate(1530.325 798.655)" fill="#65617d"/>
    <circle id="Ellipse_26" data-name="Ellipse 26" cx="6.804" cy="6.804" r="6.804" transform="translate(1530.325 798.655)" opacity="0.1"/>
    <path id="Path_37" data-name="Path 37" d="M803.94,790.6l7.054,15.942a1.366,1.366,0,0,0,2.481.052l8.377-17.074Z" transform="translate(724.95 -1.983)" fill="#3f3d56"/>
    <path id="Path_38" data-name="Path 38" d="M803.94,790.6l7.054,15.942a1.366,1.366,0,0,0,2.481.052l8.377-17.074Z" transform="translate(724.95 -1.983)" opacity="0.1"/>
    <path id="Path_39" data-name="Path 39" d="M929.583,701.778a1.609,1.609,0,0,0-.865-1.279,1.66,1.66,0,0,0-2.2.925l-6.164,15.311-1.79,68.789h2.862l1.072-68.642,6.968-14.066A1.65,1.65,0,0,0,929.583,701.778Z" transform="translate(709.42 10.097)" fill="#3f3d56"/>
    <path id="Path_40" data-name="Path 40" d="M768.43,718.565l9.674-6.086,104.433-.9,2.689,6.985Z" transform="translate(743.8 71.661)" fill="#1492e6"/>
    <path id="Path_41" data-name="Path 41" d="M768.43,725.93v-6.449l118.689-1.141-.112,4.366H770.574v3.225Z" transform="translate(743.8 70.745)" fill="#3f3d56"/>
    <circle id="Ellipse_27" data-name="Ellipse 27" cx="10.746" cy="10.746" r="10.746" transform="translate(1516.527 798.473)" fill="#3f3d56"/>
    <circle id="Ellipse_28" data-name="Ellipse 28" cx="6.804" cy="6.804" r="6.804" transform="translate(1520.469 802.416)" fill="#65617d"/>
    <path id="Path_42" data-name="Path 42" d="M792.54,794.952l7.055,15.942a1.366,1.366,0,0,0,2.481.052l8.377-17.065Z" transform="translate(726.494 -2.573)" fill="#3f3d56"/>
    <circle id="Ellipse_29" data-name="Ellipse 29" cx="10.746" cy="10.746" r="10.746" transform="translate(1600.004 798.473)" fill="#3f3d56"/>
    <circle id="Ellipse_30" data-name="Ellipse 30" cx="6.804" cy="6.804" r="6.804" transform="translate(1603.947 802.416)" fill="#65617d"/>
    <path id="Path_43" data-name="Path 43" d="M889.1,794.952l7.054,15.942a1.366,1.366,0,0,0,2.481.052l8.377-17.065Z" transform="translate(713.412 -2.573)" fill="#3f3d56"/>
    <rect id="Rectangle_14" data-name="Rectangle 14" width="70.89" height="70.89" transform="translate(1529.088 715.921)" fill="#ededf4"/>
    <path id="Path_44" data-name="Path 44" d="M820.85,741.068h12.017v18.016H820.85Zm15.017-9.008h12.008v27.025H835.867Zm15.017,15.008h12.008v12.017H850.883Z" transform="translate(722.659 5.802)" fill="#1492e6"/>
    <rect id="Rectangle_15" data-name="Rectangle 15" width="70.89" height="70.89" transform="translate(1541.192 645.031)" fill="#d7d9e1"/>
    <path id="Path_45" data-name="Path 45" d="M845.27,679.529h24.025v4.5H845.27Zm12.017-12.008a3.008,3.008,0,0,0,0-6.008,3.315,3.315,0,0,0-.865.112l-6.2-4.565-.372.328,4.591,6.259a2.848,2.848,0,0,0-.138.865,3,3,0,0,0,2.983,3.009Z" transform="translate(719.35 15.964)" fill="#1492e6"/>
    <path id="Path_46" data-name="Path 46" d="M856.111,643.11a19.512,19.512,0,0,0-15.38,31.529h5.515l.372-.38,2.075-2.066-2.144-2.153-2.075,2.066a14.91,14.91,0,0,1-3.3-7.98h2.922V661.17h-2.922a14.91,14.91,0,0,1,3.3-7.98l2.075,2.066,2.144-2.153-2.066-2.066a14.937,14.937,0,0,1,7.979-3.3v2.922h3v-2.922a14.912,14.912,0,0,1,7.98,3.3L863.52,653.1l2.153,2.153,2.075-2.066a14.982,14.982,0,0,1,3.3,7.979h-2.931v3h2.931a14.982,14.982,0,0,1-3.3,7.98l-2.075-2.066-2.153,2.153,2.075,2.066.38.38h5.55a19.521,19.521,0,0,0-15.38-31.529Z" transform="translate(720.526 17.854)" fill="#1492e6"/>
    <rect id="Rectangle_16" data-name="Rectangle 16" width="70.89" height="70.89" transform="translate(1156.179 481.638)" opacity="0.1"/>
    <path id="Path_139" data-name="Path 139" d="M0,0H70.89V70.89H0Z" transform="translate(1154.45 479.909)" fill="#ededf4"/>
    <g id="Group_17" data-name="Group 17" transform="translate(837.898 154.057)">
      <rect id="Rectangle_28" data-name="Rectangle 28" width="91.191" height="97.896" transform="translate(342.282 457.581)" opacity="0.1"/>
      <rect id="Rectangle_27" data-name="Rectangle 27" width="91.191" height="97.896" transform="translate(340.102 454.943)" fill="#ededf4"/>
    </g>
    <path id="Path_47" data-name="Path 47" d="M419.067,453.85h6.008v36.033h-6.008Zm-9.008,25.52h6v10.513H410.05Zm18.016-6.008h6.052v16.521h-6.052Zm9.008-9.008h6.008v25.529h-6.008Z" transform="translate(763.316 43.496)" fill="#1492e6"/>
    <rect id="Rectangle_18" data-name="Rectangle 18" width="70.89" height="70.89" transform="translate(1555.024 480.773)" opacity="0.1"/>
    <rect id="Rectangle_19" data-name="Rectangle 19" width="70.89" height="70.89" transform="translate(1553.295 479.044)" fill="#ededf4"/>
    <path id="Path_48" data-name="Path 48" d="M881.451,465.125l-8.187,12.518a4.434,4.434,0,0,1,1.012,2.836,4.5,4.5,0,0,1-9.008,0,5.291,5.291,0,0,1,.078-.865l-5.4-3.147a4.487,4.487,0,0,1-5.343.674l-5.749,5.386V487.9a4.02,4.02,0,0,0,4,4.011h34.036A4.029,4.029,0,0,0,890.9,487.9v-19.91l-5.5-3.657a4.521,4.521,0,0,1-3.951.8Z" transform="translate(718.865 42.076)" fill="#1492e6"/>
    <path id="Path_49" data-name="Path 49" d="M856.821,466.968a4.5,4.5,0,0,1,4.5,4.5v.579l5.637,3.155a4.494,4.494,0,0,1,2.853-1.02,4.989,4.989,0,0,1,.977.1l8.2-12.7A4.49,4.49,0,1,1,887.139,459a4.759,4.759,0,0,1-.121,1.063l3.882,2.594v-7.513a4.029,4.029,0,0,0-4.011-4.011H852.853a4.02,4.02,0,0,0-4,4.011v21.518l3.752-3.6a4.5,4.5,0,0,1,4.219-6.052Z" transform="translate(718.865 43.864)" fill="#1492e6"/>
    <rect id="Rectangle_20" data-name="Rectangle 20" width="70.89" height="70.89" transform="translate(1363.102 484.231)" opacity="0.1"/>
    <rect id="Rectangle_21" data-name="Rectangle 21" width="70.89" height="70.89" transform="translate(1361.373 482.502)" fill="#ededf4"/>
    <path id="Path_50" data-name="Path 50" d="M637.27,491.529h24.025v4.5H637.27Zm12.017-12.008a3.026,3.026,0,1,0,0-6.052,3.309,3.309,0,0,0-.864.112l-6.2-4.521-.372.329,4.591,6.259a2.849,2.849,0,0,0-.138.865,3,3,0,0,0,2.982,3.008Z" transform="translate(747.531 41.435)" fill="#1492e6"/>
    <path id="Path_51" data-name="Path 51" d="M648.111,455.11a19.512,19.512,0,0,0-15.38,31.529h5.516l.372-.38,2.075-2.066-2.144-2.153-2.075,2.066a14.913,14.913,0,0,1-3.3-7.979h2.922V473.17h-2.922a14.913,14.913,0,0,1,3.3-7.979l2.075,2.066,2.144-2.153-2.066-2.066a14.94,14.94,0,0,1,7.979-3.3v2.922h3v-2.922a14.913,14.913,0,0,1,7.979,3.3L655.52,465.1l2.153,2.153,2.075-2.066a14.983,14.983,0,0,1,3.3,7.979h-2.931v3h2.931a14.981,14.981,0,0,1-3.3,7.979l-2.075-2.066-2.153,2.153,2.075,2.066.38.38h5.55a19.521,19.521,0,0,0-15.38-31.529Z" transform="translate(748.707 43.325)" fill="#1492e6"/>
    <rect id="Rectangle_22" data-name="Rectangle 22" width="70.89" height="70.89" transform="translate(1358.708 595.754)" opacity="0.1"/>
    <rect id="Rectangle_23" data-name="Rectangle 23" width="70.89" height="70.89" transform="translate(1352.656 590.566)" fill="#ededf4"/>
    <path id="Path_52" data-name="Path 52" d="M617.281,588.09,622.1,592.9l-10.253,10.27-8.412-8.412-15.561,15.6,2.965,2.965,12.613-12.613,8.412,8.412L625.1,595.9l4.815,4.815V588.09Z" transform="translate(779.224 25.308)" fill="#1492e6"/>
    <path id="Path_53" data-name="Path 53" d="M557.707,790.684c.51-2.179.865-4.089.865-4.089a8.409,8.409,0,0,1,.942-4.15v-.588h0v-4.383a14.646,14.646,0,0,0-1.1-2.291c-.8-1.375,0-6.423,0-6.423s2.922-7.106,2.2-11.61,5.982-20.065,5.982-20.065a19.42,19.42,0,0,0-.64-4.426,3.808,3.808,0,0,1-.078-.934v-.112h0c.1-2.974,2.447-8.541,2.447-8.541l-.311-10.625a31.234,31.234,0,0,1,.951-14.7,68.708,68.708,0,0,0,1.729-7.089,3.308,3.308,0,0,1,.112-.6c-5.04-.769-8.887-1.409-8.887-1.409s2.922-12.224,4.893-14.368,3.553-8.861,3.553-8.861,1.029-8.645-.631-11.161-1.893-6.916-1.893-6.916-3.8-2.749-4.271-3.968a20.576,20.576,0,0,1-1.262-5.429c0-1.452.476-2.749.32-3.518s1.106-3.666.475-5.04a3.787,3.787,0,0,1-.259-1.331v.1a18.519,18.519,0,0,1,.337-3.588,10.114,10.114,0,0,1,3.743-2.006l.086-.328.216-.865a4.262,4.262,0,0,1,.372-.225V619.6l-.6-2.792c-1.158-4.85,5.308-5.576,5.308-5.576a3.406,3.406,0,0,1,1.841-1.608c1.305-.458.216,7.3-.4,7.781a29.184,29.184,0,0,0-2.594,3.994h0l-.112.2a2.933,2.933,0,0,1,.294.3l-.242,1.729v.26a7.125,7.125,0,0,1,1.029,1.729,3.768,3.768,0,0,0-.951,2.749,8.649,8.649,0,0,1-.389,3.363c.069-.078.908-.985,1.729-.761s3.155.916,3.155.916,1.729.3,1.582.692,1.184,2.057,1.184,2.057l4.668-4.418c.043-.138.1-.268.13-.406a10.1,10.1,0,0,0,.406-1.936,10.259,10.259,0,0,1-1.487-.475,3.1,3.1,0,0,1-1.3-.865,5.031,5.031,0,0,1-.752-2.006,28.033,28.033,0,0,0-1.729-3.865,12.572,12.572,0,0,1-.934-6.916,4.556,4.556,0,0,1,.718-2.032c.761-1.055,2.144-1.478,3.147-2.317s1.66-2.109,2.827-2.741a5.62,5.62,0,0,1,3.545-.3,18.9,18.9,0,0,1,6.614,2.4,3.345,3.345,0,0,0,2.213.726,2.975,2.975,0,0,0,1.6-1.167v-.069l.052-.06a8.273,8.273,0,0,1,.726,3.458v.562a1.543,1.543,0,0,0,0,.2.945.945,0,0,0,0,.156h0a.778.778,0,0,0,0,.242,1.729,1.729,0,0,0,.441.631,3.821,3.821,0,0,1,.38.519.566.566,0,0,0-.069-.19,2.707,2.707,0,0,1,.484,1.47,1.47,1.47,0,0,1-.346,1.055,5.759,5.759,0,0,1-.761.614,9.308,9.308,0,0,1,.138,1.556,9.051,9.051,0,0,1-4.4,7.7l-.156.4a11.073,11.073,0,0,0-.865,5.092.946.946,0,0,0,.052.372l.173.19h0s7.7.078,9.51-1.565,4.582,4.011,4.582,4.011,2.758.536,3.311,0,3.8-.078,3.8-.078a6.917,6.917,0,0,1,4.815-1.729,14.13,14.13,0,0,1,3.536-1.962h.086a3.882,3.882,0,0,1,1.729-.216s3.787-3.138,4.893-4.815,6.372-7.919,6.4-7.954v-.294l.06-.916a2.959,2.959,0,0,0,.476,0,1.092,1.092,0,0,1,.1-.311,17.494,17.494,0,0,1,1.115-2.594s0-1.15-.328-1.435.138-4.5.138-4.5,3.458-7.98,6.475-2.023c0,0,5.784,3.856.925,8.351,0,0-1.936.934-2.213,1.677-.173.484-.865,1.833-1.279,2.732l-.19.4h.052l-.069.752v.294c.916.519,1.539,1.029,1.383,1.426a8.97,8.97,0,0,0-.553,2.058s-6.709,8.412-7.573,12c0,0-18.008,10.7-23.93,11.464l1.029,5.351s.311,3.207.233,4.323.709,6.346.709,6.346,1.029,7.642,1.9,8.714.709,5.654.709,5.654a38.035,38.035,0,0,0,1.184,6.492,16.622,16.622,0,0,1,.233,6.5s3,6.873-4.184,2.213c0,0-3.527-.216-7.591-.354v2.092c.052,3.934.078,9.363-.1,13.469-.311,7.262-2.524,21.613-2.524,21.613v7.219a9.605,9.605,0,0,1,.207,2.066,13.407,13.407,0,0,1-1.945,7.227l-.553,4.815a18.866,18.866,0,0,0-1.323,5.066,2.451,2.451,0,0,0,.061.458,3.451,3.451,0,0,1,.06.735c.069,2.187-1.245,7.417-1.245,7.417s-.078,5.274-.865,5.585.865,3.034,1.375,3.83a.738.738,0,0,0,0-.147l.095.156a3.671,3.671,0,0,1,.242,1.34,1.911,1.911,0,0,1-.864,1.85c-1.5.916-2.308,1.677-1.037,1.988a11.78,11.78,0,0,1,1.392.294,1.529,1.529,0,0,0,.069-.182.865.865,0,0,1,.519.925,3.943,3.943,0,0,1-.467,1.79,18.875,18.875,0,0,1-2.144,3.9l-.605-.069a3.181,3.181,0,0,0,.354.648,2.5,2.5,0,0,0,.865.8,2.875,2.875,0,0,0,1.081.372,3.043,3.043,0,0,1,2.239,1.089c.787,1.011,1.279,2.4-.277,3.622l-5.645,1.945s-9.717,1.262-9.2-.916.865-4.089.865-4.089a8.585,8.585,0,0,1,.787-3.864c.1-.19.216-.38.346-.57h-.346s-.709-4.815-1.66-5.732c-.216-.216-.268-.372-.216-.5-.1-.259.147-.415.467-.5a1.245,1.245,0,0,1,.069.19,4.717,4.717,0,0,1,.942-.1s.32-2.524-.709-3.458a1,1,0,0,1-.2-.752,4.231,4.231,0,0,1,.1-1.02l.043.052a37.53,37.53,0,0,1,2.265-5.922s.078-2.291-.553-3.207.078-12.458.078-12.458-.233-5.585.476-8.178-.865-5.654-.865-5.654v-.173h0a5.3,5.3,0,0,1,.1-.865v.052c.156-1.478.458-4.15.683-5.386.311-1.729-.078-10.167-.078-10.167l-1.305-3.51-2.524,6.19-2.663,8.248a7.019,7.019,0,0,0-1.383,3.519v.813a4.946,4.946,0,0,1-.865,2.939s-.709,3.9-1.815,4.893a4.409,4.409,0,0,0-1.107,2.9s-1.34,5.654-1.98,6.648c-.527.865-.553,3.138-.553,3.847h0v.207s-.19,2.023-.182,3.717v.562a5.827,5.827,0,0,0,.164,1.375v-.208a14.593,14.593,0,0,1,.406,3.527c0,2.032-.277,4.435-1.5,5.853-2.135,2.447-3.458,2.135-3.458,2.135s1.029,3.06,2.291,3.674a.564.564,0,0,1,.13.086,1.325,1.325,0,0,0,0-.182,1.5,1.5,0,0,1,.372,1.141,8.2,8.2,0,0,1-1.565,4.53,2.506,2.506,0,0,1-1.072.622l.2.121a4.755,4.755,0,0,0,.441.208,2.464,2.464,0,0,0,.64.173,3.017,3.017,0,0,1,2.239,1.081c.787,1.02,1.279,2.4-.277,3.622l-5.645,1.954S557.2,792.854,557.707,790.684Z" transform="translate(783.313 23.203)" fill="url(#linear-gradient-4)"/>
    <path id="Path_54" data-name="Path 54" d="M599.221,822.483l5.464-1.945c1.513-1.219,1.029-2.594.268-3.622a2.9,2.9,0,0,0-2.161-1.089,2.669,2.669,0,0,1-1.046-.372,2.411,2.411,0,0,1-.865-.8,4.037,4.037,0,0,1-.631-2.11s-6-1.729-7.642,0a4.634,4.634,0,0,0-.726,1.063,8.931,8.931,0,0,0-.761,3.864s-.3,1.911-.8,4.089S599.221,822.483,599.221,822.483Z" transform="translate(778.895 -4.999)" fill="#3f3d56"/>
    <path id="Path_55" data-name="Path 55" d="M568.282,819.371l5.464-1.954c1.5-1.219,1.029-2.594.268-3.622a2.9,2.9,0,0,0-2.161-1.081,2.342,2.342,0,0,1-.631-.173,3.685,3.685,0,0,1-.415-.208,3.493,3.493,0,0,1-1.5-2.9s-6-1.729-7.642,0a4.689,4.689,0,0,0-.571.787,8.645,8.645,0,0,0-.916,4.15s-.311,1.911-.8,4.089S568.282,819.371,568.282,819.371Z" transform="translate(783.087 -4.576)" fill="#3f3d56"/>
    <path id="Path_56" data-name="Path 56" d="M560.076,788.057a15.729,15.729,0,0,1,1.072,2.291V796.4c1.53,2.516,9.51,1.677,10.547.3s2.213-4.971.994-5.576-2.222-3.674-2.222-3.674,1.306.311,3.363-2.135,1.453-7.876,1.072-9.173,0-5.654,0-5.654-.078-3.06.536-4.055,1.911-6.648,1.911-6.648a4.494,4.494,0,0,1,1.072-2.9c1.072-.994,1.729-4.893,1.729-4.893a5,5,0,0,0,.761-3.285,6.656,6.656,0,0,1,1.305-3.968l2.593-8.256,2.447-6.19,1.375,3.588s.389,8.412.078,10.167-.761,6.423-.761,6.423,1.53,3.052.865,5.654-.458,8.178-.458,8.178-.692,11.541-.078,12.457a7.436,7.436,0,0,1,.536,3.207s-3.13,6.726-2.135,7.642.683,3.458.683,3.458-2.135,0-1.219.916,1.6,5.732,1.6,5.732l9.242,1.072a19.446,19.446,0,0,0,2.075-3.9c1.219-2.827-.233-2.525-1.461-2.827s-.45-1.072,1-1.988.605-2.983.605-2.983-2.213-3.743-1.453-4.046.865-5.585.865-5.585,1.522-6.268,1.141-7.945,1.228-5.732,1.228-5.732l.536-4.815a13.244,13.244,0,0,0,1.668-9.121v-7.417s2.144-14.368,2.447-21.613c.2-4.651.138-11,.078-14.956,0-2.222-.078-3.692-.078-3.692L572.62,698.71a27.2,27.2,0,0,1-.6,4.9,71.152,71.152,0,0,1-1.729,7.1,32.217,32.217,0,0,0-.916,14.7l.3,10.625s-2.9,7.106-2.291,9.51a20.521,20.521,0,0,1,.605,4.435s-6.492,15.509-5.8,20.022-2.144,11.619-2.144,11.619S559.315,786.683,560.076,788.057Z" transform="translate(783.036 10.321)" fill="#65617d"/>
    <g id="Group_13" data-name="Group 13" transform="translate(1342.772 712.255)" opacity="0.05">
      <path id="Path_57" data-name="Path 57" d="M604.076,801.8a1.781,1.781,0,0,0,.821-1.305l.1.156s.865,2.066-.614,2.983l-.467.311c-.268-.052-.562-.086-.865-.156C601.846,803.524,602.624,802.712,604.076,801.8Z" transform="translate(-565.525 -715.724)"/>
      <path id="Path_58" data-name="Path 58" d="M590.86,801.045c-.242-.225-.233-.813-.086-1.565a4.159,4.159,0,0,1,.51,2.213,1.874,1.874,0,0,0-.424-.648Z" transform="translate(-563.928 -715.588)"/>
      <path id="Path_59" data-name="Path 59" d="M592.485,757.31a10.374,10.374,0,0,1,.605,2.81,10.737,10.737,0,0,0-.7-1.928S592.425,757.846,592.485,757.31Z" transform="translate(-564.161 -709.874)"/>
      <path id="Path_60" data-name="Path 60" d="M568.6,752.534a3.945,3.945,0,0,1-.078-.865c.112.571.19,1.107.251,1.565C568.719,753.027,568.667,752.82,568.6,752.534Z" transform="translate(-560.927 -709.11)"/>
      <path id="Path_61" data-name="Path 61" d="M592.712,788.469a4.812,4.812,0,0,1-.233-1.729,5.714,5.714,0,0,1,.45,2.144,1.814,1.814,0,0,0-.216-.415Z" transform="translate(-564.172 -713.861)"/>
      <path id="Path_62" data-name="Path 62" d="M604.472,777.739s-.078,5.273-.865,5.576h0c-.389-.864-.648-1.729-.3-1.833.761-.311.865-5.585.865-5.585s1.53-6.268,1.15-7.945,1.219-5.732,1.219-5.732l.536-4.815a13.244,13.244,0,0,0,1.677-9.095v-7.418s2.144-14.368,2.446-21.613c.2-4.651.147-11,.078-14.956V702.44h.268s0,1.47.069,3.692c.069,3.959.121,10.3-.069,14.956-.311,7.262-2.447,21.613-2.447,21.613v7.409a13.279,13.279,0,0,1-1.729,9.095l-.536,4.815s-1.6,4.055-1.219,5.732S604.472,777.739,604.472,777.739Z" transform="translate(-565.617 -702.44)"/>
      <path id="Path_63" data-name="Path 63" d="M559.766,799.69a14.645,14.645,0,0,1,1.072,2.291v1.072c-.173-.389-.424-.908-.761-1.53a4.572,4.572,0,0,1-.337-1.893Z" transform="translate(-559.737 -715.608)"/>
      <path id="Path_64" data-name="Path 64" d="M572.552,799.321a13.578,13.578,0,0,1-.752-1.815s1.3.311,3.363-2.135c1.5-1.781,1.582-5.144,1.366-7.34.389,1.305,1,6.726-1.063,9.173C574.117,798.8,573.1,799.243,572.552,799.321Z" transform="translate(-561.371 -714.036)"/>
      <path id="Path_65" data-name="Path 65" d="M577.2,774.9a40.11,40.11,0,0,0-.156,4.53,6.633,6.633,0,0,0-.156-.709c-.38-1.3,0-5.654,0-5.654s-.069-3.06.536-4.055,1.911-6.648,1.911-6.648a4.5,4.5,0,0,1,1.072-2.9c1.072-.994,1.729-4.885,1.729-4.885a5.066,5.066,0,0,0,.769-3.294,6.611,6.611,0,0,1,1.3-3.968l2.594-8.256,2.447-6.19,1.375,3.588v1.167l-1.037-2.913-2.447,6.19-2.594,8.256a6.71,6.71,0,0,0-1.3,3.977,5,5,0,0,1-.761,3.285s-.692,3.9-1.729,4.885a4.522,4.522,0,0,0-1.063,2.9s-1.305,5.662-1.911,6.657S577.2,774.9,577.2,774.9Z" transform="translate(-562.038 -706.563)"/>
    </g>
    <path id="Path_66" data-name="Path 66" d="M569.839,617.714l.571,2.792v2.161l3.19.328.354-.666h0a29.242,29.242,0,0,1,2.481-4c.588-.493,1.634-8.256.372-7.781a3.354,3.354,0,0,0-1.772,1.608S568.706,612.864,569.839,617.714Z" transform="translate(781.685 22.269)" fill="#ffcdd3"/>
    <path id="Path_67" data-name="Path 67" d="M570.45,624.367l3.19.328.354-.666h0a2.8,2.8,0,0,0-3.519-.579Z" transform="translate(781.584 20.569)" opacity="0.1"/>
    <path id="Path_68" data-name="Path 68" d="M569.52,625.914l4.2.977.1-.622.233-1.729a2.888,2.888,0,0,0-4.072-.553l-.207.865Z" transform="translate(781.71 20.526)" fill="#dce6f2"/>
    <path id="Path_69" data-name="Path 69" d="M648.32,617.089l4.487,2.4s.164-.355.406-.865c.424-.864,1.063-2.239,1.236-2.723.268-.744,2.135-1.729,2.135-1.729,4.7-4.487-.864-8.343-.864-8.343-2.957-5.965-6.259,2.023-6.259,2.023s-.467,4.2-.138,4.487.32,1.435.32,1.435a18.154,18.154,0,0,0-1.081,2.594A7.343,7.343,0,0,0,648.32,617.089Z" transform="translate(771.034 23.204)" fill="#ffcdd3"/>
    <path id="Path_70" data-name="Path 70" d="M648.32,619.086l4.487,2.4s.164-.354.406-.864c-.64-.527-2.879-2.352-3.622-2.265a5.816,5.816,0,0,1-1.063,0C648.389,618.818,648.32,619.086,648.32,619.086Z" transform="translate(771.034 21.208)" opacity="0.1"/>
    <path id="Path_71" data-name="Path 71" d="M647.78,620.493l5.049,2.481.1-1.081.069-.752s-2.922-2.507-3.787-2.412a4.632,4.632,0,0,1-1.314,0l-.06.865Z" transform="translate(771.107 21.157)" fill="#dce6f2"/>
    <path id="Path_72" data-name="Path 72" d="M584,637.606s21.993,2.481,17.887,1.15c-2.862-.934-4-2.749-4.236-4.772a11.418,11.418,0,0,1,.813-5.092,22.059,22.059,0,0,1,1.971-3.968s-16.815-9.25-13.452-.865a13.366,13.366,0,0,1,.951,3.977,11.055,11.055,0,0,1-.432,4.037A12,12,0,0,1,584,637.606Z" transform="translate(779.748 20.911)" fill="#ffcdd3"/>
    <path id="Path_73" data-name="Path 73" d="M587.38,624.086a13.362,13.362,0,0,1,.951,3.977c1.582,1.331,3.32,1.245,5.55,1.245,1.729,0,3.614.415,4.98-.415a22.065,22.065,0,0,1,1.971-3.968S584.017,615.675,587.38,624.086Z" transform="translate(779.351 20.91)" opacity="0.1"/>
    <circle id="Ellipse_31" data-name="Ellipse 31" cx="9.095" cy="9.095" r="9.095" transform="translate(1364.44 632.608)" fill="#ffcdd3"/>
    <path id="Path_74" data-name="Path 74" d="M584,639.268s21.993,2.481,17.887,1.15c-2.862-.934-4-2.749-4.236-4.772a12.191,12.191,0,0,0-4.712-2.5,6.6,6.6,0,0,0-3.985-.06,5.639,5.639,0,0,0-1.452.674,12,12,0,0,1-3.5,5.507Z" transform="translate(779.748 19.25)" opacity="0.1"/>
    <path id="Path_75" data-name="Path 75" d="M569.52,626.125l4.2.977.1-.622a3.708,3.708,0,0,0-4.046-1.383Z" transform="translate(781.71 20.315)" opacity="0.1"/>
    <path id="Path_76" data-name="Path 76" d="M647.78,620.636l5.049,2.481.1-1.081a37.718,37.718,0,0,0-5.092-2.256Z" transform="translate(771.107 21.015)" opacity="0.1"/>
    <path id="Path_77" data-name="Path 77" d="M573.94,703.619c8.515,1.349,20.636,3.1,22.564,2.507,1.591-.484,6.691-.432,11.126-.277,0-2.222-.078-3.691-.078-3.691L574.536,698.7A27.207,27.207,0,0,1,573.94,703.619Z" transform="translate(781.111 10.322)" opacity="0.1"/>
    <path id="Path_78" data-name="Path 78" d="M564.11,690.981s28.045,4.815,31.062,3.9,18.457.069,18.457.069c6.959,4.668,4.054-2.213,4.054-2.213a16.949,16.949,0,0,0-.233-6.493,39.684,39.684,0,0,1-1.141-6.5s.156-4.582-.692-5.654-1.833-8.714-1.833-8.714-.761-5.187-.683-6.345a42.814,42.814,0,0,0-.233-4.323l-.994-5.351c5.732-.77,23.16-11.464,23.16-11.464.865-3.6,7.331-12,7.331-12a8.8,8.8,0,0,1,.536-2.066c.458-1.219-6.415-3.665-6.415-3.665s-5.127,6.268-6.19,7.945a34.769,34.769,0,0,1-4.738,4.815,3.786,3.786,0,0,0-1.729.216h-.086a13.663,13.663,0,0,0-3.458,1.962,6.657,6.657,0,0,0-4.66,1.729s-3.129-.458-3.665.078-3.207,0-3.207,0-2.68-5.662-4.435-4.02-9.181,1.617-9.181,1.617c-.994-1.323-3.415-2.274-4.928-2.758a6.607,6.607,0,0,0-3.985-.069,5.085,5.085,0,0,0-1.573.761l-4.53,4.435s-1.3-1.729-1.141-2.066-1.53-.692-1.53-.692-2.213-.683-3.06-.916-1.608.683-1.677.761a8.874,8.874,0,0,0,.38-3.354,3.847,3.847,0,0,1,.916-2.749c-2.671-6.579-8.714-1.072-8.714-1.072s-.683,3.588-.078,4.962-.605,4.323-.458,5.049-.3,2.066-.3,3.519a20.473,20.473,0,0,0,1.228,5.421c.458,1.227,4.124,3.977,4.124,3.977s.225,4.323,1.833,6.916.614,11.152.614,11.152-1.53,6.726-3.458,8.87S564.11,690.981,564.11,690.981Z" transform="translate(782.443 20.963)" fill="#3f3d56"/>
    <path id="Path_79" data-name="Path 79" d="M595.889,627.148a1.928,1.928,0,0,1-.709,1.227,1.825,1.825,0,0,1-.865.19c-2.775.173-5.663.294-8.23-.769a3.216,3.216,0,0,1-1.245-.864,5.028,5.028,0,0,1-.726-2.014,29.835,29.835,0,0,0-1.677-3.864,12.968,12.968,0,0,1-.908-6.916,4.79,4.79,0,0,1,.7-2.032c.735-1.046,2.075-1.47,3.043-2.308s1.6-2.118,2.74-2.741a5.188,5.188,0,0,1,3.458-.3,17.931,17.931,0,0,1,6.406,2.4,3.26,3.26,0,0,0,2.144.726,2.992,2.992,0,0,0,1.573-1.21,8.441,8.441,0,0,1,.674,3.968,1.165,1.165,0,0,0,.424,1.228c.683.8,1.107,2.049.432,2.853-.294.346-.744.536-1.029.864-.519.64-.346,1.565-.328,2.378a1.228,1.228,0,0,1-.208.8,1.141,1.141,0,0,1-1.115.268,3.166,3.166,0,0,0-1.2-.112,2.014,2.014,0,0,0-1.037.8,14.151,14.151,0,0,0-2.317,5.42Z" transform="translate(780.101 22.802)" fill="#2d293d"/>
    <path id="Path_80" data-name="Path 80" d="M598.058,636.717s-11.368,1.5-12.388-.207" transform="translate(779.522 18.748)" opacity="0.1"/>
    <path id="Path_81" data-name="Path 81" d="M401.514,740.69h-8.645a.865.865,0,0,0,0,1.729H394.6v11.55h-29.61a.864.864,0,0,0-.648-.311H355.7a.865.865,0,1,0,0,1.729h1.729v11.861H328.843a.865.865,0,0,0-.813-.622h-8.645a.865.865,0,0,0,0,1.729h.865v12.181H291.211a.865.865,0,0,0-.355-.078h-8.645a.865.865,0,1,0,0,1.729h.865v11.628H254.4a.865.865,0,0,0-.7-.389h-8.645a.865.865,0,0,0,0,1.729h.865v12.968H441.3V740.69Z" transform="translate(800.788 4.633)" fill="#3f3d56"/>
    <path id="Path_82" data-name="Path 82" d="M188.625,775.36a6.916,6.916,0,0,0,2.948,3.216,25.376,25.376,0,0,1,3.683,2.516c1.331,1.262,2.2,3.008,3.761,3.977a7.621,7.621,0,0,0,1.9.787,11.988,11.988,0,0,0,2.343.475,16.56,16.56,0,0,0,6.052-1.037,5.614,5.614,0,0,0,1.815-.8,5.067,5.067,0,0,0,.692-.666,3.891,3.891,0,0,0,.951-1.5,1.227,1.227,0,0,0-.086-.908,2.092,2.092,0,0,0-.769-.735,13.064,13.064,0,0,0-1.729-.959,8.877,8.877,0,0,1-2.265-1.2,5.272,5.272,0,0,1-1.1-1.478,14.316,14.316,0,0,1-1.245-2.982,9.706,9.706,0,0,0-.692-2.032c-.372-.683-.968-1.271-1.366-1.937a1.6,1.6,0,0,0,.631-.086,5.9,5.9,0,0,0-.692-3.06c.865.069,1.271-1.063,1.133-1.9s-.545-1.729-.182-2.49a4.618,4.618,0,0,1,.977-1.124c1.375-1.452,1.331-3.666,1.9-5.567a16.144,16.144,0,0,1,1.426-3.095c1.651-2.983,2.412-6.717,5.075-8.87l2.395-1.936a1.02,1.02,0,0,0,.372-.441c.138-.372-.156-.761-.138-1.158.043-.7.994-.986,1.314-1.617a4,4,0,0,0,.233-.96c.251-1.1,1.323-1.781,2.092-2.594a5.887,5.887,0,0,0,1.53-4.7,3.986,3.986,0,0,1-.069-1.28,6.165,6.165,0,0,1,.337-.864,7.781,7.781,0,0,0,.285-2.8,25.072,25.072,0,0,1,.545-4.452l11.809-2.68c.078.086.147.173.233.259,1.046,1.063,1.565,2.594,2.594,3.7l1.349,1.487c.259.285.527.666.372,1.011s-.354.355-.519.545a.925.925,0,0,0,.8,1.461,1.781,1.781,0,0,0,.925,2.671,7.157,7.157,0,0,1-.986,1.5,1.245,1.245,0,0,1,.259.761,3.612,3.612,0,0,1-.173.484,2.049,2.049,0,0,0,.1,1.089,16.366,16.366,0,0,1,0,8.472,4.895,4.895,0,0,0-.225,1.167,3.461,3.461,0,0,0,.147.977c.4,1.426,1.193,2.922.64,4.323a8.893,8.893,0,0,0-.467,1.011c-.311,1.037.406,2.057.8,3.069a10.375,10.375,0,0,1,.38,4.323c-.1,2.006-.2,4-.294,6a2.387,2.387,0,0,0,.112,1.081,1.842,1.842,0,0,0,1.21.934c-.121.406-.242.813-.38,1.21a.718.718,0,0,0-1.21-.052,1.28,1.28,0,0,0-.156.57,14.359,14.359,0,0,0,.7,4.245,1.97,1.97,0,0,1,.061.674,4.244,4.244,0,0,1-.233.683,1.015,1.015,0,0,0-.052.173,4.211,4.211,0,0,0,.19,2.058,1.817,1.817,0,0,0,.6,1.1,1.728,1.728,0,0,0,.778.242c4.132.476,8.161-2.213,12.293-1.729.865.1,1.677.32,2.524.406a13.256,13.256,0,0,0,2.983-.147c1.383-.182,2.758-.415,4.115-.683a10.226,10.226,0,0,0,3-.96,3.734,3.734,0,0,0,1.928-2.36,1.772,1.772,0,0,0-.173-1.331,1.54,1.54,0,0,0-.346-.363,3.72,3.72,0,0,0-1.072-.51l-1.6-.579a9.628,9.628,0,0,0-2.386-.622c-.6-.052-1.21,0-1.807,0-2.109-.112-3.968-1.323-5.706-2.481l-2.369-1.573a1.53,1.53,0,0,0-1.617-.268l-.328.121,1.461-.813q.1-10.685-.052-21.362a22.381,22.381,0,0,0-.5-5.265c-.259-.986-.536-2.274.329-2.827.225-.77-.233-1.539-.441-2.3s.086-1.859.865-1.867a9.813,9.813,0,0,1-.8-4.7,34.177,34.177,0,0,0-.259-3.951,11.179,11.179,0,0,0-1.366-4.651l11.654-2.645-.38-1.686,1.729-.389-9.389-41.332a1.1,1.1,0,0,0,.717-.986c-.043-.406-.441-.778-.311-1.167.078-.233.311-.363.458-.562a1.34,1.34,0,0,0-.147-1.539.683.683,0,0,1-.164-.38.752.752,0,0,1,.087-.268,2.023,2.023,0,0,0-.579-2.4.79.79,0,0,0-.337-.173,2.452,2.452,0,0,1-.8,0c-.277-.086-.285-.242-.6-.268h-.1L249,645.389a15.559,15.559,0,0,0,.622-2.317,7.366,7.366,0,0,0-.372-4.193,8.57,8.57,0,0,0,2.058-1.547,1.159,1.159,0,0,0,.277-1.47,10.469,10.469,0,0,0-3.458-4.729c-.493-.372-1.66-1.357-2.377-1.141q.268-.389.571-.752a7.613,7.613,0,0,0,1.133-1.418,9.873,9.873,0,0,0,5.887-11.239,3.005,3.005,0,0,0-.112-.4,1.6,1.6,0,0,0,1.331-.484,1.729,1.729,0,0,0,.156-1.729,13.748,13.748,0,0,0-.865-1.556c-.648-1.176-.493-2.7-1.158-3.8a12.671,12.671,0,0,0-2.36-2.594,7.564,7.564,0,0,0-6.294-1.435,13.676,13.676,0,0,0-5.922,2.974,7.776,7.776,0,0,1-1.66,1.15c-.986.45-2.2.432-3.017,1.133-1.089.925-.951,2.594-.536,3.977s1.029,2.792.553,4.141a8.658,8.658,0,0,0-.475,1.219,3.527,3.527,0,0,0,.579,2.239,2.767,2.767,0,0,0,.277-.493.112.112,0,0,1,0,.052c.061.225.13.45.19.674a.675.675,0,0,0-.285.06c-.406.182-.588.657-.925.951s-1.176.484-1.34,1.029c-.078.259,0,.545-.1.8-.208.493-.934.493-1.314.864a1.107,1.107,0,0,0-.216,1.124,2.344,2.344,0,0,0,.294.588,1.245,1.245,0,0,0,.078.752l-4.824,1.167a10.615,10.615,0,0,0-2.239.735,3.458,3.458,0,0,0-1.651,1.617.292.292,0,0,1-.182.233.387.387,0,0,1-.242,0,4.322,4.322,0,0,0-2.5.121,13.512,13.512,0,0,0-6.389,4.668,2.352,2.352,0,0,0-.614,1.21c-.043.519.242,1.1,0,1.548l-.251.1a12.3,12.3,0,0,0-2.049.865c-.7.415-1.314.96-1.971,1.444-2.689,1.971-6.242,2.948-8.144,5.671-.622.865-1.072,1.98-2.023,2.533a13.09,13.09,0,0,0-1.3.666c-.8.614-.865,1.677-1.046,2.689l-16.988,3.864.38,1.677-1.729.389,15.7,69.083,14.489-3.285a4.155,4.155,0,0,0,.138.977,8.393,8.393,0,0,0,.994,2.87,1.651,1.651,0,0,0-1.141,1.53c-.078.666.043,1.357-.1,2.014-.259,1.176-1.279,2.014-2.127,2.888-3.856,3.96-4.668,9.8-6.639,14.922a59.26,59.26,0,0,0-2.732,7.15c-.692,2.81-.735,6.051-2.948,8a1.548,1.548,0,0,0-.5.588.943.943,0,0,0,0,.536,2.594,2.594,0,0,0,.821,1.314l-.1.2a.787.787,0,0,0-.259,0c-.45,0-.7.571-.865.917a9.88,9.88,0,0,0-1.141,3.9,1.115,1.115,0,0,0-.38,0,1.616,1.616,0,0,0-1.167.96A2.593,2.593,0,0,0,188.625,775.36Zm56.306-143.406h-.173a7.443,7.443,0,0,1,.51-1.176A7.233,7.233,0,0,0,244.931,631.954ZM198.679,770.043a1.426,1.426,0,0,1-.493.752h-.043a2.22,2.22,0,0,1,.086-.277l.19-.545Z" transform="translate(809.963 23.096)" fill="url(#linear-gradient-5)"/>
    <path id="Path_83" data-name="Path 83" d="M259.232,791.138a18.924,18.924,0,0,1-8.126,1.565c-.424,0-.942-.207-.986-.631a.977.977,0,0,1,.1-.432,25.765,25.765,0,0,0,1.392-5.187.407.407,0,0,1,.1-.242.389.389,0,0,1,.259-.06c1.262,0,2.464.571,3.726.631a4.943,4.943,0,0,0,1.876-.277c.527-.182,1.159-.8,1.651-.864C259.327,787.447,259.033,789.262,259.232,791.138Z" transform="translate(799.984 -1.457)" fill="#3f3d56"/>
    <path id="Path_84" data-name="Path 84" d="M199.621,798.747c-2.049-.813-4.176-1.677-5.654-3.32a.682.682,0,0,1-.207-.346.8.8,0,0,1,.061-.4,15.561,15.561,0,0,1,2.861-4.954,11.234,11.234,0,0,1,2.594,1.47c.553.372,1.962.864,2.127,1.556.1.415-.268.986-.415,1.357-.19.51-.372,1.02-.536,1.539A19.242,19.242,0,0,0,199.621,798.747Z" transform="translate(807.621 -2.011)" fill="#3f3d56"/>
    <path id="Path_85" data-name="Path 85" d="M249.773,799.122a1.85,1.85,0,0,0,.588,1.1,1.555,1.555,0,0,0,.778.242c4.072.493,8.031-2.179,12.1-1.729.865.1,1.66.328,2.49.406A12.968,12.968,0,0,0,268.68,799c1.357-.173,2.715-.4,4.055-.666a9.885,9.885,0,0,0,2.948-.942,3.768,3.768,0,0,0,1.9-2.36,1.868,1.868,0,0,0-.182-1.331,1.538,1.538,0,0,0-.346-.363A3.748,3.748,0,0,0,276,792.82l-1.582-.579a9.519,9.519,0,0,0-2.351-.631,17.508,17.508,0,0,0-1.781,0c-2.083-.13-3.916-1.34-5.637-2.507l-2.334-1.582a1.963,1.963,0,0,0-.778-.372,1.894,1.894,0,0,0-.821.1,11.057,11.057,0,0,0-4.746,2.9,7.247,7.247,0,0,1-1.1,1.029,4.625,4.625,0,0,1-3.648.363c-.545-.147-.467-.32-.778-.735s-.865-.6-1.2-.078a1.175,1.175,0,0,0-.156.571,14.647,14.647,0,0,0,.7,4.245,2,2,0,0,1,.069.674,4.253,4.253,0,0,1-.233.683,1.265,1.265,0,0,0-.043.173,4.21,4.21,0,0,0,.19,2.049Z" transform="translate(800.124 -1.66)" fill="#65617d"/>
    <path id="Path_86" data-name="Path 86" d="M249.842,800.094a1.85,1.85,0,0,0,.588,1.1,1.554,1.554,0,0,0,.778.242c4.072.493,8.031-2.179,12.1-1.729.865.1,1.66.328,2.49.406a12.953,12.953,0,0,0,2.948-.138c1.357-.173,2.715-.4,4.055-.666a9.887,9.887,0,0,0,2.948-.942,3.769,3.769,0,0,0,1.9-2.36,1.868,1.868,0,0,0-.182-1.331,1.537,1.537,0,0,0-.346-.363c-.121.51-.138,1.158-.225,1.409a2.706,2.706,0,0,1-1.478,1.669,4.39,4.39,0,0,1-1.651.156c-3.605-.069-7.236.743-10.8.208a25.349,25.349,0,0,0-3.683-.527,26.193,26.193,0,0,0-3.717.536c-1.954.277-3.951.121-5.922.251a4.21,4.21,0,0,0,.19,2.083Z" transform="translate(800.055 -2.632)" fill="#3f3d56"/>
    <path id="Path_87" data-name="Path 87" d="M190.483,800.94a7.028,7.028,0,0,0,2.922,3.225,24.406,24.406,0,0,1,3.64,2.533c1.314,1.262,2.17,3.017,3.726,3.985a7.517,7.517,0,0,0,1.876.8,12.3,12.3,0,0,0,2.308.484,16.026,16.026,0,0,0,5.982-1.02,5.421,5.421,0,0,0,1.8-.8,4.847,4.847,0,0,0,.64-.683,3.829,3.829,0,0,0,.925-1.5,1.271,1.271,0,0,0-.078-.864,2.136,2.136,0,0,0-.761-.735,13.407,13.407,0,0,0-1.729-.96,8.766,8.766,0,0,1-2.239-1.219A5.282,5.282,0,0,1,208.4,802.7a14.324,14.324,0,0,1-1.228-2.991,9.885,9.885,0,0,0-.692-2.032c-.545-.994-1.556-1.781-1.729-2.9a.787.787,0,0,0-.147-.467.666.666,0,0,0-.424-.147,7.087,7.087,0,0,0-2.049,0,2.308,2.308,0,0,0-1.643,1.115c-.2.4-.277.864-.648,1.141a1.471,1.471,0,0,1-.614.164,5.1,5.1,0,0,1-3.017-.233,3.631,3.631,0,0,1-1.772-2.317c-.069-.372,0-.8-.579-.743s-.683.571-.865.916a9.8,9.8,0,0,0-1.115,3.9,1.126,1.126,0,0,0-.38,0,1.591,1.591,0,0,0-1.141.959,2.654,2.654,0,0,0,.121,1.876Z" transform="translate(808.096 -2.493)" fill="#65617d"/>
    <path id="Path_88" data-name="Path 88" d="M190.486,801.69a7.027,7.027,0,0,0,2.922,3.225,24.405,24.405,0,0,1,3.64,2.533c1.314,1.262,2.17,3.017,3.726,3.985a7.507,7.507,0,0,0,1.876.8,12.3,12.3,0,0,0,2.308.484,16.029,16.029,0,0,0,5.982-1.02,5.418,5.418,0,0,0,1.8-.8,4.85,4.85,0,0,0,.64-.683,3.83,3.83,0,0,0,.925-1.5,2.951,2.951,0,0,0-1.288,0c-.865.242-1.314,1.219-2.1,1.66-1.115.64-2.5.061-3.778.052-.865,0-1.668.234-2.5.156a6.3,6.3,0,0,1-2.032-.666,9.658,9.658,0,0,1-2.326-1.409,12.332,12.332,0,0,1-1.617-1.98,33.163,33.163,0,0,0-3.242-3.8,3.274,3.274,0,0,0-.6-.5,7.58,7.58,0,0,0-.726-.3,4.9,4.9,0,0,1-2.023-2.291,4.323,4.323,0,0,0-.527-.8,1.591,1.591,0,0,0-1.141.96,2.654,2.654,0,0,0,.078,1.911Z" transform="translate(808.094 -3.243)" fill="#3f3d56"/>
    <path id="Path_89" data-name="Path 89" d="M252.942,631.939a8.938,8.938,0,0,0-1.781,3.389c-.311,1.245-1.625,10.642-1.15,11.835-1.314-.865-5.585-.052-6.916-.865-.553-.346-3.458-2.049-3.977-2.49s-3.458-.942-3.873-1.409c-1.565-1.729,5.7-11.3,4.106-12.968a.372.372,0,0,1-.069-.562,14.177,14.177,0,0,1,2.2-2.36,4.323,4.323,0,0,0,1.444-2.81,8.645,8.645,0,0,1,2.645,1.037q2.948,1.539,5.836,3.216c.752.432,2.127.925,2.594,1.677S253.435,631.342,252.942,631.939Z" transform="translate(802.03 20.484)" fill="#a1616a"/>
    <path id="Path_90" data-name="Path 90" d="M235.03,633.38a26.617,26.617,0,0,1,4.556,2.265,7.926,7.926,0,0,1,3.337,3.363c.251.579.38,1.2.605,1.79,1,2.593,3.752,3.994,5.334,6.25a12.862,12.862,0,0,1,1.193,2.23,29.4,29.4,0,0,1,1.522,4.556c.372,1.513-.865,2.9-1.107,4.435a25.585,25.585,0,0,0,0,4.53,53.6,53.6,0,0,1-.605,8.559c-.743,5.982-3.761,22.754-4.5,28.745-6.492-.147-23.627,0-29.8-1.98-2.066-.666,9.51-16.132,7.426-16.529a.744.744,0,0,1-.778-.865c0-8.922,4.487-17.29,5.36-26.134.311-3.078,1.47-5.913,2.153-8.93.614-2.732.622-5.6,1.5-8.265a4.911,4.911,0,0,1,.735-1.513,5.925,5.925,0,0,1,.977-.942C233.647,634.348,234.338,633.916,235.03,633.38Z" transform="translate(804.7 19.172)" fill="#d7d9e1"/>
    <circle id="Ellipse_32" data-name="Ellipse 32" cx="9.847" cy="9.847" r="9.847" transform="translate(1042.401 632.106)" fill="#a1616a"/>
    <path id="Path_91" data-name="Path 91" d="M238.308,628.841a3.32,3.32,0,0,0-3.735.294,1.807,1.807,0,0,0-.674,1.98l-4.746,1.159a9.744,9.744,0,0,0-2.213.717,3.4,3.4,0,0,0-1.617,1.608c-.043.1-.086.2-.182.234s-.156,0-.233,0a4.245,4.245,0,0,0-2.473.112,13.148,13.148,0,0,0-6.276,4.642,2.308,2.308,0,0,0-.605,1.2c0,.579.32,1.228,0,1.729,1.02,4.47.432,8.991.4,13.582a5.922,5.922,0,0,1-.968,2.395,8.575,8.575,0,0,0-1.02,2.654c-.354,2.455,1.444,4.833,1.115,7.3a11.965,11.965,0,0,1-1.055,2.957,6.761,6.761,0,0,0-.631,3.64c.086.553.285,1.089.389,1.643a10.262,10.262,0,0,1,.1,2.248c0,1.392-.112,2.784-.2,4.176-.13,2.248-.424,4.712-2.058,6.268,4.746-.259,9.734-.6,13.729-3.181a7.263,7.263,0,0,0,1.522-1.245c1.323-1.478,1.643-3.571,1.9-5.533a23.153,23.153,0,0,0,.259-6.64,7.262,7.262,0,0,1-.173-2.109,5.862,5.862,0,0,1,2.118-3.155,13.466,13.466,0,0,0,2.671-3.268,5.187,5.187,0,0,0,.45-4.089c-.233-.657-.64-1.236-.865-1.911a1.634,1.634,0,0,1,.545-1.85c3.1-1.729,3.8-6.052,3.761-9.631a27.326,27.326,0,0,0-.778-5.412l-.735-3.458a4.711,4.711,0,0,0,.743-3.622,4.071,4.071,0,0,1-.225-1.1,2.991,2.991,0,0,1,.5-1.331,10.755,10.755,0,0,0,1.262-3Z" transform="translate(805.2 19.847)" fill="#3f3d56"/>
    <path id="Path_92" data-name="Path 92" d="M256.215,638.568a26.338,26.338,0,0,0,.865,3.2c.182.389.432.735.64,1.107a7.149,7.149,0,0,1,.588,4.625,25.329,25.329,0,0,1-1.4,4.521,6.209,6.209,0,0,0-.424,1.556,7.469,7.469,0,0,0,.069,1.643,48.6,48.6,0,0,1,.32,6.631,12.837,12.837,0,0,1-1.081,5.619,1.555,1.555,0,0,1-.787.865,1.729,1.729,0,0,1-.821,0l-2.663-.381a1.6,1.6,0,0,1-.64-.173,1.522,1.522,0,0,1-.562-.865,14.446,14.446,0,0,1-.242-6.052c.7-6.112,2.109-12.164,2.083-18.31,0-1.729-.389-4.253.51-5.818.363-.648.251-.38.865-.233a7.446,7.446,0,0,1,.96.251A2.9,2.9,0,0,1,256.215,638.568Z" transform="translate(800.019 18.774)" fill="#3f3d56"/>
    <path id="Path_93" data-name="Path 93" d="M212.23,692" transform="translate(805.118 11.23)" fill="#464353"/>
    <path id="Path_94" data-name="Path 94" d="M249.927,650.788q.19,5.412.354,10.815l-10.106-.337a6.916,6.916,0,0,1,.182-3.043c.38-2.377-.156-4.807,0-7.21.147-1.833.718-3.605.865-5.438.061-1.063,0-2.135,0-3.207a22.929,22.929,0,0,1,.458-3.155,19.023,19.023,0,0,1,1.2-4.323,6.2,6.2,0,0,1,3.691,1.357,4.564,4.564,0,0,1,1.055,1.911c.657,2.109.372,4.435,1.107,6.5A19.225,19.225,0,0,1,249.927,650.788Z" transform="translate(801.344 18.968)" fill="#1492e6"/>
    <path id="Path_95" data-name="Path 95" d="M242.4,707.326c-.069,2.161,1.193,4.106,2.282,5.974a49.118,49.118,0,0,1,4.055,8.861,8,8,0,0,0,1.011,2.248,21.835,21.835,0,0,0,1.591,1.634,9.716,9.716,0,0,1,2.023,5.542,39.54,39.54,0,0,1,.268,3.951c.043,1.608,0,3.311.813,4.712-.8,0-1.089,1.089-.865,1.859a4.338,4.338,0,0,1,.45,2.308c-.865.545-.571,1.833-.32,2.827a22.814,22.814,0,0,1,.519,5.265q.19,10.677.121,21.353c-3.2,1.841-6.916,3.864-10.564,3.138a2.179,2.179,0,0,1-1.66-1.063,2.36,2.36,0,0,1-.112-1.072l.268-6a10.6,10.6,0,0,0-.389-4.323c-.389-1.012-1.1-2.032-.8-3.069.1-.354.32-.666.458-1.012.545-1.375-.251-2.87-.64-4.323a3.259,3.259,0,0,1-.156-.985,5.342,5.342,0,0,1,.216-1.167,16.555,16.555,0,0,0-.043-8.472,2.024,2.024,0,0,1-.1-1.081,2.748,2.748,0,0,0,.164-.493,1.21,1.21,0,0,0-.259-.761,7.182,7.182,0,0,0,.977-1.5,1.8,1.8,0,0,1-.925-2.671.942.942,0,0,1-.8-1.47c.173-.19.415-.311.519-.545s-.121-.726-.372-1l-1.331-1.47c-.994-1.115-1.513-2.645-2.55-3.717a30.844,30.844,0,0,1-3.8-5.135l-4.409-6.916-1.478,2.014a5.879,5.879,0,0,0-1.124,2.066,7.6,7.6,0,0,0,0,2.17c.259,4.245-1.513,8.386-1.556,12.631a7.779,7.779,0,0,1-.268,2.81,5.189,5.189,0,0,0-.329.865,4.013,4.013,0,0,0,.069,1.279,5.879,5.879,0,0,1-1.487,4.694c-.761.864-1.815,1.513-2.058,2.594a4.432,4.432,0,0,1-.225.96c-.32.631-1.245.908-1.288,1.608,0,.4.277.8.138,1.167a1.055,1.055,0,0,1-.372.432l-2.343,1.928c-2.594,2.153-3.363,5.879-4.98,8.861a15.631,15.631,0,0,0-1.392,3.078c-.562,1.9-.51,4.115-1.859,5.567a4.5,4.5,0,0,0-.96,1.115c-.354.769.043,1.651.182,2.49s-.259,1.971-1.107,1.9a5.9,5.9,0,0,1,.692,3.06,15.847,15.847,0,0,1-10.227-1.66,3.813,3.813,0,0,1-2.109-2.213.942.942,0,0,1,0-.536,1.53,1.53,0,0,1,.493-.588c2.17-1.9,2.213-5.187,2.879-7.979a54.26,54.26,0,0,1,2.663-7.141c1.937-5.118,2.715-10.953,6.5-14.9a6.455,6.455,0,0,0,2.083-2.879c.138-.666,0-1.349.1-2.023a1.626,1.626,0,0,1,1.115-1.522,8.575,8.575,0,0,1-.994-2.87,3.986,3.986,0,0,1-.138-1.314,6.684,6.684,0,0,1,.363-1.4,12.371,12.371,0,0,0,.2-6.916,10.91,10.91,0,0,1-.683-3.527c.052-.614.242-1.193.337-1.8a10.314,10.314,0,0,0-.19-3.173l-.64-3.959a19.244,19.244,0,0,1-.372-3.977c.13-3.216-1.962-16.089.51-18.155s9.449,6.622,12.631,6.1a14.336,14.336,0,0,1,4.253-.138,20.1,20.1,0,0,1,6.363,2.4l6.864,3.536A21.851,21.851,0,0,0,242.4,707.326Z" transform="translate(807.596 11.067)" fill="#65617d"/>
    <path id="Path_96" data-name="Path 96" d="M257.493,606.155a7.435,7.435,0,0,0-6.207-1.461,13.4,13.4,0,0,0-5.827,2.956,7.856,7.856,0,0,1-1.634,1.15c-.977.441-2.161.424-2.974,1.115-1.072.925-.934,2.594-.51,3.977s1.011,2.8.553,4.141a11.037,11.037,0,0,0-.467,1.219,3.6,3.6,0,0,0,.579,2.248,16.2,16.2,0,0,0,.865-1.729,1.507,1.507,0,0,1,1.582-.865c.605.19.743.865.865,1.453s.467,1.228,1.055,1.288a1.193,1.193,0,0,0,1.1-.752c.674-1.34-.112-3.078.545-4.426.38-.778,1.176-1.288,1.513-2.083.259-.622.2-1.331.4-1.98s.865-1.254,1.5-.968a2.293,2.293,0,0,1,.562.484,2.594,2.594,0,0,0,3.173.216,4.98,4.98,0,0,1,1.158-.865,1.608,1.608,0,0,1,1.643.467,3.215,3.215,0,0,1,.769,1.608,3.96,3.96,0,0,0,.865,2.256,2.594,2.594,0,0,0,.865.45,2.075,2.075,0,0,0,2.3-.285,1.729,1.729,0,0,0,.147-1.729,12.981,12.981,0,0,0-.864-1.556c-.648-1.184-.5-2.706-1.158-3.8A12.839,12.839,0,0,0,257.493,606.155Z" transform="translate(801.352 23.081)" fill="#3f3d56"/>
    <path id="Path_97" data-name="Path 97" d="M258.429,638.673a1.478,1.478,0,0,1,.1.865,1.391,1.391,0,0,1-.372.57,10.156,10.156,0,0,1-4.193,2.5,1.365,1.365,0,0,0-.588.3,1.141,1.141,0,0,0,0,1.323,3.276,3.276,0,0,1,.588,1.271c.078.865-.865,1.487-1.669,1.79a4.7,4.7,0,0,1-3.588.112,5.333,5.333,0,0,1-1.893-1.807c-3.553-4.824-5.714-10.556-9.294-15.362a3.8,3.8,0,0,1-.605-1.037,1.141,1.141,0,0,1,.207-1.124c.38-.372,1.1-.372,1.3-.865.1-.242,0-.536.086-.787.164-.553.865-.657,1.323-1.029s.51-.769.865-.942a1.392,1.392,0,0,1,1.219.225c1.729.977,2.827,2.646,3.985,4.2a60.193,60.193,0,0,0,5.87,6.708,4.543,4.543,0,0,1,.718-2.818c.692-.32,1.919.752,2.421,1.141A10.53,10.53,0,0,1,258.429,638.673Z" transform="translate(801.782 20.389)" fill="#1492e6"/>
    <rect id="Rectangle_25" data-name="Rectangle 25" width="70.89" height="70.89" transform="translate(1072.429 733.317) rotate(167.2)" fill="#ededf4"/>
    <path id="Path_98" data-name="Path 98" d="M246.294,686.451a19.521,19.521,0,0,0-23.342-14.7c-.493.112-1,.251-1.452.389l4.651,20.437,20.437-4.642C246.5,687.462,246.407,686.943,246.294,686.451Z" transform="translate(803.862 14.039)" fill="#1492e6"/>
    <path id="Path_99" data-name="Path 99" d="M241.8,692.225l-20.446,4.642-4.642-20.437a19.512,19.512,0,1,0,25.071,15.795Z" transform="translate(806.373 13.339)" fill="#1492e6"/>
    <path id="Path_100" data-name="Path 100" d="M210.7,692.216a19.692,19.692,0,0,1,2.715,1.8,4.754,4.754,0,0,1,1.677,2.723,1.565,1.565,0,0,1-.086.934.761.761,0,0,1-.769.432,1.219,1.219,0,0,1-.484-.268,17.783,17.783,0,0,0-1.729-1.167c-.216-.13-.484-.268-.7-.147a.674.674,0,0,0-.242.251,1.979,1.979,0,0,0-.372,1.02,2.17,2.17,0,0,0,1.029,1.582,4.525,4.525,0,0,1,1.409,1.331.675.675,0,0,1,.1.51.735.735,0,0,1-.251.337,4.668,4.668,0,0,1-3.778,1.124c-.865-.138-1.729-.545-2.645-.648a5.49,5.49,0,0,1-1.132-.147,2.213,2.213,0,0,1-1.245-1.176,5.833,5.833,0,0,1-.45-1.729,20.1,20.1,0,0,1-.052-6.786.933.933,0,0,1,.156-.4.813.813,0,0,1,.372-.2c1.011-.346,2.594-1.262,3.691-1.106a2.809,2.809,0,0,1,1.063.588C209.256,691.274,210.639,691.948,210.7,692.216Z" transform="translate(806.311 11.437)" fill="#a1616a"/>
    <path id="Path_101" data-name="Path 101" d="M209.92,684.9c-.207-.994.467-3.666-1.522-3.38-.233-1.063,1.107-2.058.579-3.121-.173-.346-.553-.588-.683-.96-.372-1.055,1.452-2.084.865-3.052-.216-.372-.7-.519-.865-.865-.432-.864,1.15-1.686.968-2.663-.069-.32-.329-.588-.389-.916a2.714,2.714,0,0,1,.311-1.185c.3-1.02-.268-2.369.553-3.052-.605.2-1.02-.666-.864-1.279s.536-1.219.4-1.833a2.739,2.739,0,0,1-.164-.674c0-.631.994-.865,1.02-1.53a4.427,4.427,0,0,0-.13-.674,1.3,1.3,0,0,1,.778-1.107,3.9,3.9,0,0,0,1.2-.761c.233-.277.484-.717.865-.6.13,0,.216.164.329.242.458.337,1.115,0,1.5-.424a6.4,6.4,0,0,0,1.366-4.712c-.069-1.686-.458-3.346-.467-5.023a11.789,11.789,0,0,1,.1-1.565,7.487,7.487,0,0,0,.354-1.608c-.138-.951-1.928.13-2.637.389a11.348,11.348,0,0,0-2.023.865,21.965,21.965,0,0,0-1.937,1.435c-2.645,1.962-6.147,2.931-8.005,5.637-.614.865-1.055,1.98-1.988,2.533a12.742,12.742,0,0,0-1.279.666c-1,.778-.864,2.3-1.2,3.51a7.022,7.022,0,0,0-.3,1,3.846,3.846,0,0,0,.1,1.176l.562,2.836a107.19,107.19,0,0,0,3.458,14.083,12.1,12.1,0,0,1,1,4.643c0,.424-.112.864-.121,1.279a7.22,7.22,0,0,0,.182,1.5l.346,1.841a.563.563,0,0,0,.19.4.606.606,0,0,0,.519,0c2.481-.8,4.72-2.818,7.314-2.5" transform="translate(807.229 17.764)" fill="#3f3d56"/>
    <path id="Path_102" data-name="Path 102" d="M264.233,670.286a.787.787,0,0,1,.337.173,2.066,2.066,0,0,1,.579,2.4.752.752,0,0,0-.086.268.656.656,0,0,0,.164.38,1.383,1.383,0,0,1,.147,1.548c-.138.19-.372.32-.45.553-.13.389.268.761.311,1.167.052.545-.51.942-1.02,1.132a1.331,1.331,0,0,1-1.228,0,1,1,0,0,1-.242-1.055,2.956,2.956,0,0,1,.605-.96,1.228,1.228,0,0,1-1.375-.8,1.729,1.729,0,0,1,.337-1.625.631.631,0,0,0,.2-.38c0-.19-.19-.32-.354-.424-.7-.458-1.513-1.807-.467-2.377a2.854,2.854,0,0,1,1.167-.216c.311,0,.346.2.6.268S263.965,670.243,264.233,670.286Z" transform="translate(798.484 14.201)" fill="#a1616a"/>
    <path id="Path_103" data-name="Path 103" d="M240.47,625.993a1.988,1.988,0,0,1,1.677.406,4.5,4.5,0,0,1,1.089,1.876,17.982,17.982,0,0,0,3.864,5.9" transform="translate(801.292 20.179)" opacity="0.1"/>
    <path id="Path_104" data-name="Path 104" d="M238.5,628.432a2.369,2.369,0,0,1,2.239.735,6.831,6.831,0,0,1,.951,1.893,11.291,11.291,0,0,0,2.931,3.769" transform="translate(801.559 19.849)" opacity="0.1"/>
    <g id="man" transform="translate(1192 627.94)">
      <circle id="Ellipse_34" data-name="Ellipse 34" cx="1.981" cy="1.981" r="1.981" transform="translate(22.804 23.796)" fill="#1492e6" stroke="#1492e6" stroke-width="1"/>
      <path id="Path_114" data-name="Path 114" d="M61.151,56.779,56.19,51.817a2.923,2.923,0,0,0,.3-1.273,2.965,2.965,0,0,0-5.762-.991H45.407a2.969,2.969,0,0,0-1.8-1.8V45.01l6.645-6.645a.983.983,0,0,0,.291-.7V33.52a2.965,2.965,0,1,0-3.78-3.78H42.618a.99.99,0,0,0-.991.991v3.154a2.955,2.955,0,0,0,0,5.58v4.145H40.454a2.969,2.969,0,0,0-1.8-1.8V28.567a2.96,2.96,0,0,0,1.209-.808h3.745a.988.988,0,0,0,.7-.29l.991-.991a.986.986,0,0,0,.29-.7v-.991h5.136a2.972,2.972,0,1,0,0-1.981H48.562V16.679a2.965,2.965,0,0,0-.991-5.762,2.923,2.923,0,0,0-1.273.3L39.356,4.272a.988.988,0,0,0-.7-.29h-20.8A1.992,1.992,0,0,1,16,2.7a1,1,0,0,0-1.057-.63A6.988,6.988,0,0,0,10.34,4.757,6.879,6.879,0,0,0,13.7,15.477a18.613,18.613,0,0,0-.8,5.347h-.991a4.953,4.953,0,1,0,0,9.907H13a18.857,18.857,0,0,0,9.8,14.59v4.233H8.935A6.943,6.943,0,0,0,2,56.488v4.953H3.981V56.488a4.959,4.959,0,0,1,4.953-4.953H23.511l7.219,4.512v5.4h5.944a.988.988,0,0,0,.7-.29l3.262-3.262,1.281,1.281a.988.988,0,0,0,.7.29h3.154a2.965,2.965,0,1,0,3.78-3.78V51.535h1.173a2.968,2.968,0,0,0,2.79,1.981,2.923,2.923,0,0,0,1.273-.3l1.289,1.289L54.8,55.788a.986.986,0,0,0-.29.7v4.953h1.981V56.9l.991-.991,1.981,1.981v3.553h1.981V57.479a.986.986,0,0,0-.29-.7ZM39.828,49.553H32.711V45.591h2.164a2.955,2.955,0,0,0,5.58,0h1.173v2.164A2.969,2.969,0,0,0,39.828,49.553ZM34.875,12.9a2.969,2.969,0,0,0,1.8,1.8v4.145H32.711V12.9Zm1.8-.991a.991.991,0,1,1,.991.991A.992.992,0,0,1,36.674,11.907Zm-1.8,14.86a2.969,2.969,0,0,0,1.8,1.8v4.145H32.711V26.768ZM38.655,44.6a.991.991,0,1,1-.991-.991A.992.992,0,0,1,38.655,44.6Zm-3.78-.991H32.711V34.693h3.963V41.81A2.969,2.969,0,0,0,34.875,43.609Zm8.734,6.935a.991.991,0,1,1-.991-.991A.992.992,0,0,1,43.609,50.544Zm5.944-20.8a.991.991,0,1,1-.991.991A.992.992,0,0,1,49.553,29.74Zm-2.79,1.981a2.969,2.969,0,0,0,1.8,1.8v3.735l-4.953,4.953V39.464a2.955,2.955,0,0,0,0-5.58V31.721Zm-4.145,3.963a.991.991,0,1,1-.991.991A.992.992,0,0,1,42.618,35.684Zm-4.953-8.916a.991.991,0,1,1,.991-.991A.992.992,0,0,1,37.665,26.768Zm5.534-.991H40.637a2.965,2.965,0,0,0-5.762-.991H32.711V20.824h7.515l3.382,3.382v1.161ZM53.516,22.8a.991.991,0,1,1-.991.991A.992.992,0,0,1,53.516,22.8Zm-4.953-8.916a.991.991,0,1,1-.991-.991A.992.992,0,0,1,48.562,13.889ZM44.9,12.616a2.923,2.923,0,0,0-.3,1.273,2.968,2.968,0,0,0,1.981,2.79V22.8H45.01l-3.672-3.672a.988.988,0,0,0-.7-.29H38.655V14.7a2.965,2.965,0,1,0-3.78-3.78H32.711V5.963h5.534ZM10.966,9.66a4.959,4.959,0,0,1,3.576-5.492,3.984,3.984,0,0,0,3.309,1.8H30.73v7.925H16.078a5.191,5.191,0,0,1-.791-.061.722.722,0,0,0-.072-.011l-.079-.012A5.016,5.016,0,0,1,10.966,9.66Zm.941,19.09a2.972,2.972,0,1,1,0-5.944H12.9v5.944Zm2.972,0V20.824a16.671,16.671,0,0,1,.763-4.967c.146.009,15.088.014,15.088.014V45.562A16.864,16.864,0,0,1,14.879,28.749ZM30.73,47.522V53.71l-5.944-3.716V46.232A18.658,18.658,0,0,0,30.73,47.522ZM36.264,59.46H32.711V55.5h5.534l.991.991Zm12.3,0a.991.991,0,1,1,.991-.991A.992.992,0,0,1,48.562,59.46Zm-.991-3.78a2.969,2.969,0,0,0-1.8,1.8H43.028l-3.672-3.672a.988.988,0,0,0-.7-.29H32.711V51.535h7.117a2.955,2.955,0,0,0,5.58,0h2.164Zm4.953-5.136a.991.991,0,1,1,.991.991A.992.992,0,0,1,52.525,50.544Z" transform="translate(0 0)" fill="#1492e6" stroke="#1492e6" stroke-width="1"/>
    </g>
  </g>
</svg>
