<svg xmlns="http://www.w3.org/2000/svg" width="652.014" height="729.208" viewBox="0 0 652.014 729.208">
  <g id="products_main" transform="translate(-1069.636 -182.025)">
    <g id="products_main-2" data-name="products_main" transform="translate(1069.636 253)">
      <path id="Path_241" data-name="Path 241" d="M560.075,89.889h-1.221V87.753h.916a.611.611,0,0,0,.61-.61V76.155a.61.61,0,0,0-.61-.61h-.916V69.3a13.293,13.293,0,0,0-13.293-13.293H544.2V54.485a.61.61,0,0,0-.61-.61H532.607a.61.61,0,0,0-.61.61v1.526H333.477A13.293,13.293,0,0,0,320.184,69.3V352.2a13.293,13.293,0,0,0,13.293,13.293H545.562A13.293,13.293,0,0,0,558.855,352.2V102.1h1.221a.61.61,0,0,0,.61-.61V90.5a.61.61,0,0,0-.61-.61Z" transform="translate(-246.422 -53.875)" fill="#3f3d56"/>
      <rect id="Rectangle_43" data-name="Rectangle 43" width="218.53" height="289.952" transform="translate(84.748 10.832)" fill="#f2f2f2"/>
      <path id="Path_244" data-name="Path 244" d="M873.691,154.227H872.34V117.208a21.426,21.426,0,0,0-21.427-21.426H772.483a21.426,21.426,0,0,0-21.426,21.426V320.3a21.426,21.426,0,0,0,21.426,21.426h78.431A21.426,21.426,0,0,0,872.34,320.3V180.579h1.351Z" transform="translate(-286.417 -57.765)" fill="#3f3d56"/>
      <path id="Path_245" data-name="Path 245" d="M868.382,119.151v202.8a16,16,0,0,1-16,16H773.574a16,16,0,0,1-16-16v-202.8a16,16,0,0,1,16-16h9.563a7.6,7.6,0,0,0,7.039,10.47h44.933a7.6,7.6,0,0,0,7.039-10.47h10.238a16,16,0,0,1,16,16Z" transform="translate(-287.022 -58.449)" fill="#f2f2f2"/>
      <rect id="Rectangle_45" data-name="Rectangle 45" width="66.584" height="2.474" transform="translate(503.223 71.667)" fill="#ccc"/>
      <rect id="Rectangle_46" data-name="Rectangle 46" width="66.584" height="2.474" transform="translate(503.223 79.502)" fill="#ccc"/>
      <rect id="Rectangle_47" data-name="Rectangle 47" width="66.584" height="2.474" transform="translate(503.223 87.337)" fill="#ccc"/>
      <rect id="Rectangle_48" data-name="Rectangle 48" width="15.085" height="15.085" transform="translate(482.108 73.196)" fill="#ccc"/>
      <rect id="Rectangle_49" data-name="Rectangle 49" width="66.584" height="2.474" transform="translate(503.223 247.66)" fill="#ccc"/>
      <rect id="Rectangle_50" data-name="Rectangle 50" width="66.584" height="2.474" transform="translate(503.223 255.494)" fill="#ccc"/>
      <rect id="Rectangle_51" data-name="Rectangle 51" width="66.584" height="2.474" transform="translate(503.223 263.329)" fill="#ccc"/>
      <rect id="Rectangle_52" data-name="Rectangle 52" width="15.085" height="15.085" transform="translate(482.108 249.188)" fill="#ccc"/>
      <path id="Path_246" data-name="Path 246" d="M810.224,434.044H620.876v-3.9H535.019v3.9H344.89a12.808,12.808,0,0,0-12.808,12.808V706.126a12.808,12.808,0,0,0,12.808,12.808H810.224a12.808,12.808,0,0,0,12.808-12.808V446.851a12.808,12.808,0,0,0-12.808-12.808Z" transform="translate(-247.527 -88.801)" fill="#3f3d56"/>
      <rect id="Rectangle_53" data-name="Rectangle 53" width="456.606" height="257.572" transform="translate(101.727 367.878)" fill="#f2f2f2"/>
      <circle id="Ellipse_45" data-name="Ellipse 45" cx="4.683" cy="4.683" r="4.683" transform="translate(324.957 351.487)" fill="#6c63ff"/>
      <path id="Path_247" data-name="Path 247" d="M833.855,737.765H789.294v-3.211a.637.637,0,0,0-.637-.637H773.379a.636.636,0,0,0-.636.637v3.211h-9.549v-3.211a.637.637,0,0,0-.637-.637H747.279a.636.636,0,0,0-.637.637v3.211h-9.549v-3.211a.637.637,0,0,0-.637-.637H721.178a.637.637,0,0,0-.637.637v3.211h-9.549v-3.211a.637.637,0,0,0-.637-.637H695.078a.637.637,0,0,0-.637.637v3.211h-9.549v-3.211a.636.636,0,0,0-.637-.637H668.977a.637.637,0,0,0-.637.637v3.211h-9.549v-3.211a.637.637,0,0,0-.637-.637H642.877a.636.636,0,0,0-.637.637v3.211h-9.549v-3.211a.636.636,0,0,0-.637-.637H512.374a.637.637,0,0,0-.637.637v3.211h-9.549v-3.211a.637.637,0,0,0-.637-.637H486.273a.637.637,0,0,0-.637.637v3.211h-9.549v-3.211a.637.637,0,0,0-.637-.637H460.173a.637.637,0,0,0-.637.637v3.211h-9.549v-3.211a.637.637,0,0,0-.637-.637H434.073a.637.637,0,0,0-.637.637v3.211h-9.549v-3.211a.637.637,0,0,0-.637-.637H407.972a.636.636,0,0,0-.637.637v3.211h-9.549v-3.211a.636.636,0,0,0-.637-.637H381.872a.637.637,0,0,0-.637.637v3.211h-9.549v-3.211a.637.637,0,0,0-.637-.637H355.771a.637.637,0,0,0-.637.637v3.211H325.852a15.278,15.278,0,0,0-15.278,15.278v6.908a15.278,15.278,0,0,0,15.278,15.278h508a15.278,15.278,0,0,0,15.279-15.279v-6.908A15.278,15.278,0,0,0,833.855,737.765Z" transform="translate(-245.53 -116.998)" fill="#3f3d56"/>
      <rect id="Rectangle_54" data-name="Rectangle 54" width="128.13" height="4.761" transform="translate(285.899 388.052)" fill="#e6e6e6"/>
      <rect id="Rectangle_55" data-name="Rectangle 55" width="128.13" height="4.761" transform="translate(285.899 403.128)" fill="#e6e6e6"/>
      <rect id="Rectangle_56" data-name="Rectangle 56" width="128.13" height="4.761" transform="translate(285.899 418.205)" fill="#e6e6e6"/>
      <rect id="Rectangle_57" data-name="Rectangle 57" width="128.13" height="4.761" transform="translate(285.899 388.052)" fill="#ccc"/>
      <rect id="Rectangle_58" data-name="Rectangle 58" width="128.13" height="4.761" transform="translate(285.899 403.128)" fill="#ccc"/>
      <rect id="Rectangle_59" data-name="Rectangle 59" width="128.13" height="4.761" transform="translate(285.899 418.205)" fill="#ccc"/>
      <rect id="Rectangle_60" data-name="Rectangle 60" width="30" height="29" transform="translate(244.364 391)" fill="#ccc"/>
      <rect id="Rectangle_61" data-name="Rectangle 61" width="128.13" height="4.761" transform="translate(285.899 557.693)" fill="#ccc"/>
      <rect id="Rectangle_62" data-name="Rectangle 62" width="128.13" height="4.761" transform="translate(285.899 572.771)" fill="#ccc"/>
      <rect id="Rectangle_63" data-name="Rectangle 63" width="128.13" height="4.761" transform="translate(285.899 587.847)" fill="#ccc"/>
      <rect id="Rectangle_64" data-name="Rectangle 64" width="30" height="29" transform="translate(244.364 561)" fill="#ccc"/>
      <path id="Path_248" data-name="Path 248" d="M939.865,422.444a48.258,48.258,0,0,1-28.672,15.13l4.716,4.26-5.217.263-6.454-5.834,5.834-6.454,5.217-.263-3.909,4.322a44.777,44.777,0,0,0-7.141-88.982v-3.629a48.411,48.411,0,0,1,35.627,81.187Z" transform="translate(-300.635 -80.55)" fill="#3f3d56"/>
      <path id="Path_249" data-name="Path 249" d="M251.659,360.911a48.259,48.259,0,0,1,28.672-15.13l-4.716-4.26,5.217-.263,6.454,5.834-5.834,6.454-5.217.263,3.909-4.322a44.777,44.777,0,0,0,7.141,88.982V442.1a48.411,48.411,0,0,1-35.627-81.187Z" transform="translate(-238.875 -80.55)" fill="#3f3d56"/>
      <path id="Path_250" data-name="Path 250" d="M257.23,369.475A69.288,69.288,0,0,1,298.4,347.752l-6.771-6.116,7.49-.378,9.267,8.376-8.376,9.267-7.49.378,5.612-6.205a64.289,64.289,0,0,0,10.253,127.757v5.21A69.506,69.506,0,0,1,257.23,369.475Z" transform="matrix(-0.07, 0.998, -0.998, -0.07, 834.902, -275.364)" fill="#3f3d56"/>
      <rect id="Rectangle_65" data-name="Rectangle 65" width="128.13" height="4.761" transform="translate(150.263 25.18)" fill="#ccc"/>
      <rect id="Rectangle_66" data-name="Rectangle 66" width="128.13" height="4.761" transform="translate(150.263 40.257)" fill="#ccc"/>
      <rect id="Rectangle_67" data-name="Rectangle 67" width="128.13" height="4.761" transform="translate(150.263 55.334)" fill="#ccc"/>
      <rect id="Rectangle_68" data-name="Rectangle 68" width="29.03" height="29.03" transform="translate(109.632 28.123)" fill="#ccc"/>
      <rect id="Rectangle_69" data-name="Rectangle 69" width="128.13" height="4.761" transform="translate(149.822 251.068)" fill="#ccc"/>
      <rect id="Rectangle_70" data-name="Rectangle 70" width="128.13" height="4.761" transform="translate(149.822 266.144)" fill="#ccc"/>
      <rect id="Rectangle_71" data-name="Rectangle 71" width="128.13" height="4.761" transform="translate(149.822 281.221)" fill="#ccc"/>
      <rect id="Rectangle_72" data-name="Rectangle 72" width="30" height="29" transform="translate(108.364 254)" fill="#ccc"/>
      <circle id="Ellipse_47" data-name="Ellipse 47" cx="21.649" cy="21.649" r="21.649" transform="translate(120.078 136.229)" fill="#1492e6"/>
      <circle id="Ellipse_48" data-name="Ellipse 48" cx="17.69" cy="17.69" r="17.69" transform="translate(181.766 140.187)" fill="#1492e6"/>
      <circle id="Ellipse_49" data-name="Ellipse 49" cx="10.762" cy="10.762" r="10.762" transform="translate(246.423 147.115)" fill="#1492e6"/>
      <circle id="Ellipse_50" data-name="Ellipse 50" cx="11.373" cy="11.373" r="11.373" transform="translate(486.978 149.216)" fill="#1492e6"/>
      <circle id="Ellipse_51" data-name="Ellipse 51" cx="9.042" cy="9.042" r="9.042" transform="translate(519.637 151.547)" fill="#1492e6"/>
      <circle id="Ellipse_52" data-name="Ellipse 52" cx="5.93" cy="5.93" r="5.93" transform="translate(553.076 154.659)" fill="#1492e6"/>
      <circle id="Ellipse_53" data-name="Ellipse 53" cx="50.802" cy="50.802" r="50.802" transform="translate(278.834 437.288)" fill="#1492e6"/>
    </g>
    <g id="computer" transform="translate(1374.498 720.721)">
      <path id="Path_129" data-name="Path 129" d="M160,32.5h30.948v1.547H160Zm0,0" transform="translate(-144.526 -29.405)" fill="#fff"/>
      <path id="Path_130" data-name="Path 130" d="M32,32.5h1.547v1.547H32Zm0,0" transform="translate(-28.905 -29.405)" fill="#fff"/>
      <path id="Path_131" data-name="Path 131" d="M64,32.5h1.547v1.547H64Zm0,0" transform="translate(-57.81 -29.405)" fill="#fff"/>
      <path id="Path_132" data-name="Path 132" d="M96,32.5h1.547v1.547H96Zm0,0" transform="translate(-86.716 -29.405)" fill="#fff"/>
      <path id="Path_133" data-name="Path 133" d="M49.516.5H0V42.279H35.715l6.7,6.463a3.913,3.913,0,0,0,2.736,1.107H45.3a3.946,3.946,0,0,0,2.561-6.809l-.8-.76h2.451ZM26.155,40.732H23.361l-1.233-3.459-3.463-1.434-3.316,1.575-1.976-1.976,1.575-3.316-1.431-3.46-3.459-1.233V24.634l3.459-1.23,1.434-3.463-1.575-3.316,1.976-1.976,3.316,1.575,3.46-1.434,1.233-3.459h2.795l1.23,3.459,3.463,1.434,3.316-1.575,1.976,1.976-1.575,3.316L36,23.4l3.459,1.233v2.795l-2.038.724.315-1.178-6.948-6.95-.887.238a7.659,7.659,0,0,0-5.2-2.029,7.746,7.746,0,0,0-7.737,7.737,7.66,7.66,0,0,0,2.029,5.2l-.238.887L25.7,39.01l1.179-.315ZM28.03,20.764l-4.146,1.111,5.454,5.455-3.283,3.282L20.6,25.158,19.491,29.3a6.123,6.123,0,0,1-.983-3.333,6.2,6.2,0,0,1,6.19-6.19,6.12,6.12,0,0,1,3.332.983ZM27.8,40.732l.9-2.525,2.192-.586,3.224,3.111ZM46.944,47.5a2.378,2.378,0,0,1-1.7.8,2.411,2.411,0,0,1-1.758-.671l-7.121-6.873v-.023H36.34L31.334,35.9l-5.169,1.385L20.478,31.6l.929-3.452L26.06,32.8l5.471-5.47L26.876,22.68l3.453-.929,5.686,5.685-1.392,5.191L46.8,44.161a2.387,2.387,0,0,1,.144,3.335Zm1.025-6.764H45.431l-9.078-8.593.582-2.167,4.071-1.451V23.542l-3.839-1.364-.909-2.193L38.007,16.3l-3.52-3.52-3.681,1.749-2.193-.909L27.248,9.784H22.269L20.9,13.623l-2.193.909L15.03,12.783l-3.52,3.52,1.749,3.681-.909,2.193L8.511,23.542v4.979l3.839,1.364.909,2.193L11.509,35.76l3.52,3.52,3.681-1.749,2.193.909.814,2.292H1.547V8.237H47.969Zm0-34.042H1.547V2.047H47.969Zm0,0" transform="translate(0 -0.5)" fill="#fff"/>
    </g>
  </g>
</svg>
