<svg xmlns="http://www.w3.org/2000/svg" xmlns:xlink="http://www.w3.org/1999/xlink" width="750.506" height="537.776" viewBox="0 0 750.506 537.776">
  <defs>
    <linearGradient id="linear-gradient" x1="0.5" y1="1" x2="0.5" gradientUnits="objectBoundingBox">
      <stop offset="0" stop-color="gray" stop-opacity="0.251"/>
      <stop offset="0.535" stop-color="gray" stop-opacity="0.122"/>
      <stop offset="1" stop-color="gray" stop-opacity="0.102"/>
    </linearGradient>
    <linearGradient id="linear-gradient-2" x1="0.5" y1="1" x2="0.5" y2="0" xlink:href="#linear-gradient"/>
  </defs>
  <g id="products_main" transform="translate(-931 -314.994)">
    <path id="Path_269" data-name="Path 269" d="M728,211.411s-44.414-13.154-47.348,24.26,11.738,99.038,0,118.846-53.622,48.426-31.58,50.99,33.047,6.232,26.444,19.437-41.082,25.677-33.746,35.214,11,21.275,3.668,33.013-33.013,19.074-28.611,27.144,20.541,12.471,12.471,21.275-31.463,28.828-22.334,28.72" transform="translate(742.238 183.249)" fill="none" stroke="#535461" stroke-miterlimit="10" stroke-width="3"/>
    <rect id="Rectangle_77" data-name="Rectangle 77" width="112.692" height="52.263" rx="12.97" transform="translate(1431.943 369.733)" fill="#1492e6"/>
    <rect id="Rectangle_78" data-name="Rectangle 78" width="94.726" height="0.98" transform="translate(1440.926 413.976)" opacity="0.1"/>
    <rect id="Rectangle_79" data-name="Rectangle 79" width="94.726" height="35.931" transform="translate(1440.926 377.899)" opacity="0.3"/>
    <circle id="Ellipse_57" data-name="Ellipse 57" cx="13.066" cy="13.066" r="13.066" transform="translate(1449.908 383.549)" opacity="0.1"/>
    <circle id="Ellipse_58" data-name="Ellipse 58" cx="13.066" cy="13.066" r="13.066" transform="translate(1500.538 383.549)" opacity="0.1"/>
    <rect id="Rectangle_80" data-name="Rectangle 80" width="19.598" height="11.435" transform="translate(1478.489 421.995)" fill="#1492e6"/>
    <rect id="Rectangle_81" data-name="Rectangle 81" width="81.661" height="65.329" transform="translate(1447.459 430.163)" fill="#1492e6"/>
    <rect id="Rectangle_82" data-name="Rectangle 82" width="84.928" height="8.166" transform="translate(1445.825 508.557)" fill="#1492e6"/>
    <path id="Path_270" data-name="Path 270" d="M720.689,335.809v37.564h14.7v-49h-14.7Z" transform="translate(739.019 200.513)" fill="#1492e6"/>
    <path id="Path_271" data-name="Path 271" d="M780.8,324.376v49h14.7v-49Z" transform="translate(723.007 200.513)" fill="#1492e6"/>
    <path id="Path_272" data-name="Path 272" d="M713.291,280.656v15.106A22.1,22.1,0,0,0,702.433,301a25.687,25.687,0,0,0-6.464,9.478,48.151,48.151,0,0,0-3.183,14.469,82.725,82.725,0,0,0,.9,19.41H677.357a111.49,111.49,0,0,1,.427-23.426,62.17,62.17,0,0,1,5.242-18.567c4.732-9.924,11.462-15.308,17.374-18.233A32.088,32.088,0,0,1,713.291,280.656Z" transform="translate(723.045 164.206)" fill="#1492e6"/>
    <rect id="Rectangle_83" data-name="Rectangle 83" width="14.699" height="11.432" transform="translate(1459.708 524.889)" opacity="0.3"/>
    <rect id="Rectangle_84" data-name="Rectangle 84" width="14.699" height="14.699" transform="translate(1459.708 546.121)" opacity="0.3"/>
    <rect id="Rectangle_85" data-name="Rectangle 85" width="14.699" height="4.9" transform="translate(1459.708 568.986)" opacity="0.3"/>
    <rect id="Rectangle_86" data-name="Rectangle 86" width="14.699" height="11.432" transform="translate(1503.805 524.889)" opacity="0.3"/>
    <rect id="Rectangle_87" data-name="Rectangle 87" width="14.699" height="14.699" transform="translate(1503.805 546.121)" opacity="0.3"/>
    <rect id="Rectangle_88" data-name="Rectangle 88" width="14.699" height="4.9" transform="translate(1503.805 568.986)" opacity="0.3"/>
    <path id="Path_273" data-name="Path 273" d="M721.811,280.656v15.106A22.1,22.1,0,0,0,710.954,301l-2.032-16.868a32.088,32.088,0,0,1,12.89-3.472Z" transform="translate(714.524 164.206)" opacity="0.3"/>
    <path id="Path_274" data-name="Path 274" d="M696.277,318.355a48.147,48.147,0,0,0-3.183,14.469l-15-4.016a62.17,62.17,0,0,1,5.242-18.566Z" transform="translate(722.737 156.325)" opacity="0.3"/>
    <path id="Path_275" data-name="Path 275" d="M868.128,280.656v15.106A22.1,22.1,0,0,1,878.986,301a25.684,25.684,0,0,1,6.464,9.478,48.147,48.147,0,0,1,3.183,14.469,82.731,82.731,0,0,1-.9,19.41h16.332a111.486,111.486,0,0,0-.427-23.426,62.166,62.166,0,0,0-5.241-18.567c-4.732-9.924-11.462-15.308-17.374-18.233A32.088,32.088,0,0,0,868.128,280.656Z" transform="translate(672.114 164.206)" fill="#1492e6"/>
    <path id="Path_276" data-name="Path 276" d="M868.128,280.656v15.106A22.1,22.1,0,0,1,878.986,301l2.032-16.868A32.088,32.088,0,0,0,868.128,280.656Z" transform="translate(672.114 164.206)" opacity="0.3"/>
    <path id="Path_277" data-name="Path 277" d="M891.74,318.355a48.15,48.15,0,0,1,3.183,14.469l15-4.016a62.172,62.172,0,0,0-5.242-18.567Z" transform="translate(665.824 156.325)" opacity="0.3"/>
    <rect id="Rectangle_89" data-name="Rectangle 89" width="19.598" height="1.353" transform="translate(1478.489 421.995)" opacity="0.1"/>
    <path id="Path_278" data-name="Path 278" d="M854.393,276.485v27.351a5.7,5.7,0,0,1-1.518-3.877v-19.6A5.689,5.689,0,0,1,854.393,276.485Z" transform="translate(676.177 165.317)" opacity="0.1"/>
    <path id="Path_279" data-name="Path 279" d="M741.5,277.686v20.475a5.694,5.694,0,0,1-1.522,3.464v-27.4a5.694,5.694,0,0,1,1.522,3.465Z" transform="translate(706.252 165.92)" opacity="0.1"/>
    <rect id="Rectangle_90" data-name="Rectangle 90" width="73.493" height="0.967" transform="translate(1451.543 495.493)" opacity="0.1"/>
    <rect id="Rectangle_91" data-name="Rectangle 91" width="35.929" height="0.75" transform="translate(1449.908 516.725)" opacity="0.1"/>
    <rect id="Rectangle_92" data-name="Rectangle 92" width="35.929" height="0.75" transform="translate(1489.107 516.725)" opacity="0.1"/>
    <rect id="Rectangle_93" data-name="Rectangle 93" width="5.624" height="48.366" transform="translate(1453.916 321.368)" fill="#1492e6"/>
    <rect id="Rectangle_94" data-name="Rectangle 94" width="5.624" height="48.366" transform="translate(1518.404 321.368)" fill="#1492e6"/>
    <circle id="Ellipse_59" data-name="Ellipse 59" cx="6.374" cy="6.374" r="6.374" transform="translate(1450.167 315.369)" opacity="0.1"/>
    <circle id="Ellipse_60" data-name="Ellipse 60" cx="6.374" cy="6.374" r="6.374" transform="translate(1450.167 314.994)" fill="#1492e6"/>
    <circle id="Ellipse_61" data-name="Ellipse 61" cx="6.374" cy="6.374" r="6.374" transform="translate(1515.03 315.369)" opacity="0.1"/>
    <circle id="Ellipse_62" data-name="Ellipse 62" cx="6.374" cy="6.374" r="6.374" transform="translate(1515.03 314.994)" fill="#1492e6"/>
    <path id="Path_280" data-name="Path 280" d="M644.124,491.375c-2.507,2.511-3.079,5.959-3.97,9.156a45.117,45.117,0,0,1-16.879,23.734c-6.114,4.53-14.31,9.547-12.861,16.306.346,1.615,1.261,3.123,1.5,4.751,1.041,7.05-9.737,10.765-13.909,16.934-3.108,4.6-2.277,10.289-1.354,15.524,1.13,6.407,2.5,13.243,7.755,17.96,1.418,1.273,3.109,2.377,4.1,3.912,2.217,3.439.29,7.947,2.306,11.473,2.688,4.7,11.153,4.907,16.065,1.736s7.183-8.384,9.36-13.272c5.884-13.21,13.117-26.464,25.346-36.084,11.725-9.223,28.781-16.379,30.793-29.8.863-5.757-1.323-12.065,2.015-17.137,1.577-2.4,4.214-4.173,6-6.463,5.32-6.822,1.359-16.692-6.43-21.537C682.2,481.251,654.353,481.133,644.124,491.375Z" transform="translate(744.655 110.212)" fill="#dee3f3" opacity="0.5"/>
    <rect id="Rectangle_95" data-name="Rectangle 95" width="54.287" height="6.603" transform="translate(1543.086 372.513) rotate(-17.351)" fill="#1492e6"/>
    <path id="Path_281" data-name="Path 281" d="M933.588,484.178S905.18,478.5,897.6,470.921s-41.666-20.833-45.453-11.363-51.135,41.666-18.939,47.347,75.755,7.576,85.225,3.788S933.588,484.178,933.588,484.178Z" transform="translate(684.387 117.425)" fill="#a8a8a8"/>
    <path id="Path_282" data-name="Path 282" d="M833.215,513.447c32.2,5.682,75.755,7.576,85.225,3.788,7.211-2.885,12.223-16.744,14.2-23.194.6.128.947.2.947.2s-5.682,22.727-15.151,26.514-53.029,1.894-85.225-3.788c-9.294-1.64-11.952-5.492-10.95-10.366C823.059,509.78,826.3,512.227,833.215,513.447Z" transform="translate(684.384 107.363)" opacity="0.2"/>
    <path id="Path_283" data-name="Path 283" d="M1011.474,151.485a8.345,8.345,0,0,0-2.351-3.258c-7.622-6.948-19.952-4.842-29.417-9.086-2.18-.978-4.417-2.334-6.784-1.962-3.306.519-6.38,4.283-9.262,2.613l.206.629c-.069-.034-.138-.068-.206-.107l2.12,6.457a23.452,23.452,0,0,0,3.255,7.094,18.574,18.574,0,0,0,4.492,30.894c.1.216.2.433.3.652.09.04.182.075.273.115a21.687,21.687,0,0,1,1.4,4.5c-2.453.339-6.73,3.052-10.937,7.058l-8.412-.288a27.51,27.51,0,0,1-15.114-5.138L915.878,173.57a8.419,8.419,0,0,0-4.82,2.13c-3.124-3.255-5.775-6.655-5.549-8.647,0,0-11.7-21.894-15.952-10.947s7.976,22.416,7.976,22.416l7.758,10.051a42.285,42.285,0,0,0-.58,5.327c9.571,10.947,43.07,20.852,43.07,20.852l5.224.253c.011.1.02.177.029.257a17.779,17.779,0,0,0-.467,4.182c0,.2.007.414.01.626,0,.139-.013.278-.01.417.266,17.463,2.659,70.9,2.659,70.9.466-.208.946-.4,1.436-.576l-.372,4.746s-22.333,3.128-38.816,9.383-17.015,13.554-17.015,13.554v64.4c-4.709,2.416-12.138,5.592-15.952,3.892-4.14-1.845-6.412-.295-6.823,1.323h0a2.055,2.055,0,0,0-.018.973l.005.02a1.742,1.742,0,0,0,.159.413l.016.03a1.655,1.655,0,0,0,.281.369c1.6,1.564,36.157,15.117,44.133,13.032a5.505,5.505,0,0,0,.723-.243c.077-.032.145-.074.219-.109.148-.07.3-.137.434-.219.082-.049.156-.107.234-.16.119-.08.241-.157.353-.246.078-.062.147-.133.221-.2.1-.092.207-.18.3-.28.07-.072.132-.152.2-.229.09-.1.182-.206.266-.317.06-.08.114-.166.171-.249.08-.117.162-.233.236-.357.051-.085.1-.176.144-.264.071-.131.144-.261.209-.4.042-.088.079-.18.119-.27.063-.145.127-.29.184-.44.033-.089.063-.18.094-.271.056-.16.111-.32.16-.485.025-.086.048-.173.072-.26.048-.176.1-.353.137-.534.018-.08.035-.162.052-.243.041-.192.08-.386.115-.583.013-.073.024-.146.035-.219.034-.21.065-.421.092-.635.008-.061.014-.123.021-.184.026-.229.05-.458.069-.689,0-.048.007-.1.011-.145q.028-.371.046-.743c0-.033,0-.066,0-.1q.017-.4.022-.8v-.05a43.653,43.653,0,0,0-1.027-9.247h0l1.93-54.862a299.154,299.154,0,0,0,31.291-1.153l1.144,26.175s0,17.2,5.849,25.022c5.006,6.692,10.789,36.288,12.353,44.685-2.149,4.1-6.26,9.164-13.417,9.008,0,0-13.468-1.164-12.708,2.54l0,.006a1.917,1.917,0,0,0,.084.284l.009.024a2.633,2.633,0,0,0,.146.31l.012.021c.054.1.116.194.186.3l.043.062c.078.109.164.221.262.336l.025.028c.09.1.189.212.3.322l.09.092c.12.121.247.244.388.371,6.912,6.256,47.324,7.3,47.324,7.3V444.5c0-.04,0-.09,0-.145v-.021c-.024-1.81-.264-11.309-2.685-18.459h.56s-5.849-52.651-10.635-58.906c0,0-1.272-27.762,1.6-45.161.176-.064.355-.127.529-.192,13.4-5.007,14.356-17.336,12.976-26.4,2.536.815,4.04,1.373,4.04,1.373s-.046-.394-.133-1.091l.133.049s-.256-1.655-.677-4.24c-.959-7.1-2.817-19.517-4.795-25.378-.319-1.288-.626-2.39-.91-3.224a55.1,55.1,0,0,1-2.341-10.829,128.317,128.317,0,0,1-.822-14.359,137.805,137.805,0,0,1,1.47-19.156,115.436,115.436,0,0,0,1.481-16.242,21.657,21.657,0,0,0-.32-4.576c-.71-3.249-3.843-5.361-7.1-6.705-.21-.087-.425-.158-.637-.238.079-1.231.183-2.627.318-4.1a3.5,3.5,0,0,0,2.71.549,6.416,6.416,0,0,0,3.3-2.575c4.713-5.788,9.552-11.821,11.362-19.011a41.081,41.081,0,0,0,1-9.789q0-.27,0-.541a10.645,10.645,0,0,0-.428-3.655Z" transform="translate(669.587 202.443)" fill="url(#linear-gradient)"/>
    <path id="Path_284" data-name="Path 284" d="M1001.59,192.356s7.14,10.71,5.61,15.81,16.83,2.04,16.83,2.04.51-19.89,4.08-24.48S1001.59,192.356,1001.59,192.356Z" transform="translate(636.562 189.788)" fill="#f7c4a7"/>
    <path id="Path_285" data-name="Path 285" d="M926.236,193.46s-14.79-12.24-14.28-16.83c0,0-11.22-21.42-15.3-10.71s7.65,21.93,7.65,21.93l14.28,18.87Z" transform="translate(664.744 195.569)" fill="#f7c4a7"/>
    <path id="Path_286" data-name="Path 286" d="M907.344,466.285s-13.77,8.67-19.38,6.12-7.65,1.53-6.12,3.06,34.68,14.79,42.33,12.75,3.759-18.746,3.759-18.746Z" transform="translate(668.591 114.757)" fill="#535461"/>
    <path id="Path_287" data-name="Path 287" d="M1006.382,516.292s-3.315,14.025-14.79,13.77c0,0-17.34-1.53-10.71,4.59s45.39,7.14,45.39,7.14,0-20.91-7.14-25.5S1006.382,516.292,1006.382,516.292Z" transform="translate(642.48 101.979)" fill="#535461"/>
    <path id="Path_288" data-name="Path 288" d="M987.691,379.575l1.53,35.7s0,16.83,5.61,24.48,12.24,45.9,12.24,45.9h19.38s-5.61-51.51-10.2-57.629c0,0-2.04-45.389,5.1-55.589Z" transform="translate(640.264 139.757)" fill="#575988"/>
    <path id="Path_289" data-name="Path 289" d="M987.691,379.575l1.53,35.7s0,16.83,5.61,24.48,12.24,45.9,12.24,45.9h19.38s-5.61-51.51-10.2-57.629c0,0-2.04-45.389,5.1-55.589Z" transform="translate(640.264 139.757)" opacity="0.1"/>
    <path id="Path_290" data-name="Path 290" d="M1007.61,337.445s11.73,28.05-9.69,36.21-60.179,7.14-60.179,7.14l-2.04,59.159s-23.97,3.06-24.48-4.59V370.595s.51-7.14,16.32-13.26,37.23-9.18,37.23-9.18l1.02-13.26Z" transform="translate(660.635 149.758)" fill="#575988"/>
    <path id="Path_291" data-name="Path 291" d="M1006.962,212.361a24.4,24.4,0,0,1,11.983,1.694c3.125,1.315,6.131,3.382,6.812,6.56.807,3.764-.088,12.206-1.114,19.347a133.253,133.253,0,0,0-.622,33.809c.526,4.685,1.251,8.771,2.246,10.594,3.06,5.61,6.12,32.13,6.12,32.13s-33.66-12.75-50.489-5.1c0,0-2.295-52.275-2.55-69.359-.2-13.229,16.575-28.3,22.185-28.815C1004.82,212.922,1003.7,212.7,1006.962,212.361Z" transform="translate(642.487 182.438)" opacity="0.1"/>
    <path id="Path_292" data-name="Path 292" d="M1006.962,210.971a24.4,24.4,0,0,1,11.983,1.694c3.125,1.315,6.131,3.382,6.812,6.56.807,3.764-.088,12.206-1.114,19.347a133.253,133.253,0,0,0-.622,33.809,54.825,54.825,0,0,0,2.246,10.594c2.295,6.885,6.12,32.13,6.12,32.13s-33.66-12.75-50.489-5.1c0,0-2.295-52.275-2.55-69.359-.2-13.229,16.575-28.3,22.185-28.815C1004.82,211.532,1003.7,211.31,1006.962,210.971Z" transform="translate(642.487 182.809)" fill="#e14b5a"/>
    <path id="Path_293" data-name="Path 293" d="M1016.068,242.267l-36.21-2.04s-2.3-17.752,2.923-17.57l35.837,1.25S1026.273,233.087,1016.068,242.267Z" transform="translate(642.485 179.657)" opacity="0.1"/>
    <path id="Path_294" data-name="Path 294" d="M999.4,232.627l-41.308-2.04s-32.13-9.69-41.31-20.4c0,0,.51-18.87,10.71-19.89l24.126,17.693a26.049,26.049,0,0,0,14.5,5.027l35.837,1.25S1009.6,223.448,999.4,232.627Z" transform="translate(659.153 188.276)" fill="#e14b5a"/>
    <path id="Path_295" data-name="Path 295" d="M1023.774,194.836c.606-4.836,2.8-6.44,4.335-8.415,3.57-4.59-26.52,6.63-26.52,6.63a54.1,54.1,0,0,1,4.067,7.5,18.284,18.284,0,0,0,7.662,1.676C1017.759,202.231,1020.605,197.456,1023.774,194.836Z" transform="translate(636.562 189.603)" opacity="0.1"/>
    <circle id="Ellipse_63" data-name="Ellipse 63" cx="18.36" cy="18.36" r="18.36" transform="translate(1631.525 354.604)" fill="#f7c4a7"/>
    <path id="Path_296" data-name="Path 296" d="M999.668,159.054c-1.955-2.135-2.9-4.984-3.782-7.74L993.853,145c2.765,1.634,5.713-2.048,8.884-2.556,2.271-.364,4.416.963,6.507,1.92,9.078,4.152,20.9,2.092,28.215,8.889a8.159,8.159,0,0,1,2.255,3.187,10.661,10.661,0,0,1,.409,3.595,40.964,40.964,0,0,1-.956,9.577c-1.736,7.034-6.378,12.937-10.9,18.6a6.173,6.173,0,0,1-3.166,2.52c-2.624.586-4.655-2.251-5.67-4.74a50.427,50.427,0,0,1-2.959-10.235,13.411,13.411,0,0,0-1.212-4.326c-1.58-2.8-5.476-5.452-7.844-7.623C1005.09,161.671,1001.84,161.429,999.668,159.054Z" transform="translate(638.623 201.041)" opacity="0.1"/>
    <path id="Path_297" data-name="Path 297" d="M999.668,158.359c-1.955-2.135-2.9-4.984-3.782-7.74l-2.033-6.317c2.765,1.634,5.713-2.048,8.884-2.556,2.271-.364,4.416.963,6.507,1.92,9.078,4.152,20.9,2.092,28.215,8.889a8.159,8.159,0,0,1,2.255,3.187,10.661,10.661,0,0,1,.409,3.595,40.964,40.964,0,0,1-.956,9.577c-1.736,7.034-6.378,12.937-10.9,18.6a6.173,6.173,0,0,1-3.166,2.52c-2.624.586-4.655-2.251-5.67-4.74a50.434,50.434,0,0,1-2.959-10.235,13.411,13.411,0,0,0-1.212-4.326c-1.58-2.8-5.476-5.452-7.844-7.623C1005.09,160.976,1001.84,160.734,999.668,158.359Z" transform="translate(638.623 201.226)" fill="#632652"/>
    <ellipse id="Ellipse_64" data-name="Ellipse 64" cx="1.53" cy="3.315" rx="1.53" ry="3.315" transform="translate(1653.2 371.689)" fill="#f7c4a7"/>
    <path id="Path_298" data-name="Path 298" d="M1027.255,306.045s-1.02,3.06-6.12,2.55-19.89-1.53-19.89,0" transform="translate(636.653 157.443)" opacity="0.1"/>
    <path id="Path_299" data-name="Path 299" d="M980.886,540.591a4.32,4.32,0,0,1-1.484-2.128c-.134.663.276,1.523,1.484,2.638,6.63,6.12,45.39,7.14,45.39,7.14s0-.18-.006-.51C1026.023,547.725,987.5,546.692,980.886,540.591Z" transform="translate(642.479 95.53)" fill="#fff" opacity="0.5"/>
    <path id="Path_300" data-name="Path 300" d="M924.172,489.887c-7.65,2.04-40.8-11.22-42.33-12.75a1.657,1.657,0,0,1-.424-.746,1.833,1.833,0,0,0,.424,1.766c1.53,1.53,34.68,14.79,42.33,12.75,3.938-1.05,4.815-5.984,4.742-10.527C928.839,484.616,927.816,488.915,924.172,489.887Z" transform="translate(668.593 112.065)" fill="#fff" opacity="0.5"/>
    <path id="Path_301" data-name="Path 301" d="M442.964,481.713a218.912,218.912,0,0,1-3.284-30.114h0a40.341,40.341,0,0,0-28.389-36.841c-2.9-.891-6.092-1.724-9.615-2.473-30.906-6.564-40.294-.833-41.361-.079a39.633,39.633,0,0,1-2.34-5.11c-.052-.179-.1-.36-.151-.541A39.566,39.566,0,0,0,368.4,382.716c5.155-5.227,8.167-11.534,8.167-18.324a25.174,25.174,0,0,0-6.133-16.066v-9.215A40.133,40.133,0,0,0,330.3,298.979h-3.255a40.133,40.133,0,0,0-40.133,40.133v9.947a24.913,24.913,0,0,0-5.549,15.334c0,6.647,2.889,12.83,7.847,17.992a39.573,39.573,0,0,0,11.014,24.609c.217,1.507.44,3.129.66,4.84l-55.294,11.694s-21.318.876-35.043,29.2c-11.62,23.981-34.749,85.631-41.573,103.985h0c-1.237,3.326-1.939,5.233-1.939,5.233s.226-.229.661-.62c-.429,1.16-.661,1.788-.661,1.788s.336-.339.973-.9c-.968,7.681-1.107,20.864,8.956,22.507,8.435,1.377,30.16,1.942,46.578,2.174v.016h1.139c10.88.146,19.157.146,19.157.146v-.146h176.53v-1.809a12.168,12.168,0,0,0-.973-4.782q.127-.147.246-.3a9.689,9.689,0,0,1,1.832,4.247,4.24,4.24,0,0,1-.083.448l.1-.27a4.547,4.547,0,0,1-.1,1.438s22.649-58.357,22.407-93.2a59.033,59.033,0,0,0-.831-10.981Zm-141.176-62a40.505,40.505,0,0,1-.56-5.033v-.047C301.425,416.273,301.613,417.972,301.788,419.714ZM233.177,545.06v13.909l-8.719,1.862Z" transform="translate(858.876 159.325)" fill="url(#linear-gradient-2)"/>
    <path id="Path_302" data-name="Path 302" d="M333.893,241.263h0A40.133,40.133,0,0,1,374.026,281.4v17.12H293.76V281.4a40.133,40.133,0,0,1,40.134-40.133Z" transform="translate(852.747 222.653)" fill="#e14b5a"/>
    <ellipse id="Ellipse_65" data-name="Ellipse 65" cx="45.746" cy="31.433" rx="45.746" ry="31.433" transform="translate(1141.174 495.349)" fill="#e14b5a"/>
    <path id="Path_303" data-name="Path 303" d="M345.984,430.262s9.542,49.955,0,63.426,29.187,18.8,29.187,18.8L415.3,497.9l5.613-35.923S396.5,448.224,401.552,420.44Z" transform="translate(811.609 126.97)" fill="#f7c4a7"/>
    <path id="Path_304" data-name="Path 304" d="M493.908,657.961s2.526,10.945-11.226,12.91a77.767,77.767,0,0,1-24.47-.292l-3.033-27.493h31.994Z" transform="translate(782.118 67.66)" fill="#f7c4a7"/>
    <path id="Path_305" data-name="Path 305" d="M176.438,638.55s-6.073,24.674,7.679,26.92,64.268,2.245,64.268,2.245V638.527l-22.868,4.884-21.474-20.6Z" transform="translate(856.726 73.061)" fill="#f7c4a7"/>
    <path id="Path_306" data-name="Path 306" d="M303.622,454.943l-53.744,11.366s-20.487.842-33.678,28.065-41.817,104.962-41.817,104.962,24.416-24.7,53.042,1.684l19.084-34.52-4.21,54.726H390.2v-25.82s30.871,16.558,28.626,25.82c0,0,26.417-68.065,20.735-99a210.377,210.377,0,0,1-3.156-28.941h0a38.769,38.769,0,0,0-27.283-35.405c-2.784-.857-5.855-1.657-9.24-2.376-31.713-6.736-39.852,0-39.852,0s-6.143,19.988-6.034,29.047c.14,11.647-16.558,19.365-16.558,19.365s-24.7-5.894-25.82-10.665S301.657,460.556,303.622,454.943Z" transform="translate(856.918 118.427)" opacity="0.1"/>
    <path id="Path_307" data-name="Path 307" d="M303.622,453.413l-53.744,11.366s-20.488.842-33.678,28.064-41.817,104.963-41.817,104.963,24.416-24.7,53.042,1.684l19.084-34.52L242.3,619.7H390.2v-25.82s30.871,16.558,28.626,25.82c0,0,26.417-68.066,20.735-99a210.377,210.377,0,0,1-3.156-28.941h0a38.769,38.769,0,0,0-27.283-35.405c-2.784-.857-5.855-1.657-9.24-2.376-31.713-6.736-39.852,0-39.852,0s-6.143,19.988-6.034,29.047c.14,11.647-16.558,19.365-16.558,19.365s-24.7-5.894-25.82-10.665S301.657,459.026,303.622,453.413Z" transform="translate(856.918 118.834)" fill="#575988"/>
    <path id="Path_308" data-name="Path 308" d="M404.714,443.809a37.988,37.988,0,0,1-1.464-19.927l-55.568,9.823s.8,4.2,1.709,10.491a38.162,38.162,0,0,0,55.324-.387Z" transform="translate(810.754 126.053)" opacity="0.1"/>
    <path id="Path_309" data-name="Path 309" d="M410.627,398.164a38.167,38.167,0,1,1-76.328.926q-.009-.463-.009-.926a38.179,38.179,0,0,1,21.4-34.3q1.709-.833,3.522-1.507a38.441,38.441,0,0,1,19.659-1.824.021.021,0,0,0,.014,0,38.139,38.139,0,0,1,31.654,35.1Q410.627,396.889,410.627,398.164Z" transform="translate(814.321 143.071)" fill="#f7c4a7"/>
    <g id="Group_87" data-name="Group 87" transform="translate(1148.611 504.468)" opacity="0.1">
      <path id="Path_310" data-name="Path 310" d="M359.162,364.422a.564.564,0,0,1,.053-.034A38.154,38.154,0,0,0,334.291,400.2c0,.309,0,.617.011.926a8.479,8.479,0,0,0,3.424-.822c9.306-4.342,14.888-17.63,17.08-26.9C355.592,370.085,356.344,366.347,359.162,364.422Z" transform="translate(-334.291 -362.566)"/>
      <path id="Path_311" data-name="Path 311" d="M396.147,364.832a37.851,37.851,0,0,0-9.489-2.927,12.244,12.244,0,0,1,6.814,4.28,17.448,17.448,0,0,1,2.086,3.719,38.27,38.27,0,0,0-32.1.665c2.4,5.251,9.825,8.116,14.785,10.033q8.146,3.145,16.482,5.75-2.454-2-4.909-3.985l11.083,1.762a19.2,19.2,0,0,0-.774-6.533c2.11,1.711,4.938,2.284,7.243,3.738,4.319,2.722,6.115,7.976,8.47,12.506a8.077,8.077,0,0,0,2.475,3.166A38.184,38.184,0,0,0,396.147,364.832Z" transform="translate(-342.06 -361.905)"/>
    </g>
    <path id="Path_312" data-name="Path 312" d="M359.162,363.247a.566.566,0,0,1,.053-.034,38.154,38.154,0,0,0-24.924,35.808c0,.309,0,.617.011.926a8.479,8.479,0,0,0,3.424-.822c9.306-4.342,14.888-17.63,17.08-26.9C355.592,368.91,356.344,365.172,359.162,363.247Z" transform="translate(814.321 142.214)" fill="#632652"/>
    <path id="Path_313" data-name="Path 313" d="M396.147,363.657a37.852,37.852,0,0,0-9.489-2.927,12.244,12.244,0,0,1,6.814,4.28,17.451,17.451,0,0,1,2.086,3.719,38.27,38.27,0,0,0-32.1.665c2.4,5.251,9.826,8.116,14.785,10.033q8.146,3.145,16.482,5.75-2.454-2-4.909-3.985l11.083,1.762a19.2,19.2,0,0,0-.774-6.533c2.11,1.711,4.938,2.284,7.243,3.738,4.319,2.722,6.115,7.976,8.47,12.506a8.077,8.077,0,0,0,2.475,3.166A38.184,38.184,0,0,0,396.147,363.657Z" transform="translate(806.551 142.876)" fill="#632652"/>
    <path id="Path_314" data-name="Path 314" d="M328.362,390.256s39.291-48.833,84.756,0l-3.929-10.945S387.86,348.159,372.7,354.895,342.675,366.4,342.675,366.4Z" transform="translate(815.9 144.684)" opacity="0.1"/>
    <path id="Path_315" data-name="Path 315" d="M328.362,389.081s39.291-48.833,84.756,0l-3.929-10.945S387.86,346.984,372.7,353.72s-30.03,11.507-30.03,11.507Z" transform="translate(815.9 144.997)" fill="#e14b5a"/>
    <path id="Path_316" data-name="Path 316" d="M281.82,545.726s-8.419,22.452,3.368,42.658S274.8,617.01,274.8,617.01" transform="translate(830.167 93.595)" opacity="0.1"/>
    <path id="Path_317" data-name="Path 317" d="M468.86,518.182s14.594,18.523,5.052,35.081-8.981,56.41-8.981,56.41" transform="translate(779.522 100.933)" opacity="0.1"/>
    <path id="Path_318" data-name="Path 318" d="M224.217,600.1H386.431A13.471,13.471,0,0,1,399.9,613.571H210.746A13.471,13.471,0,0,1,224.217,600.1Z" transform="translate(874.86 127.064)" fill="#535461"/>
    <path id="Path_319" data-name="Path 319" d="M251.981,473.857H365.393A28.611,28.611,0,0,1,394,502.468v67.09H223.37v-67.09A28.611,28.611,0,0,1,251.981,473.857Z" transform="translate(871.497 160.694)" fill="#535461"/>
    <circle id="Ellipse_66" data-name="Ellipse 66" cx="10.103" cy="10.103" r="10.103" transform="translate(1169.941 676.508)" fill="#fff"/>
    <path id="Path_320" data-name="Path 320" d="M331.422,365.928s38.617-38.6,80.266-.7" transform="translate(815.085 146.117)" fill="none" stroke="#000" stroke-miterlimit="10" stroke-width="1" opacity="0.1"/>
    <rect id="Rectangle_96" data-name="Rectangle 96" width="3.878" height="21.978" transform="translate(1232.652 509.586)" fill="#6a5c99"/>
    <path id="Path_321" data-name="Path 321" d="M404.137,322.9h0A13.359,13.359,0,0,1,417.5,336.26v.862a13.359,13.359,0,0,1-13.359,13.359h0Z" transform="translate(823.344 200.906)" fill="#ffd037"/>
    <rect id="Rectangle_97" data-name="Rectangle 97" width="6.033" height="30.166" rx="3.017" transform="translate(1224.896 522.514)" fill="#6a5c99"/>
    <rect id="Rectangle_98" data-name="Rectangle 98" width="3.878" height="21.978" transform="translate(1140.231 531.995) rotate(180)" fill="#6a5c99"/>
    <path id="Path_322" data-name="Path 322" d="M0,0H0A13.359,13.359,0,0,1,13.359,13.359v.862A13.359,13.359,0,0,1,0,27.58H0Z" transform="translate(1145.403 551.818) rotate(180)" fill="#ffd037"/>
    <rect id="Rectangle_99" data-name="Rectangle 99" width="6.033" height="30.166" rx="3.017" transform="translate(1147.988 553.111) rotate(180)" fill="#6a5c99"/>
    <path id="Path_323" data-name="Path 323" d="M413.029,327.708c-5.251-10.919-16.689-24.121-41.344-25.175l0-.03-.3.014h-.019v0l-8.734.416v.043c-24.493,1.127-35.877,14.278-41.111,25.162a56.6,56.6,0,0,0-5.415,23.565l3.016-.074,3.016-.069a51.327,51.327,0,0,1,4.911-21c6.65-13.656,18.883-20.92,36.36-21.59v-.005l7.725-.428v0c17.478.67,29.711,7.934,36.36,21.59a51.326,51.326,0,0,1,4.911,21l3.016.069,3.016.074A56.6,56.6,0,0,0,413.029,327.708Z" transform="translate(819.163 158.386)" fill="#ffd037"/>
    <rect id="Rectangle_100" data-name="Rectangle 100" width="411.395" height="110.454" transform="translate(958.595 740.812)" fill="#d6d6e3"/>
    <rect id="Rectangle_101" data-name="Rectangle 101" width="411.395" height="14.338" transform="translate(958.595 748.247)" opacity="0.1"/>
    <rect id="Rectangle_102" data-name="Rectangle 102" width="466.582" height="14.338" transform="translate(931 739.22)" fill="#d6d6e3"/>
    <path id="Path_324" data-name="Path 324" d="M473.166,633.295s17.607,32.279,61.624,23.476S557.532,738.2,557.532,738.2s-7.2,43.045-2.134,42.8" transform="translate(777.326 70.268)" fill="none" stroke="#535461" stroke-miterlimit="10" stroke-width="3"/>
    <g id="Group_88" data-name="Group 88" transform="translate(26 9.735)">
      <path id="Path_336" data-name="Path 336" d="M151.4,500h8.532a3.368,3.368,0,0,1-3.368,3.368h-1.8A3.368,3.368,0,0,1,151.4,500Z" transform="translate(1093.765 -14.103)" fill="#3f3d56"/>
      <path id="Path_337" data-name="Path 337" d="M348.8,239.566v-3.13c0-3.782,4.113-7.359,6.781-9.911a18.967,18.967,0,1,0-31.819-14.188q0,.052,0,.1a19.33,19.33,0,0,0,5.738,14.084c2.654,2.505,6.781,6.09,6.781,9.911v3.13" transform="translate(906.9 238.79)" fill="#1492e6"/>
      <path id="Path_338" data-name="Path 338" d="M346.235,237.749a.439.439,0,0,1-.439-.439v-3.13c0-3.679,3.628-7.114,6.278-9.621.22-.208.434-.411.639-.607a18.52,18.52,0,0,0,5.6-13.766,18.144,18.144,0,0,0-18.339-18.339h-.052a18.308,18.308,0,0,0-18.288,18.236v.1a18.875,18.875,0,0,0,5.6,13.765c.18.17.368.346.56.526,2.684,2.513,6.359,5.954,6.359,9.7v3.13a.439.439,0,1,1-.879,0v-3.13c0-3.37-3.515-6.661-6.081-9.063l-.562-.528a19.755,19.755,0,0,1-5.876-14.4v-.105a19.189,19.189,0,0,1,19.165-19.112h.054a19.117,19.117,0,0,1,19.217,19.218,19.378,19.378,0,0,1-5.874,14.4c-.206.2-.421.4-.642.61-2.534,2.4-6,5.682-6,8.983v3.13a.439.439,0,0,1-.439.439Z" transform="translate(909.461 241.047)" fill="#3f3d56"/>
      <path id="Path_339" data-name="Path 339" d="M427.58,540.409h-8.346a.732.732,0,1,1,0-1.464h8.346a.732.732,0,1,1,0,1.464Z" transform="translate(826.029 -55.976)" fill="#1492e6"/>
      <path id="Path_340" data-name="Path 340" d="M278.481,163.822a.729.729,0,0,1-.481-.181l-6.288-5.488a.732.732,0,0,1,.963-1.1l6.288,5.488a.732.732,0,0,1-.482,1.284Z" transform="translate(951.538 270.152)" fill="#535461"/>
      <path id="Path_341" data-name="Path 341" d="M573.208,163.822a.732.732,0,0,1-.482-1.284l6.287-5.488a.732.732,0,1,1,.963,1.1l-6.288,5.488A.729.729,0,0,1,573.208,163.822Z" transform="translate(694.601 270.152)" fill="#535461"/>
      <path id="Path_342" data-name="Path 342" d="M417.5,522.662H404.985a.732.732,0,1,1,0-1.464H417.5a.732.732,0,1,1,0,1.464Z" transform="translate(838.191 -40.828)" fill="#1492e6"/>
      <path id="Path_343" data-name="Path 343" d="M447.733,406.613a.732.732,0,0,1-.732-.732V389.189a.732.732,0,0,1,1.464,0v16.692A.732.732,0,0,1,447.733,406.613Z" transform="translate(801.703 72.476)" fill="#fff"/>
      <path id="Path_344" data-name="Path 344" d="M418.846,377.758c-2.366,0-5.27-2.14-5.392-2.231a.732.732,0,0,1,.874-1.175c.728.54,2.959,1.942,4.518,1.942s3.791-1.4,4.519-1.942a.732.732,0,1,1,.874,1.175C424.116,375.617,421.212,377.758,418.846,377.758Z" transform="translate(830.59 84.639)" fill="#fff"/>
      <path id="Path_345" data-name="Path 345" d="M447.732,72.928A.732.732,0,0,1,447,72.2V59.677a.732.732,0,1,1,1.464,0V72.2a.732.732,0,0,1-.732.732Z" transform="translate(801.704 353.737)" fill="#535461"/>
    </g>
  </g>
</svg>
