<svg xmlns="http://www.w3.org/2000/svg" width="775" height="742" viewBox="0 0 775 742">
  <g id="services_main" transform="translate(-885 -264)">
    <path id="Path_155" data-name="Path 155" d="M591.963,842.178c-3.474-.027-6.987-.051-10.438-.158l.107-3.48c3.415.105,6.907.153,10.332.156,3.44,0,6.945-.056,10.422-.168l.112,3.478C598.983,842.12,595.439,842.178,591.963,842.178Zm-31.364-1.47c-6.93-.656-13.929-1.545-20.8-2.641l.549-3.437c6.8,1.084,13.724,1.965,20.581,2.614Zm62.823-.037-.331-3.464c6.855-.656,13.778-1.545,20.577-2.64l.554,3.437c-6.872,1.106-13.871,2-20.8,2.667Zm-104.215-6.577c-6.786-1.538-13.613-3.32-20.292-5.293l.987-3.339c6.607,1.953,13.362,3.714,20.075,5.235Zm145.6-.087-.773-3.393c6.729-1.535,13.481-3.3,20.069-5.261l.991,3.339c-6.658,1.977-13.484,3.765-20.287,5.316ZM479,822.212c-6.548-2.405-13.1-5.054-19.471-7.874l1.409-3.182c6.3,2.788,12.784,5.409,19.262,7.789Zm225.99-.136-1.2-3.267c6.438-2.371,12.9-4.991,19.2-7.785l1.412,3.182c-6.367,2.826-12.9,5.473-19.4,7.87ZM440.616,805.227c-6.162-3.216-12.315-6.684-18.287-10.3l1.805-2.978c5.909,3.585,12,7.013,18.093,10.2Zm302.647-.128-1.611-3.085c6.082-3.18,12.156-6.609,18.049-10.19l1.809,2.975c-5.959,3.622-12.1,7.086-18.246,10.3ZM404.744,783.47c-5.707-3.983-11.363-8.207-16.813-12.552L390.1,768.2c5.392,4.3,10.989,8.479,16.634,12.419Zm374.321-.124-2-2.852c5.645-3.945,11.234-8.124,16.612-12.419l2.172,2.72c-5.435,4.341-11.085,8.563-16.789,12.55ZM371.955,757.317c-5.159-4.683-10.231-9.59-15.073-14.583l2.5-2.424c4.791,4.94,9.81,9.794,14.915,14.43Zm439.858-.121-2.342-2.577c5.093-4.625,10.107-9.483,14.906-14.435l2.5,2.421c-4.848,5.006-9.917,9.915-15.062,14.592ZM342.771,727.226c-4.517-5.3-8.922-10.806-13.092-16.374l2.787-2.087c4.126,5.511,8.484,10.962,12.953,16.2Zm498.214-.145-2.648-2.257c4.469-5.244,8.827-10.7,12.953-16.22l2.788,2.084c-4.171,5.577-8.575,11.093-13.094,16.393Zm-523.325-33.4c-3.808-5.832-7.473-11.855-10.893-17.9l3.031-1.713c3.383,5.982,7.009,11.941,10.778,17.71Zm548.44-.189-2.917-1.9c3.77-5.781,7.4-11.751,10.78-17.746l3.033,1.71c-3.422,6.061-7.087,12.1-10.9,17.935ZM297.046,657.217c-3.029-6.266-5.891-12.7-8.505-19.14l3.225-1.309c2.587,6.364,5.418,12.735,8.415,18.933Zm589.674-.272-3.135-1.513c3-6.208,5.827-12.6,8.418-18.99l3.226,1.305c-2.619,6.465-5.48,12.924-8.509,19.2Zm-605.445-38.54c-2.2-6.612-4.214-13.376-5.98-20.1l3.367-.884c1.747,6.655,3.737,13.347,5.915,19.886Zm621.209-.369-3.3-1.095c2.166-6.532,4.149-13.226,5.892-19.895l3.369.881c-1.763,6.741-3.768,13.507-5.958,20.109ZM270.624,577.859c-1.33-6.83-2.455-13.794-3.345-20.7l3.452-.445c.881,6.833,1.994,13.723,3.31,20.479Zm642.461-.382-3.417-.66c1.305-6.755,2.412-13.648,3.284-20.486l3.454.442c-.883,6.911-2,13.877-3.323,20.7ZM265.264,536.288c-.446-6.939-.676-13.991-.684-20.962l3.481,0c.008,6.9.235,13.876.677,20.741Zm653.13-.389-3.474-.221c.433-6.859.653-13.836.653-20.736l0-.763h3.481l0,.751c0,6.984-.223,14.036-.66,20.968Zm-649.7-41.314-3.474-.214c.432-6.952,1.092-13.976,1.963-20.877l3.454.435C269.771,480.757,269.118,487.707,268.691,494.584Zm646.181-1.142c-.452-6.881-1.13-13.828-2.016-20.648l3.451-.449c.9,6.893,1.583,13.913,2.04,20.869Zm-640.978-40-3.418-.658c1.313-6.833,2.869-13.714,4.621-20.454l3.369.875C276.731,439.873,275.194,446.681,273.894,453.441Zm635.624-1.123c-1.326-6.764-2.89-13.566-4.644-20.22l3.366-.887c1.775,6.725,3.354,13.6,4.695,20.438ZM284.336,413.3l-3.306-1.091c2.185-6.615,4.618-13.25,7.231-19.722l3.228,1.3C288.9,400.2,286.5,406.761,284.336,413.3Zm614.6-1.085c-2.186-6.534-4.612-13.079-7.211-19.455l3.223-1.314c2.628,6.444,5.081,13.06,7.289,19.664ZM299.885,374.791l-3.138-1.509c3.02-6.277,6.285-12.541,9.7-18.616l3.034,1.708C306.1,362.384,302.872,368.581,299.885,374.791Zm583.408-.949c-3-6.181-6.24-12.355-9.64-18.35l3.029-1.717c3.435,6.058,6.713,12.3,9.742,18.549ZM320.245,338.613l-2.919-1.9c3.8-5.835,7.835-11.628,12-17.214l2.791,2.081C328,327.109,324,332.839,320.245,338.613Zm542.607-.819c-3.767-5.753-7.773-11.465-11.911-16.978l2.784-2.089c4.182,5.572,8.232,11.345,12.04,17.16Zm-517.8-32.446-2.652-2.254c4.509-5.3,9.249-10.533,14.088-15.54l2.5,2.419C354.2,294.927,349.515,300.1,345.052,305.348Zm492.918-.717c-4.476-5.233-9.181-10.391-13.981-15.331l2.5-2.426c4.853,4.992,9.607,10.2,14.13,15.494Zm-464.09-29.112-2.344-2.574c5.151-4.692,10.516-9.274,15.944-13.617l2.176,2.718c-5.37,4.3-10.677,8.829-15.775,13.471Zm435.174-.632c-5.1-4.621-10.427-9.141-15.822-13.433l2.169-2.725c5.451,4.339,10.831,8.906,15.989,13.577Zm-402.8-25.281-2-2.851c5.7-3.992,11.6-7.852,17.541-11.472l1.811,2.973C417.73,241.839,411.891,245.658,406.254,249.606Zm370.331-.554c-5.667-3.944-11.525-7.75-17.411-11.312l1.8-2.978c5.95,3.6,11.872,7.446,17.6,11.433ZM441.648,228.043l-1.617-3.083c6.154-3.228,12.5-6.3,18.853-9.129l1.416,3.18C454.012,221.81,447.737,224.849,441.648,228.043Zm299.422-.478c-6.113-3.182-12.413-6.207-18.725-8.991l1.406-3.185c6.379,2.814,12.748,5.872,18.927,9.088ZM479.488,211.2l-1.209-3.265c6.527-2.415,13.22-4.648,19.894-6.638l.994,3.337c-6.6,1.968-13.224,4.179-19.68,6.567Zm223.586-.4c-6.47-2.367-13.1-4.553-19.7-6.5l.982-3.34c6.675,1.964,13.377,4.174,19.918,6.567ZM519.229,199.354l-.777-3.393c6.773-1.552,13.7-2.9,20.581-4.022l.557,3.437C532.78,196.482,525.929,197.819,519.229,199.354Zm144.059-.253c-6.713-1.513-13.568-2.827-20.376-3.906l.546-3.439c6.881,1.091,13.81,2.42,20.595,3.949Zm-103.122-6.389-.337-3.464c6.912-.671,13.951-1.129,20.923-1.361l.116,3.479c-6.9.23-13.863.682-20.7,1.345Zm62.163-.108c-6.849-.64-13.816-1.068-20.706-1.273l.1-3.479c6.963.207,14,.64,20.927,1.287Z" transform="translate(681.342 149.402)" fill="#d0cde1"/>
    <circle id="Ellipse_36" data-name="Ellipse 36" cx="81.5" cy="81.5" r="81.5" transform="translate(1179 264)" fill="#1492e6"/>
    <ellipse id="Ellipse_37" data-name="Ellipse 37" cx="82" cy="81.5" rx="82" ry="81.5" transform="translate(1496 487)" fill="#1492e6"/>
    <ellipse id="Ellipse_38" data-name="Ellipse 38" cx="82.5" cy="81.5" rx="82.5" ry="81.5" transform="translate(1396 827)" fill="#1492e6"/>
    <ellipse id="Ellipse_39" data-name="Ellipse 39" cx="81.5" cy="82" rx="81.5" ry="82" transform="translate(1004 842)" fill="#1492e6"/>
    <circle id="Ellipse_40" data-name="Ellipse 40" cx="81.5" cy="81.5" r="81.5" transform="translate(885 487)" fill="#1492e6"/>
    <path id="Path_156" data-name="Path 156" d="M495.9,205.672H467.366a9.783,9.783,0,0,1-9.783-9.784V167.352a.815.815,0,0,0-.815-.815H438.016a13.045,13.045,0,0,0-13.045,13.045v65.224a13.045,13.045,0,0,0,13.045,13.045h45.656a13.045,13.045,0,0,0,13.045-13.045V206.486a.815.815,0,0,0-.815-.815ZM477.15,238.284H444.538a3.261,3.261,0,0,1,0-6.522H477.15a3.261,3.261,0,0,1,0,6.522Zm0-16.306H444.538a3.261,3.261,0,1,1,0-6.522H477.15a3.261,3.261,0,0,1,0,6.522Z" transform="translate(800.131 133.615)" fill="#fff"/>
    <path id="Path_157" data-name="Path 157" d="M477.461,197.4l-29.312-29.312a.408.408,0,0,0-.7.287V194.83a3.261,3.261,0,0,0,3.261,3.261h26.459a.408.408,0,0,0,.287-.7Z" transform="translate(816.782 134.674)" fill="#fff"/>
    <path id="Path_158" data-name="Path 158" d="M579.222,507.508a4.335,4.335,0,1,0,3.067,1.269A4.335,4.335,0,0,0,579.222,507.508Z" transform="translate(911.163 386.146)" fill="#fff"/>
    <path id="Path_159" data-name="Path 159" d="M622.032,498.8v-.015a3.314,3.314,0,0,0-2.458-2.485c-4.841-1.181-12.456.078-20.895,3.457A67.2,67.2,0,0,0,576.818,513.6a52.1,52.1,0,0,0-4.8,5.5,21.293,21.293,0,0,0-9.514,1.529c-9.379,4.128-12.058,14.691-12.771,19.028a4.061,4.061,0,0,0,4.417,4.711h.021l10.448-1.141c.013.133.028.255.039.367a5.58,5.58,0,0,0,1.608,3.366l5.1,5.1a5.566,5.566,0,0,0,3.364,1.61l.349.037-1.137,10.435v.021a4.061,4.061,0,0,0,3.622,4.457q.187.019.376.021a4.089,4.089,0,0,0,.674-.055c4.361-.7,14.92-3.348,19.036-12.778a21.48,21.48,0,0,0,1.535-9.477,51.145,51.145,0,0,0,5.515-4.8,66.717,66.717,0,0,0,13.858-21.689C621.917,511.494,623.182,503.821,622.032,498.8ZM604.641,527.2a9.547,9.547,0,1,1-.007-13.5l.007.007a9.47,9.47,0,0,1,.1,13.393Z" transform="translate(892.49 377.521)" fill="#fff"/>
    <path id="Path_160" data-name="Path 160" d="M569.675,532.428a2.6,2.6,0,0,0-1.787.434c-1.038.71-2.081,1.411-3.133,2.1a2.424,2.424,0,0,1-3.411-3.249l1.974-3.411a2.6,2.6,0,0,0-2.463-4.046,9.95,9.95,0,0,0-5.788,2.836c-.595.6-2.4,2.406-3.375,9.3a58.068,58.068,0,0,0-.523,5.973,2.6,2.6,0,0,0,2.532,2.665h.133a58.483,58.483,0,0,0,5.978-.52c6.9-.975,8.708-2.784,9.3-3.379a9.825,9.825,0,0,0,2.825-5.806,2.6,2.6,0,0,0-2.263-2.894Z" transform="translate(893.594 398.531)" fill="#fff"/>
    <path id="Path_161" data-name="Path 161" d="M332.819,565.439h-5.927a4.446,4.446,0,0,1-4.445-4.446V534.321a4.446,4.446,0,0,1,4.445-4.446h5.927a4.446,4.446,0,0,1,4.446,4.446v26.673A4.446,4.446,0,0,1,332.819,565.439Z" transform="translate(724.198 402.711)" fill="#fff"/>
    <path id="Path_162" data-name="Path 162" d="M356.656,573.006h-5.927a4.445,4.445,0,0,1-4.445-4.445V524.1a4.446,4.446,0,0,1,4.445-4.446h5.927A4.446,4.446,0,0,1,361.1,524.1V568.56A4.446,4.446,0,0,1,356.656,573.006Z" transform="translate(741.853 395.145)" fill="#fff"/>
    <path id="Path_163" data-name="Path 163" d="M368.574,581.832h-5.927a4.446,4.446,0,0,1-4.446-4.446v-65.2a4.446,4.446,0,0,1,4.446-4.445h5.927a4.446,4.446,0,0,1,4.446,4.446v65.2A4.445,4.445,0,0,1,368.574,581.832Z" transform="translate(750.679 386.318)" fill="#fff"/>
    <path id="Path_164" data-name="Path 164" d="M344.736,588.138H338.81a4.446,4.446,0,0,1-4.446-4.446v-80.02a4.446,4.446,0,0,1,4.446-4.445h5.927a4.446,4.446,0,0,1,4.445,4.445v80.02a4.446,4.446,0,0,1-4.446,4.446Z" transform="translate(733.025 380.013)" fill="#fff"/>
    <path id="Path_165" data-name="Path 165" d="M648.061,321.986l-4.235-4.236a5.19,5.19,0,0,0-7.321-.019L607.063,344.9a5.5,5.5,0,0,0-1.841,3.74,5.208,5.208,0,0,0,1.494,3.883l6.325,6.4.011.011a5.237,5.237,0,0,0,3.68,1.528h.191a5.446,5.446,0,0,0,3.758-1.812l27.362-29.307a5.19,5.19,0,0,0,.032-7.34Z" transform="translate(933.624 244.48)" fill="#fff"/>
    <path id="Path_166" data-name="Path 166" d="M671.082,325.521l-.05-.05-5.558-5.5A3.481,3.481,0,0,0,663,318.954a3.55,3.55,0,0,0-2.074.672c0-.07.01-.138.015-.2a5.929,5.929,0,0,0-.844-4.091,41.864,41.864,0,0,0-4.022-4.661l-.013-.013a43.9,43.9,0,0,0-14.065-9.073,22.634,22.634,0,0,0-8.609-1.695,16.407,16.407,0,0,0-10.5,3.678,19.453,19.453,0,0,0-2.3,2.631,2.6,2.6,0,0,0,3.025,3.948,12.083,12.083,0,0,1,1.392-.427,10.293,10.293,0,0,1,2.992-.186,12.581,12.581,0,0,1,5.788,2.123,8.336,8.336,0,0,1,2.962,6.664,17.3,17.3,0,0,1-3.244,5.592,2.6,2.6,0,0,0,.235,3.406l5.581,5.581a2.6,2.6,0,0,0,3.568.1c1.578-1.409,3.982-3.534,4.822-4.055a6.04,6.04,0,0,1,2.384-.941,3.111,3.111,0,0,1,1.831.386.2.2,0,0,1-.05.154l-.295.281-.049.045a3.49,3.49,0,0,0-.009,4.936l.018.017,5.557,5.5a3.479,3.479,0,0,0,2.478,1.014,3.519,3.519,0,0,0,2.469-1.005l9-8.891c.031-.031.062-.063.091-.1a3.547,3.547,0,0,0-.046-4.83Z" transform="translate(944.638 232.383)" fill="#fff"/>
    <path id="Path_167" data-name="Path 167" d="M285.424,329.023a3.247,3.247,0,0,1-2.3-5.543l7.445-7.446-7.445-7.446A3.247,3.247,0,1,1,287.72,304l9.742,9.742a3.247,3.247,0,0,1,0,4.592l-9.742,9.742A3.238,3.238,0,0,1,285.424,329.023Z" transform="translate(694.374 234.716)" fill="#fff"/>
    <path id="Path_168" data-name="Path 168" d="M255.575,334.619a3.247,3.247,0,0,1-3.247-3.247v-3.247A19.581,19.581,0,0,1,271.8,308.64h42.224a3.247,3.247,0,1,1,0,6.495H271.811a13.067,13.067,0,0,0-12.989,13v3.237a3.247,3.247,0,0,1-3.248,3.247Z" transform="translate(672.267 238.86)" fill="#fff"/>
    <path id="Path_169" data-name="Path 169" d="M274.645,349.544a3.237,3.237,0,0,1-2.3-.951l-9.742-9.742a3.247,3.247,0,0,1,0-4.592l9.742-9.742a3.247,3.247,0,0,1,4.592,4.592l-7.446,7.446L276.941,344a3.247,3.247,0,0,1-2.3,5.543Z" transform="translate(679.176 249.914)" fill="#fff"/>
    <path id="Path_170" data-name="Path 170" d="M266.768,343.947a3.247,3.247,0,0,1,0-6.495h42.215a13.067,13.067,0,0,0,12.989-13v-3.237a3.247,3.247,0,1,1,6.495,0v3.247a19.581,19.581,0,0,1-19.474,19.484Z" transform="translate(680.557 245.769)" fill="#fff"/>
  </g>
</svg>
