<svg xmlns="http://www.w3.org/2000/svg" width="122" height="122" viewBox="0 0 122 122">
  <g id="use_cases" transform="translate(-992 -1599)">
    <circle id="Ellipse_54" data-name="Ellipse 54" cx="61" cy="61" r="61" transform="translate(992 1599)" fill="#1492e6"/>
    <g id="hands-and-gestures_1_" data-name="hands-and-gestures (1)" transform="translate(1028.101 1632.844)">
      <path id="Path_251" data-name="Path 251" d="M42.83,0H6.21A6.218,6.218,0,0,0,0,6.21V45.828a3.216,3.216,0,0,0,3.212,3.212H17.275a1.071,1.071,0,1,0,0-2.142H3.212a1.072,1.072,0,0,1-1.071-1.071V6.21A4.074,4.074,0,0,1,6.21,2.142H38.144A6.184,6.184,0,0,0,36.62,6.21V40.718a1.792,1.792,0,0,1-3.491.567l-1.614-4.842A3.342,3.342,0,0,0,25,37.5v.834h-5.55a1.071,1.071,0,0,0,0,2.142H25V45.8a11.848,11.848,0,0,0,.916,4.582l1.575,3.781a1.071,1.071,0,1,0,1.977-.824L27.9,49.56a9.722,9.722,0,0,1-.752-3.758V37.5a1.2,1.2,0,0,1,2.339-.38L31.1,41.962a3.933,3.933,0,0,0,7.664-1.244V22.359l1.431,1.428a13.4,13.4,0,0,1,3.959,9.545V44.715a20.149,20.149,0,0,1-1.931,8.579,1.071,1.071,0,1,0,1.935.918,22.3,22.3,0,0,0,2.138-9.5V33.332a15.524,15.524,0,0,0-4.588-11.061l-2.944-2.938V18.31h7.067A3.216,3.216,0,0,0,49.041,15.1V6.21A6.217,6.217,0,0,0,42.83,0ZM46.9,15.1a1.072,1.072,0,0,1-1.071,1.071H38.761V6.21a4.069,4.069,0,0,1,8.138,0Zm0,0" fill="#fff"/>
      <path id="Path_252" data-name="Path 252" d="M196.071,438a1.071,1.071,0,1,0,.757.314A1.079,1.079,0,0,0,196.071,438Zm0,0" transform="translate(-174.12 -391.097)" fill="#fff"/>
      <path id="Path_253" data-name="Path 253" d="M62.662,56.142A2.144,2.144,0,0,0,60.521,54H55.81a2.144,2.144,0,0,0-2.142,2.142v4.711a2.144,2.144,0,0,0,2.142,2.142h4.711a2.144,2.144,0,0,0,2.142-2.142Zm-2.142,4.711H55.81V56.142h4.711v4.711Zm0,0" transform="translate(-47.921 -48.218)" fill="#fff"/>
      <path id="Path_254" data-name="Path 254" d="M62.662,176.142A2.144,2.144,0,0,0,60.521,174H55.81a2.144,2.144,0,0,0-2.142,2.142v4.711a2.144,2.144,0,0,0,2.142,2.142h4.711a2.144,2.144,0,0,0,2.142-2.142Zm-2.142,4.711H55.81v-4.711h4.711v4.711Zm0,0" transform="translate(-47.921 -155.369)" fill="#fff"/>
      <path id="Path_255" data-name="Path 255" d="M60.521,294H55.81a2.144,2.144,0,0,0-2.142,2.142v4.711a2.144,2.144,0,0,0,2.142,2.142h4.711a2.144,2.144,0,0,0,2.142-2.142v-4.711A2.144,2.144,0,0,0,60.521,294Zm0,6.852H55.81v-4.711h4.711v4.711Zm0,0" transform="translate(-47.921 -262.519)" fill="#fff"/>
      <path id="Path_256" data-name="Path 256" d="M225.847,120.142a1.071,1.071,0,0,0,0-2.142h-7.382a1.071,1.071,0,1,0,0,2.142Zm0,0" transform="translate(-194.117 -105.365)" fill="#fff"/>
      <path id="Path_257" data-name="Path 257" d="M172.739,120.142a1.071,1.071,0,1,0-.757-.314A1.079,1.079,0,0,0,172.739,120.142Zm0,0" transform="translate(-153.286 -105.365)" fill="#fff"/>
      <path id="Path_258" data-name="Path 258" d="M172.735,240.142h12.278a1.071,1.071,0,0,0,0-2.142H172.735a1.071,1.071,0,0,0,0,2.142Zm0,0" transform="translate(-153.283 -212.516)" fill="#fff"/>
    </g>
  </g>
</svg>
