<svg xmlns="http://www.w3.org/2000/svg" width="1076.817" height="623.827" viewBox="0 0 1076.817 623.827">
  <g id="user_centric_img" transform="translate(-614.343 -240.87)">
    <g id="undraw_Memory_storage_reh0" transform="translate(902.585 278.202)">
      <ellipse id="Ellipse_67" data-name="Ellipse 67" cx="208.248" cy="36.833" rx="208.248" ry="36.833" transform="translate(75.778 512.829)" fill="#3f3d56"/>
      <path id="Path_346" data-name="Path 346" d="M359.174,282.2c0-53.66,78.683-97.161,175.743-97.161S710.66,228.536,710.66,282.2" transform="translate(-248.7 -79.47)" fill="none" stroke="#3f3d56" stroke-miterlimit="10" stroke-width="2"/>
      <path id="Path_347" data-name="Path 347" d="M617.69,178.977H474.714Q432.3,107.488,474.714,36H617.69Q558.38,107.488,617.69,178.977Z" transform="translate(-276.214 -36)" fill="#e6e6e6"/>
      <rect id="Rectangle_103" data-name="Rectangle 103" width="80.566" height="10.213" transform="translate(218.925 17.021)" fill="#1492e6"/>
      <rect id="Rectangle_104" data-name="Rectangle 104" width="106.665" height="3.404" transform="translate(192.826 50.496)" fill="#fff"/>
      <rect id="Rectangle_105" data-name="Rectangle 105" width="106.665" height="3.404" transform="translate(192.826 68.084)" fill="#fff"/>
      <rect id="Rectangle_106" data-name="Rectangle 106" width="106.665" height="3.404" transform="translate(192.826 85.672)" fill="#fff"/>
      <path id="Path_348" data-name="Path 348" d="M765.887,684.659c0,45.344,28.447,82.036,63.6,82.036" transform="translate(-367.327 -225.196)" fill="#3f3d56"/>
      <path id="Path_349" data-name="Path 349" d="M855.678,766.317c0-45.854,31.745-82.958,70.975-82.958" transform="translate(-393.516 -224.817)" fill="#1492e6"/>
      <path id="Path_350" data-name="Path 350" d="M798.42,690.463c0,43.072,18.14,77.926,40.557,77.926" transform="translate(-376.816 -226.889)" fill="#1492e6"/>
      <path id="Path_351" data-name="Path 351" d="M855.678,756.828c0-58.591,36.692-106,82.037-106" transform="translate(-393.516 -215.328)" fill="#3f3d56"/>
      <path id="Path_352" data-name="Path 352" d="M836.788,799.286s9.02-.278,11.738-2.213,13.875-4.247,14.549-1.143,13.555,15.44,3.372,15.522-23.661-1.586-26.374-3.239S836.788,799.286,836.788,799.286Z" transform="translate(-388.007 -257.208)" fill="#a8a8a8"/>
      <path id="Path_353" data-name="Path 353" d="M866.628,812.374c-10.183.082-23.661-1.586-26.374-3.239-2.066-1.259-2.89-5.775-3.165-7.858l-.3.012s.571,7.275,3.284,8.927,16.191,3.321,26.374,3.239c2.939-.024,3.955-1.07,3.9-2.618C869.937,811.771,868.817,812.356,866.628,812.374Z" transform="translate(-388.007 -259.21)" opacity="0.2"/>
      <path id="Path_354" data-name="Path 354" d="M555.682,174.169a1.973,1.973,0,0,0,2.312-.955c1.859-2.929-1.563-6.7-.822-10.093.594-2.715,3.678-4.326,4.309-7.032.613-2.63-1.276-5.594,0-7.973,1-1.864,3.5-2.355,5.588-2.028s4.074,1.245,6.185,1.374c2.813.172,5.5-1.067,8.247-1.681s6.107-.373,7.726,1.934c2.078,2.963-.03,7.09.693,10.636.575,2.816,2.932,5.148,2.983,8.021.018,1.021-2.667.2-2.524,1.21s-1.126.121-.112,0a2.009,2.009,0,0,0,1.526-1.816c.121-.842,1.7-1.123,1.686-1.974-.043-1.994,3.563-.65,4.156-2.554a19.31,19.31,0,0,0-.789-13.47c-.809-1.814-1.91-3.531-2.3-5.478-.53-2.644.3-5.482-.57-8.034-1.177-3.438-5.073-5.191-8.689-5.547s-7.292.281-10.887-.244c-3.221-.47-6.34-1.866-9.589-1.664-3.9.243-7.291,2.755-9.994,5.575s-5,6.064-8.064,8.481a15.817,15.817,0,0,0-2.586,2.226c-1.563,1.905-1.722,4.619-1.287,7.045s1.381,4.74,1.781,7.171c.375,2.285.26,4.62.421,6.93a12.183,12.183,0,0,0,2.033,6.542,6.174,6.174,0,0,0,4.8,2.51c.651.015,1.2-.57,1.857-.417C554.6,173.056,554.954,173.835,555.682,174.169Z" transform="translate(-302.221 -62.479)" fill="#2f2e41"/>
      <path id="Path_355" data-name="Path 355" d="M318.546,394l2.411,14.813,4.823-6.546-2.756-9.99Z" transform="translate(-92.911 -114.416)" fill="#a0616a"/>
      <path id="Path_356" data-name="Path 356" d="M523.013,272.651l-3.8,10.006s-3.782,50.967-3.782,54.756,2.756,52.361,3.789,54.428c0,0,4.478-6.545,10.334-5.512S533,369.1,533,369.1l5.512-45.127-1.033-22.736Z" transform="translate(-294.277 -105.024)" fill="#575a89"/>
      <path id="Path_357" data-name="Path 357" d="M523.013,272.651l-3.8,10.006s-3.782,50.967-3.782,54.756,2.756,52.361,3.789,54.428c0,0,4.478-6.545,10.334-5.512S533,369.1,533,369.1l5.512-45.127-1.033-22.736Z" transform="translate(-294.277 -105.024)" opacity="0.1"/>
      <path id="Path_358" data-name="Path 358" d="M559.2,191.938s11.368,28.936,4.823,34.448,36.515-9.3,36.515-9.3l-1.033-3.789s-14.124-5.512-7.234-21.358S559.2,191.938,559.2,191.938Z" transform="translate(-307.043 -79.429)" fill="#a0616a"/>
      <path id="Path_359" data-name="Path 359" d="M559.2,191.938s11.368,28.936,4.823,34.448,36.515-9.3,36.515-9.3l-1.033-3.789s-14.124-5.512-7.234-21.358S559.2,191.938,559.2,191.938Z" transform="translate(-307.043 -79.429)" opacity="0.1"/>
      <path id="Path_360" data-name="Path 360" d="M515.976,740.384s-4.823-1.378-7.579,2.067-13.09,12.057-13.09,12.057-19.98-2.067-22.735,7.923,31.348,9.99,39.615,7.579,9.99,0,9.99,0,25.491,2.067,25.491-2.067-2.411-18.257-2.411-18.257Z" transform="translate(-281.729 -241.37)" fill="#575a89"/>
      <path id="Path_361" data-name="Path 361" d="M642.991,772.828l-4.478,13.779s-13.435,18.6-5.856,22.392,34.448,7.579,34.448-2.411V787.64s-2.756-13.435-5.512-14.812S642.991,772.828,642.991,772.828Z" transform="translate(-327.791 -250.734)" fill="#575a89"/>
      <path id="Path_362" data-name="Path 362" d="M534.961,417.3s-14.524,12.619-14.179,14.341,7.233,112.3,7.233,112.3l3.79,71.652s-4.823,16.879-2.411,20.669-3.445,4.823-3.445,4.823,24.8,22.391,35.137,12.746l9.645-125.045,26.525,90.942s4.478,48.227,9.645,48.227,26.18,1.033,25.836-1.722,1.033-23.769-1.378-36.17-18.6-110.578-18.6-110.578-1.392-84.165,2.232-92.032-1.888-16.134-1.888-16.134l-24.113-9.3-28.936,3.445Z" transform="translate(-295.835 -142.756)" fill="#2f2e41"/>
      <circle id="Ellipse_68" data-name="Ellipse 68" cx="24.113" cy="24.113" r="24.113" transform="translate(244.237 75.995)" fill="#a0616a"/>
      <path id="Path_363" data-name="Path 363" d="M622.735,242.255a21.63,21.63,0,0,0-15.157-13.779,133.611,133.611,0,0,1-20.324-6.89S562.8,233.3,557.974,233.3s-4.823-3.1-4.823-3.1-12.4,13.09-18.946,14.468-16.19,17.568-12.746,26.525a49.982,49.982,0,0,0,9.99,15.5s-1.378,48.227,3.1,57.183c0,0-11.023,21.013-.689,22.391s49.949-3.445,56.839,1.378,19.635-1.033,21.358,5.512,5.512,7.923,5.512,7.923,5.856-9.3,2.411-14.813S622.735,242.255,622.735,242.255Z" transform="translate(-295.823 -90.13)" fill="#575a89"/>
      <path id="Path_364" data-name="Path 364" d="M626.479,433.625l-5.512,3.445s5.856,20.324,8.268,21.013,8.087-17.379,8.087-17.379Z" transform="translate(-325.058 -151.976)" fill="#a0616a"/>
      <path id="Path_365" data-name="Path 365" d="M549.846,170.764a1.973,1.973,0,0,0,2.312-.955c1.859-2.929-1.563-6.7-.822-10.093.594-2.715,3.678-4.326,4.309-7.032.613-2.63-1.276-5.594,0-7.973,1-1.864,3.5-2.355,5.588-2.028s4.074,1.245,6.185,1.374c2.814.172,5.5-1.067,8.247-1.681s6.107-.373,7.725,1.934c2.078,2.963-.03,7.09.694,10.636.575,2.816,7.121,4.793,7.715,2.888a19.31,19.31,0,0,0-.789-13.47c-.809-1.814-1.91-3.531-2.3-5.478-.53-2.644.3-5.482-.57-8.034-1.177-3.438-5.073-5.191-8.689-5.547s-7.292.281-10.888-.244c-3.221-.47-6.34-1.866-9.589-1.664-3.9.243-7.291,2.755-9.994,5.575s-4.995,6.064-8.064,8.481a15.806,15.806,0,0,0-2.586,2.226c-1.563,1.905-1.722,4.619-1.287,7.045s1.381,4.74,1.781,7.171c.375,2.285.26,4.62.421,6.93a12.182,12.182,0,0,0,2.033,6.542,6.174,6.174,0,0,0,4.8,2.51c.65.015,1.2-.57,1.857-.417C548.761,169.652,549.118,170.431,549.846,170.764Z" transform="translate(-300.519 -61.486)" fill="#2f2e41"/>
      <path id="Path_366" data-name="Path 366" d="M638.159,256.795l11.2-6.028s27.214,64.762,20.669,82.675-31.692,54.772-31.692,54.772-19.98-4.134-17.913-8.267,15.5-30.659,16.535-34.1,7.923-25.836,4.823-28.247-9.129-58.389-9.129-58.389Z" transform="translate(-324.854 -98.641)" opacity="0.1"/>
      <path id="Path_367" data-name="Path 367" d="M638.98,245.416l13.779,3.789s27.214,64.762,20.669,82.675-31.692,54.772-31.692,54.772-19.98-4.134-17.913-8.267,15.5-30.659,16.535-34.1,7.923-25.836,4.823-28.247-17.913-62.006-17.913-62.006Z" transform="translate(-325.847 -97.081)" fill="#575a89"/>
      <path id="Path_368" data-name="Path 368" d="M710.66,322.2c0,56.259-78.683,101.866-175.743,101.866S359.174,378.464,359.174,322.2" transform="translate(-248.7 -119.478)" fill="none" stroke="#3f3d56" stroke-miterlimit="10" stroke-width="2"/>
      <path id="Path_369" data-name="Path 369" d="M691.547,468.058c-39.283,21.187-90.541,34.008-146.611,34.008-53.76,0-103.1-11.786-141.694-31.431" transform="translate(-261.554 -162.019)" fill="none" stroke="#3f3d56" stroke-miterlimit="10" stroke-width="2"/>
      <path id="Path_370" data-name="Path 370" d="M731.188,147.906c74.76,19.65,128,62.872,132.955,113.779" transform="translate(-357.206 -68.64)" fill="none" stroke="#3f3d56" stroke-miterlimit="10" stroke-width="2"/>
      <path id="Path_371" data-name="Path 371" d="M302.373,237.454c12.6-23.152,35.608-43.527,65.759-59.18" transform="translate(-232.133 -77.497)" fill="none" stroke="#3f3d56" stroke-miterlimit="10" stroke-width="2"/>
      <path id="Path_372" data-name="Path 372" d="M520.568,552.833H663.545q42.418-71.488,0-142.977H520.568Q579.878,481.344,520.568,552.833Z" transform="translate(-295.774 -145.043)" fill="#f2f2f2"/>
      <rect id="Rectangle_107" data-name="Rectangle 107" width="80.566" height="10.213" transform="translate(272.102 292.046)" fill="#1492e6"/>
      <rect id="Rectangle_108" data-name="Rectangle 108" width="106.665" height="3.404" transform="translate(265.861 322.684)" fill="#fff"/>
      <rect id="Rectangle_109" data-name="Rectangle 109" width="106.665" height="3.404" transform="translate(265.861 340.272)" fill="#fff"/>
      <path id="Path_373" data-name="Path 373" d="M367.4,415.826H224.419q-42.418-71.488,0-142.977H367.4Q308.085,344.337,367.4,415.826Z" transform="translate(-203.21 -105.082)" fill="#f2f2f2"/>
      <rect id="Rectangle_110" data-name="Rectangle 110" width="80.566" height="10.213" transform="translate(37.096 184.788)" fill="#1492e6"/>
      <rect id="Rectangle_111" data-name="Rectangle 111" width="106.665" height="3.404" transform="translate(19.507 213.156)" fill="#fff"/>
      <rect id="Rectangle_112" data-name="Rectangle 112" width="106.665" height="3.404" transform="translate(19.507 230.744)" fill="#fff"/>
      <rect id="Rectangle_113" data-name="Rectangle 113" width="106.665" height="3.404" transform="translate(19.507 248.333)" fill="#fff"/>
      <rect id="Rectangle_114" data-name="Rectangle 114" width="106.665" height="3.404" transform="translate(19.507 265.921)" fill="#fff"/>
      <path id="Path_374" data-name="Path 374" d="M765,322.846H907.974q42.418-71.488,0-142.977H765Q824.307,251.358,765,322.846Z" transform="translate(-367.067 -77.963)" fill="#f2f2f2"/>
      <rect id="Rectangle_115" data-name="Rectangle 115" width="80.566" height="10.213" transform="translate(443.535 116.091)" fill="#1492e6"/>
      <rect id="Rectangle_116" data-name="Rectangle 116" width="106.665" height="3.404" transform="translate(435.025 144.459)" fill="#fff"/>
      <rect id="Rectangle_117" data-name="Rectangle 117" width="106.665" height="3.404" transform="translate(440.28 165.85)" fill="#fff"/>
    </g>
    <g id="Group_96" data-name="Group 96" transform="translate(1196.771 240.87)">
      <text id="Delivering_to_users_for_actions_" data-name="Delivering to users for actions
" transform="translate(164.973)" font-size="22" font-family="Nunito-SemiBold, Nunito" font-weight="600"><tspan x="0" y="22">Delivering to </tspan><tspan x="0" y="52">users for actions</tspan></text>
      <g id="Group_89" data-name="Group 89" transform="translate(0 14.146)">
        <line id="Line_7" data-name="Line 7" y1="34.484" x2="49.617" transform="translate(24.072)" fill="none" stroke="#3f3d56" stroke-width="2"/>
        <line id="Line_8" data-name="Line 8" x2="83.03" transform="translate(73.067 0.311)" fill="none" stroke="#3f3d56" stroke-width="2"/>
      </g>
    </g>
    <g id="Group_95" data-name="Group 95" transform="translate(563.343 407.802)">
      <text id="Defining_the_Business_Problem_" data-name="Defining the Business Problem
" transform="translate(51)" font-size="22" font-family="Nunito-SemiBold, Nunito" font-weight="600"><tspan x="57.721" y="22">Defining the </tspan><tspan x="2.215" y="52">Business Problem</tspan></text>
      <g id="Group_92" data-name="Group 92" transform="translate(244.064 15.184)">
        <line id="Line_7-2" data-name="Line 7" x1="44.028" y1="35.514" transform="translate(82.408)" fill="none" stroke="#3f3d56" stroke-width="2"/>
        <line id="Line_8-2" data-name="Line 8" x1="83.03" transform="translate(0 0.311)" fill="none" stroke="#3f3d56" stroke-width="2"/>
      </g>
    </g>
    <g id="Group_97" data-name="Group 97" transform="translate(1412.839 344.815)">
      <text id="Generating_Insights_" data-name="Generating Insights
" transform="translate(166.321 0)" font-size="22" font-family="Nunito-SemiBold, Nunito" font-weight="600"><tspan x="0" y="22">Generating </tspan><tspan x="0" y="52">Insights</tspan></text>
      <g id="Group_90" data-name="Group 90" transform="translate(0 15.33)">
        <line id="Line_7-3" data-name="Line 7" y1="34.355" x2="52.685" transform="translate(21.004)" fill="none" stroke="#3f3d56" stroke-width="2"/>
        <line id="Line_8-3" data-name="Line 8" x2="83.03" transform="translate(73.067 0.311)" fill="none" stroke="#3f3d56" stroke-width="2"/>
      </g>
    </g>
    <g id="Group_98" data-name="Group 98" transform="translate(1276.74 644.054)">
      <text id="Acquiring_and_Prepping_Data_" data-name="Acquiring and Prepping Data
" transform="translate(236.089 11.654)" font-size="22" font-family="Nunito-SemiBold, Nunito" font-weight="600"><tspan x="0" y="22">Acquiring and </tspan><tspan x="0" y="52">Prepping Data</tspan></text>
      <g id="Group_91" data-name="Group 91">
        <line id="Line_7-4" data-name="Line 7" x2="26.985" y2="26.985" transform="translate(0 0)" fill="none" stroke="#3f3d56" stroke-width="2"/>
        <line id="Line_8-4" data-name="Line 8" x2="199.895" transform="translate(26.362 26.673)" fill="none" stroke="#3f3d56" stroke-width="2"/>
      </g>
    </g>
  </g>
</svg>
