<svg xmlns="http://www.w3.org/2000/svg" xmlns:xlink="http://www.w3.org/1999/xlink" width="1020.5" height="450.772" viewBox="0 0 1020.5 450.772">
  <defs>
    <linearGradient id="linear-gradient" x1="0.5" y1="1" x2="0.5" y2="-0.001" gradientUnits="objectBoundingBox">
      <stop offset="0" stop-color="gray" stop-opacity="0.251"/>
      <stop offset="0.54" stop-color="gray" stop-opacity="0.122"/>
      <stop offset="1" stop-color="gray" stop-opacity="0.102"/>
    </linearGradient>
    <linearGradient id="linear-gradient-2" x1="-1.948" y1="1.001" x2="-1.948" y2="0" xlink:href="#linear-gradient"/>
    <linearGradient id="linear-gradient-3" x1="2.68" y1="0.777" x2="2.68" y2="-0.153" xlink:href="#linear-gradient"/>
  </defs>
  <g id="working" transform="translate(-210.433 -648.044)">
    <path id="Path_105" data-name="Path 105" d="M827.074,728" transform="translate(116.715 -35.059)" fill="none" stroke="#707070" stroke-width="1"/>
    <path id="Path_17" data-name="Path 17" d="M931.362,701.384a2.151,2.151,0,0,0-1.143-1.692,2.195,2.195,0,0,0-2.915,1.223l-10.528,22.141-2.366,87.159h3.8l1.417-86.965,11.568-20.5a2.193,2.193,0,0,0,.172-1.371Z" transform="translate(139.544 253.541)" fill="#3f3d56"/>
    <path id="Path_18" data-name="Path 18" d="M1090.018,848.2a1.706,1.706,0,0,1-.183.217,3.056,3.056,0,0,1-1.3.652h0a12.743,12.743,0,0,1-2.937.491h-.3a12.167,12.167,0,0,1-1.7,0,8.931,8.931,0,0,0-1.246-.08h0a8.7,8.7,0,0,0-1.772.434,15.187,15.187,0,0,1-3.932.56h-5.693c-2.561,0-5.1.48-7.659.515h-.823a12.094,12.094,0,0,1-7.064-2.115,2.675,2.675,0,0,1-.926-1.063,3.063,3.063,0,0,1-.171-1.406,3.315,3.315,0,0,1,.857-2.355,3.677,3.677,0,0,1,1.36-.663l2.606-.823,2.789-.834.183-.057.526-.149.332-.114a5.416,5.416,0,0,0,1.143-.537,3.844,3.844,0,0,0,1.143-1.143c0-.091.115-.183.16-.274v-.217c-.08-.594-.148-1.143-.251-1.783a7.029,7.029,0,0,1-3.5-1.978,11.283,11.283,0,0,1-2.046-2.755,58.135,58.135,0,0,1-2.663-7.053,63.554,63.554,0,0,0-5.292-10.162c-1.818-3.029-3.635-6.058-5.716-8.916-1.371-1.886-2.846-3.7-4.206-5.6a49.5,49.5,0,0,1-8.082-17.672,24.538,24.538,0,0,0-.983-3.589c-.812-1.989-2.286-3.6-3.429-5.43a17.81,17.81,0,0,1-2.5-6.424c-.24-1.3-.64-2.7-1.932-2.835h0l-.137.274c-2.675,5.224-5.429,10.516-9.476,14.768a15.844,15.844,0,0,0-1.772,2.035,20.688,20.688,0,0,0-1.143,2.183,14.407,14.407,0,0,1-2.515,3.681,8.52,8.52,0,0,1-.994.846,5.572,5.572,0,0,1-1.566.777h0a4.471,4.471,0,0,1-.674.16.8.8,0,0,1,0,.16v.183a22.36,22.36,0,0,1-.869,11.339,1.156,1.156,0,0,1-.114.331c-.195.537-.412,1.052-.64,1.566-.583,1.257-1.269,2.458-1.806,3.738-.092.217-.183.434-.263.652-1.909,5.075-1.44,10.733-1.669,16.186a17.559,17.559,0,0,1-.423,3.543c-.32,1.314-.835,2.675-1.143,4.023a6.873,6.873,0,0,0,0,3.109h-.114c-.514.194-1.029.366-1.543.526v.069c.195,1.063.366,2.126.549,3.178a4.69,4.69,0,0,0,.983,2.537,4.745,4.745,0,0,1,.457.5c.377.583,0,1.36.115,2.057.1.983,1.018,1.818.869,2.8a1.829,1.829,0,0,1-1.143,1.315,3.212,3.212,0,0,1-.731.24h-.149l-.857.1a39.661,39.661,0,0,1-10.6.1c-.7-.114-1.383-.274-2.08-.331a14.676,14.676,0,0,0-2.652.114,130.867,130.867,0,0,1-19.512.377c-1.692-.091-3.635-.366-4.573-1.818a5.339,5.339,0,0,1-.091-4.115,4.261,4.261,0,0,1,.572-1.44,1.065,1.065,0,0,1,.1-.137c.869-1.074,2.515-1.143,3.921-1.143l4.572.137a4.105,4.105,0,0,0,1.349-.114,14.125,14.125,0,0,0,2.023-1.143c.88-.423,1.989-.457,2.618-1.143l.08-.1a3.62,3.62,0,0,0,.32-.492l.069-.091h0a.441.441,0,0,0,0-.092c.583-.766,1.612-1.017,2.435-1.509a1.639,1.639,0,0,0,.354-.251l.092-.08a9.83,9.83,0,0,1-2.286-2.286,2.443,2.443,0,0,1-.526-.914,1.381,1.381,0,0,1,.057-.777,1.153,1.153,0,0,1,.08-.172c.321-.64.983-1.212,1.349-1.863v-.057a2.937,2.937,0,0,0-.148-3.189c.377-6.23,2.092-12.323,2.48-18.564.149-2.481.08-4.972.194-7.453s.389-4.9.663-7.339c.629-5.578,2.137-11.042,1.932-16.643a10.286,10.286,0,0,1,0-1.566v-.1a9.378,9.378,0,0,1,1.063-3.28,25.347,25.347,0,0,1,2.286-3.281c2.915-3.783,6.413-7.567,7.453-12.242a26.425,26.425,0,0,1,2.9-6.778,11.9,11.9,0,0,1,2.526-3.555,10.725,10.725,0,0,0,1.68-1.44c.777-1.006.8-2.389,1.257-3.589a16.652,16.652,0,0,0,.789-1.829,1.079,1.079,0,0,1,0-.195,12.393,12.393,0,0,0,.16-1.955v-.549h0a19.849,19.849,0,0,1,1.624-5.418l.286-.652a20.18,20.18,0,0,1-5.716-4.938,11.255,11.255,0,0,1-1.372-2.08,25.146,25.146,0,0,1-1.658-6.264c-1.143-5.064-3.623-9.83-3.967-15a16.939,16.939,0,0,0-.549-4.7,9.986,9.986,0,0,0-.537-1.143c-.092-.16-.171-.32-.251-.48a.909.909,0,0,1-.091-.183l-.251-.469-.389.3a284.014,284.014,0,0,1-30.417,20.793l-.914.537a3.344,3.344,0,0,0-1.143.983l-.1.183h0c-.217.446-.274.96-.457,1.429a3.864,3.864,0,0,1-2.641,2.1,8.152,8.152,0,0,1-5.99-.777c-.229-.115-.457-.24-.675-.377a7.589,7.589,0,0,1-.754.366,7.4,7.4,0,0,1-.994.377,20.826,20.826,0,0,1-5.841.526,17.754,17.754,0,0,0-5.818.64,14.655,14.655,0,0,1-3.738,1.143h-.446a6.724,6.724,0,0,1-2.115-.629l-.389-.172c-.194-.1-.389-.194-.583-.32a3.1,3.1,0,0,1-.572-.446,2.093,2.093,0,0,1-.537-.9,1.536,1.536,0,0,1,0-.755.448.448,0,0,1,.16-.286.468.468,0,0,1,.274-.068,8.592,8.592,0,0,1,1.623.137,5.3,5.3,0,0,0,.949,0h.172a2.023,2.023,0,0,0,1.44-.8.754.754,0,0,0,.126-.229h0a.991.991,0,0,0,.091-.423.323.323,0,0,0,0-.1c-.194-.091-.4-.183-.583-.286l-.286-.171h-.057a2.8,2.8,0,0,1-.491-.4,1.526,1.526,0,0,1-.24-.3,1.791,1.791,0,0,1-.286-.572h0a2.714,2.714,0,0,0-1.143,0c-.514.137-1.04.446-1.554.549a1.293,1.293,0,0,1-.777,0c-.743-.263-.995-1.143-1.143-1.932a.843.843,0,0,0-.092-.457h0a2.6,2.6,0,0,1,0-.891,3.247,3.247,0,0,1,1.246-1.623l1.554-1.3.114-.092q-.044-.193-.068-.388a2.283,2.283,0,0,1,0-.88,3.27,3.27,0,0,1,1.246-1.623l3.429-2.892a4.023,4.023,0,0,1,2.183-1.143c1.246-.08,2.286.949,3.178,1.772a7.029,7.029,0,0,0,4.161,2,6.026,6.026,0,0,0,2.206-.3l.4-.137c-.08-.172-.171-.343-.252-.526s-.274-.583-.4-.869a9.473,9.473,0,0,0,5.372-2.572c1.532-1.326,2.846-2.892,4.389-4.2s3.578-2.48,5.27-3.841c3.932-3.189,6.55-7.876,10.756-10.688,1.452-.983,3.143-1.76,4.138-3.223.309-.446.537-.96.858-1.406,1.006-1.417,2.732-2.069,4.161-3.052a20.578,20.578,0,0,0,3.829-3.818c.823-.994,1.658-1.989,2.435-3.006.732-1.349,1.337-2.755,2.1-4.092a20.334,20.334,0,0,1,2.286-3.166c.194-.377.389-.755.606-1.143s.366-.629.56-.926.286-.423.435-.629c-.435-.766-.846-1.429-1.04-1.7l-.092-.137a14.767,14.767,0,0,0-1.338-1.246q-.754-.126-1.474-.309a13.82,13.82,0,0,1-10.162-13.351h0a13.715,13.715,0,0,1,1.509-6.241c.194-.389.411-.754.64-1.143a6.07,6.07,0,0,1-.628-.263,2.418,2.418,0,0,1-.88-.72,2.1,2.1,0,0,1-.366-.926,4.655,4.655,0,0,1,.343-2.286,10.2,10.2,0,0,1,.434-1.029v-.057a13.19,13.19,0,0,1,11.145-7.064c4.869-.195,9.6,2.08,13.442,5.349a18.1,18.1,0,0,1,3.281,3.052,19.434,19.434,0,0,1,3.166,9.876,15.008,15.008,0,0,1,0,3.281,7.751,7.751,0,0,1-.229,1.143c-.069.229-.148.446-.229.663a4.593,4.593,0,0,1-.217.48h0a3.4,3.4,0,0,1-.24.446v.057l-.069.1.126.274a2.475,2.475,0,0,0,.126.251h0c.96.08,1.829.206,2.789.286a5.934,5.934,0,0,1,1.349.206,9.213,9.213,0,0,1,2.458,1.532c1.977,1.395,4.4,2.046,6.333,3.486,2.869,2.126,4.286,5.624,5.99,8.767,2.286,4.207,5.978,7.785,7.613,12.288l2.229,6.115a93.88,93.88,0,0,0,4.881,11.774c2.743,5.247,6.47,9.968,8.676,15.455a2.435,2.435,0,0,0,1.144,1.28,100.2,100.2,0,0,1,8,13.351,25.8,25.8,0,0,1,2.721,7.739,18.388,18.388,0,0,1-.594,7.224,33.329,33.329,0,0,1-1.383,4.1,6.834,6.834,0,0,0-.469,1.463.731.731,0,0,0,0,.16,13.836,13.836,0,0,0,.343,2.721,5.013,5.013,0,0,1-.24,2.172.948.948,0,0,1-.126.32,12.581,12.581,0,0,0-.743,1.726v.217a8.6,8.6,0,0,0,.48,3.1,41.062,41.062,0,0,1,.469,11.362c-.115,1.886,1.417,3.429,2.7,4.812a50.971,50.971,0,0,1,6,8.733,27.66,27.66,0,0,1,2.458,4.9,43.269,43.269,0,0,1,1.315,6.035c1.212,6.253,5.156,11.774,6.229,18.049a16.189,16.189,0,0,0,3.658,7.761,15.894,15.894,0,0,1,1.577,1.909,7.709,7.709,0,0,1,.789,1.7,12.575,12.575,0,0,1,.64,4.321,6.877,6.877,0,0,0,.125,2.1c.446,1.452,2.035,2.286,2.7,3.623s.195,3.121.446,4.675a5.12,5.12,0,0,0,1.874,3.155c-.377.332-.777.64-1.143.937a4.679,4.679,0,0,1,.983,1.029,3.989,3.989,0,0,1,.446.846c.629,1.452.652,3.178,1.143,4.71a3.356,3.356,0,0,1,.332,1.978,2.214,2.214,0,0,0-.16.583c0,.435.446.709.617,1.143A1.143,1.143,0,0,1,1090.018,848.2Z" transform="translate(140.643 242.485)" fill="url(#linear-gradient)"/>
    <path id="Path_19" data-name="Path 19" d="M981.924,660.861a29.923,29.923,0,0,0,8-4.035l8.813-5.612a7.681,7.681,0,0,1-5.715-3.955,20.243,20.243,0,0,1-2.149-6.858,35.826,35.826,0,0,0-10.127,6.63c-1.223,1.052-3.8,2.629-4.172,4.263s2.012,2.961,2.938,4.058C979.867,655.751,982.862,660.61,981.924,660.861Z" transform="translate(148.432 245.084)" fill="#fbbebe"/>
    <path id="Path_20" data-name="Path 20" d="M981.924,660.861a29.923,29.923,0,0,0,8-4.035l8.813-5.612a7.681,7.681,0,0,1-5.715-3.955,20.243,20.243,0,0,1-2.149-6.858,35.826,35.826,0,0,0-10.127,6.63c-1.223,1.052-3.8,2.629-4.172,4.263s2.012,2.961,2.938,4.058C979.867,655.751,982.862,660.61,981.924,660.861Z" transform="translate(148.432 245.084)" opacity="0.1"/>
    <path id="Path_21" data-name="Path 21" d="M941.5,699.153a9.738,9.738,0,0,1-4.949,1.5,7.223,7.223,0,0,1-4.161-1.989c-.926-.823-1.92-1.852-3.166-1.76a4.08,4.08,0,0,0-2.184,1.143l-3.429,2.88a2.389,2.389,0,0,0-1.143,2.938c.16.766.411,1.669,1.143,1.932s1.543-.309,2.286-.514a2.732,2.732,0,0,1,2.686.789,1.611,1.611,0,0,1,.457,1.029c0,.857-.96,1.417-1.817,1.463s-1.715-.24-2.572-.183a.47.47,0,0,0-.274.069.458.458,0,0,0-.16.275,1.8,1.8,0,0,0,.549,1.657,4.791,4.791,0,0,0,1.543.926,6.274,6.274,0,0,0,2.115.629c1.452.091,2.79-.72,4.173-1.143a18.3,18.3,0,0,1,5.807-.64,20.294,20.294,0,0,0,5.83-.514,6.6,6.6,0,0,0,4.412-3.578.928.928,0,0,0,.08-.549.939.939,0,0,0-.4-.469c-2.641-1.955-3.715-4.332-6.687-5.715Z" transform="translate(140.676 253.167)" fill="#fbbebe"/>
    <path id="Path_22" data-name="Path 22" d="M941.5,699.153a9.738,9.738,0,0,1-4.949,1.5,7.223,7.223,0,0,1-4.161-1.989c-.926-.823-1.92-1.852-3.166-1.76a4.08,4.08,0,0,0-2.184,1.143l-3.429,2.88a2.389,2.389,0,0,0-1.143,2.938c.16.766.411,1.669,1.143,1.932s1.543-.309,2.286-.514a2.732,2.732,0,0,1,2.686.789,1.611,1.611,0,0,1,.457,1.029c0,.857-.96,1.417-1.817,1.463s-1.715-.24-2.572-.183a.47.47,0,0,0-.274.069.458.458,0,0,0-.16.275,1.8,1.8,0,0,0,.549,1.657,4.791,4.791,0,0,0,1.543.926,6.274,6.274,0,0,0,2.115.629c1.452.091,2.79-.72,4.173-1.143a18.3,18.3,0,0,1,5.807-.64,20.294,20.294,0,0,0,5.83-.514,6.6,6.6,0,0,0,4.412-3.578.928.928,0,0,0,.08-.549.939.939,0,0,0-.4-.469c-2.641-1.955-3.715-4.332-6.687-5.715Z" transform="translate(140.676 253.167)" opacity="0.1"/>
    <path id="Path_23" data-name="Path 23" d="M994.948,654.786a5.714,5.714,0,0,0-5.007-.606,10.785,10.785,0,0,0-4.321,2.88,19.7,19.7,0,0,0-3.04,4.024c-.812,1.406-1.44,2.9-2.229,4.321a45.077,45.077,0,0,1-5.144,6.984,20.068,20.068,0,0,1-3.829,3.795c-1.417.983-3.143,1.635-4.15,3.041-.32.446-.549.949-.869,1.406-.983,1.44-2.663,2.218-4.126,3.189-4.207,2.8-6.858,7.453-10.733,10.619-1.692,1.36-3.6,2.435-5.27,3.829s-2.858,2.846-4.378,4.161a9.374,9.374,0,0,1-5.372,2.549,27.44,27.44,0,0,0,5.258,8.276c2.286,2.286,5.715,3.829,8.916,2.915a3.876,3.876,0,0,0,2.641-2.092,8.616,8.616,0,0,1,.548-1.611,3.425,3.425,0,0,1,1.2-.971A282.6,282.6,0,0,0,991.1,686.506c3.052-2.48,6.07-4.7,9.145-7.087a20.042,20.042,0,0,0,3.1-2.709,10.288,10.288,0,0,0,1.246-11.339,27.146,27.146,0,0,0-2.869-3.9,34.392,34.392,0,0,0-6.767-6.687Z" transform="translate(142.701 247.009)" fill="#6c63ff"/>
    <path id="Path_24" data-name="Path 24" d="M994.948,654.786a5.714,5.714,0,0,0-5.007-.606,10.785,10.785,0,0,0-4.321,2.88,19.7,19.7,0,0,0-3.04,4.024c-.812,1.406-1.44,2.9-2.229,4.321a45.077,45.077,0,0,1-5.144,6.984,20.068,20.068,0,0,1-3.829,3.795c-1.417.983-3.143,1.635-4.15,3.041-.32.446-.549.949-.869,1.406-.983,1.44-2.663,2.218-4.126,3.189-4.207,2.8-6.858,7.453-10.733,10.619-1.692,1.36-3.6,2.435-5.27,3.829s-2.858,2.846-4.378,4.161a9.374,9.374,0,0,1-5.372,2.549,27.44,27.44,0,0,0,5.258,8.276c2.286,2.286,5.715,3.829,8.916,2.915a3.876,3.876,0,0,0,2.641-2.092,8.616,8.616,0,0,1,.548-1.611,3.425,3.425,0,0,1,1.2-.971A282.6,282.6,0,0,0,991.1,686.506c3.052-2.48,6.07-4.7,9.145-7.087a20.042,20.042,0,0,0,3.1-2.709,10.288,10.288,0,0,0,1.246-11.339,27.146,27.146,0,0,0-2.869-3.9,34.392,34.392,0,0,0-6.767-6.687Z" transform="translate(142.701 247.009)" fill="#1492e6" opacity="0.1"/>
    <path id="Path_25" data-name="Path 25" d="M972.134,808.794a7.606,7.606,0,0,0-2.423,1.509c-.195.24-.32.537-.526.766-.628.743-1.749.777-2.618,1.2a15.47,15.47,0,0,1-2.023,1.143,4.486,4.486,0,0,1-1.36.1l-4.572-.137c-1.463,0-3.178,0-4.024,1.223a4.266,4.266,0,0,0-.572,1.44,5.277,5.277,0,0,0,.091,4.092c.892,1.429,2.835,1.7,4.573,1.795a129.1,129.1,0,0,0,19.432-.377,15.671,15.671,0,0,1,2.64-.1,20.793,20.793,0,0,1,2.081.332,40.015,40.015,0,0,0,10.585-.1,5.39,5.39,0,0,0,1.749-.377,1.805,1.805,0,0,0,1.143-1.3c.149-.983-.766-1.806-.868-2.789-.069-.7.263-1.463-.115-2.046a3.093,3.093,0,0,0-.458-.491,4.678,4.678,0,0,1-.971-2.526l-.857-4.893a1.451,1.451,0,0,0-.389-.914,1.357,1.357,0,0,0-.594-.24c-3.6-.823-7.3-.069-10.905.388a30.361,30.361,0,0,1-5.578.274c-.8,0-1.143-.149-1.714.377A11.418,11.418,0,0,1,972.134,808.794Z" transform="translate(145.158 268.738)" fill="#3f3d56"/>
    <path id="Path_26" data-name="Path 26" d="M1047.31,814.237a7.53,7.53,0,0,1-2.023.789q-2.789.823-5.567,1.7a3.675,3.675,0,0,0-1.36.663,3.269,3.269,0,0,0-.858,2.343,3.035,3.035,0,0,0,.172,1.395,2.727,2.727,0,0,0,.926,1.051,12.4,12.4,0,0,0,7.555,2.1c2.663,0,5.3-.446,8-.514,3.224-.092,6.527.366,9.614-.537a9.315,9.315,0,0,1,1.829-.446,9.172,9.172,0,0,1,1.246.08,13.015,13.015,0,0,0,4.927-.446,3.025,3.025,0,0,0,1.315-.652,1.246,1.246,0,0,0,.354-1.337c-.172-.377-.606-.663-.617-1.143a2.224,2.224,0,0,1,.16-.583,3.32,3.32,0,0,0-.332-1.966c-.617-1.829-.514-3.932-1.611-5.521a7.019,7.019,0,0,0-5.007-2.492,13.958,13.958,0,0,0-4.675.137c-1.726.366-3.338,1.143-5.041,1.635a16.682,16.682,0,0,1-6.058.572c-1.36-.115-.892.1-1.349,1.235A3.994,3.994,0,0,1,1047.31,814.237Z" transform="translate(157.153 269.148)" fill="#3f3d56"/>
    <circle id="Ellipse_18" data-name="Ellipse 18" cx="13.74" cy="13.74" r="13.74" transform="translate(1115.028 871.904)" fill="#fbbebe"/>
    <path id="Path_27" data-name="Path 27" d="M1081.2,832.947c-4.263,3.669-10.025,5.27-15.637,5.327a12.775,12.775,0,0,1-6.859-1.463c-.137-.777-.194-1.612-.343-2.39a8.756,8.756,0,0,1-5.533-4.709,57.524,57.524,0,0,1-2.663-7.007,63.022,63.022,0,0,0-5.292-10.1c-1.806-3.006-3.623-6.012-5.715-8.847-1.372-1.886-2.846-3.681-4.2-5.567a49.157,49.157,0,0,1-8.082-17.558,22.267,22.267,0,0,0-.983-3.566,35.408,35.408,0,0,0-3.429-5.4,17.735,17.735,0,0,1-2.5-6.39c-.24-1.292-.628-2.686-1.932-2.823h0c-2.72,5.292-5.5,10.653-9.6,14.952a14.679,14.679,0,0,0-1.771,2.011,19.775,19.775,0,0,0-1.143,2.183,13.714,13.714,0,0,1-2.5,3.658,5.865,5.865,0,0,1-3.235,1.76,22.012,22.012,0,0,1-1.555,13.5c-.572,1.257-1.257,2.446-1.795,3.715-2.206,5.2-1.7,11.088-1.932,16.734a17.207,17.207,0,0,1-.411,3.521c-.583,2.286-1.76,4.778-1.143,7.087-5.944,2.286-12.574,2.126-18.826,1.143a9.032,9.032,0,0,1-3.509-1.063,9.789,9.789,0,0,1-2.286-2.286,2.452,2.452,0,0,1-.526-.915c-.24-1.086.96-1.875,1.509-2.835a2.915,2.915,0,0,0-.125-3.223c.377-6.207,2.092-12.265,2.469-18.46.16-2.469.092-4.938.206-7.407s.377-4.87.652-7.293c.629-5.533,2.149-10.962,1.932-16.529a9.581,9.581,0,0,1,1.143-4.927,24.092,24.092,0,0,1,2.286-3.258c2.9-3.76,6.4-7.521,7.442-12.162a26.291,26.291,0,0,1,2.892-6.733,11.9,11.9,0,0,1,2.538-3.532,11.187,11.187,0,0,0,1.669-1.441c.778-.994.8-2.377,1.269-3.566a19.555,19.555,0,0,0,.766-1.818,10.133,10.133,0,0,0,.217-2.126,19.6,19.6,0,0,1,1.966-6.607,20.2,20.2,0,0,1-5.715-4.9,11.89,11.89,0,0,1-1.384-2.069,26.009,26.009,0,0,1-1.657-6.218c-1.143-5.041-3.6-9.773-3.955-14.86a16.839,16.839,0,0,0-.548-4.675,15.648,15.648,0,0,0-.88-1.818,7.313,7.313,0,0,1-.743-1.841c-.309-1.394.114-2.858,0-4.275a31,31,0,0,0-.915-3.657,17.58,17.58,0,0,1-.137-4.835,40.1,40.1,0,0,0,.365-5.716,22.131,22.131,0,0,1,6.013-17.02l.114-.115c.9-.926,1.886-1.783,2.709-2.789,1.143-1.338,1.909-2.927,3.064-4.23.514-.583,1.143-1.143,1.6-1.692a13.756,13.756,0,0,1,1.532-1.726,2.378,2.378,0,0,1,2.149-.572,5.626,5.626,0,0,0,.652,2.012c.983.08,1.863.217,2.834.3a5.906,5.906,0,0,1,1.349.206,8.89,8.89,0,0,1,2.458,1.52c1.966,1.383,4.389,2.035,6.321,3.429,2.869,2.1,4.286,5.589,5.979,8.71,2.286,4.183,5.978,7.739,7.613,12.208q1.143,3.052,2.218,6.081a93.606,93.606,0,0,0,4.881,11.705c2.743,5.2,6.459,9.9,8.653,15.351a2.456,2.456,0,0,0,1.143,1.269,100.111,100.111,0,0,1,8,13.271,25.211,25.211,0,0,1,2.709,7.693c.526,3.818-.526,7.681-1.966,11.259a5.619,5.619,0,0,0-.491,1.612,12.826,12.826,0,0,0,.343,2.7,5.1,5.1,0,0,1-.365,2.481,11.193,11.193,0,0,0-.743,1.715,7.328,7.328,0,0,0,.446,3.292,40.582,40.582,0,0,1,.457,11.294c-.1,1.875,1.429,3.429,2.7,4.778a50.991,50.991,0,0,1,6,8.676,28.6,28.6,0,0,1,2.446,4.869,42.72,42.72,0,0,1,1.326,6.013c1.143,6.207,5.144,11.694,6.207,17.923a16,16,0,0,0,3.658,7.7,16.709,16.709,0,0,1,1.578,1.909,7.089,7.089,0,0,1,.777,1.692,12.513,12.513,0,0,1,.652,4.3,6.123,6.123,0,0,0,.126,2.092c.434,1.44,2.035,2.286,2.686,3.6s.206,3.1.457,4.641A4.939,4.939,0,0,0,1081.2,832.947Z" transform="translate(147.177 245.522)" fill="#1492e6"/>
    <path id="Path_28" data-name="Path 28" d="M943.988,695.422a9.775,9.775,0,0,1-4.949,1.5,7.191,7.191,0,0,1-4.161-1.989c-.937-.823-1.931-1.852-3.166-1.76a4.048,4.048,0,0,0-2.183,1.143l-3.429,2.881a3.163,3.163,0,0,0-1.235,1.612,3.062,3.062,0,0,0,.08,1.326c.149.766.412,1.669,1.143,1.932s1.543-.308,2.286-.514a2.71,2.71,0,0,1,2.687.789,1.556,1.556,0,0,1,.457,1.029c0,.857-.948,1.429-1.818,1.463s-1.7-.24-2.561-.183a.48.48,0,0,0-.285.068.519.519,0,0,0-.16.275,1.829,1.829,0,0,0,.617,1.7,5.212,5.212,0,0,0,1.554.937,6.546,6.546,0,0,0,2.1.617c1.463.091,2.8-.72,4.172-1.143a18.119,18.119,0,0,1,5.818-.651,20.3,20.3,0,0,0,5.83-.514,6.585,6.585,0,0,0,4.4-3.578.776.776,0,0,0,.08-.549.912.912,0,0,0-.388-.469c-2.652-1.955-3.727-4.332-6.7-5.715Z" transform="translate(141.034 252.633)" fill="#fbbebe"/>
    <path id="Path_29" data-name="Path 29" d="M974.851,634.562a11.528,11.528,0,0,0-2.287.994,3.955,3.955,0,0,1-3.235-.183,2.417,2.417,0,0,1-.88-.72,3.431,3.431,0,0,1,0-3.189,13.02,13.02,0,0,1,11.6-8.093c4.858-.194,9.591,2.069,13.42,5.315a18.8,18.8,0,0,1,3.052,3.189,19.318,19.318,0,0,1,3.166,9.819,12.852,12.852,0,0,1-.3,4.39,5.352,5.352,0,0,1-2.48,3.361,4.951,4.951,0,0,1-4.355-.194,17.671,17.671,0,0,1-3.715-2.709,5.718,5.718,0,0,0-1.852-1.143,1.921,1.921,0,0,0-2.012.48c-.628.766-.48,2.012-1.051,2.835a3.132,3.132,0,0,1-2.789.937,3.188,3.188,0,0,1-2.652-.892,3.315,3.315,0,0,1-.263-2.709,8.644,8.644,0,0,0,.469-2.778c-.194-1.875-1.852-3.063-2.366-4.8-.331-1.143.411-1.623.332-2.652a1.486,1.486,0,0,0-1.806-1.257Z" transform="translate(147.219 242.646)" fill="#3f3d56"/>
    <path id="Path_30" data-name="Path 30" d="M1014.079,751.492v.114h0c-2.721,5.292-5.5,10.653-9.6,14.951a14.7,14.7,0,0,0-1.772,2.012,19.794,19.794,0,0,0-1.143,2.183,13.712,13.712,0,0,1-2.5,3.658l-3.429,1.715,10.894-56.845Z" transform="translate(151.164 256.369)" opacity="0.1"/>
    <path id="Path_31" data-name="Path 31" d="M1000.623,675.049a19.993,19.993,0,0,1-3.1,2.709c-3.132,2.389-6.15,4.572-9.144,7.087q-3.692,3.006-7.453,5.864a7.3,7.3,0,0,1-.743-1.84c-.309-1.395.114-2.858,0-4.275a31.1,31.1,0,0,0-.915-3.658,17.553,17.553,0,0,1-.137-4.835,40.134,40.134,0,0,0,.366-5.715,22.129,22.129,0,0,1,6.013-17.02l.114-.114a8.866,8.866,0,0,1,1.612-.72,5.714,5.714,0,0,1,5.007.606,34.133,34.133,0,0,1,6.859,6.7,26.448,26.448,0,0,1,2.869,3.887,10.287,10.287,0,0,1-1.349,11.328Z" transform="translate(148.789 246.773)" opacity="0.1"/>
    <path id="Path_32" data-name="Path 32" d="M997.438,651.056a5.716,5.716,0,0,0-5.018-.606,10.811,10.811,0,0,0-4.31,2.88,19.753,19.753,0,0,0-3.052,4.024c-.8,1.406-1.44,2.9-2.218,4.321a44.4,44.4,0,0,1-5.156,6.984,19.687,19.687,0,0,1-3.818,3.8c-1.429.983-3.155,1.635-4.161,3.041-.32.446-.549.949-.857,1.406-.994,1.44-2.675,2.218-4.138,3.189-4.2,2.8-6.859,7.453-10.722,10.619-1.692,1.36-3.6,2.435-5.27,3.829s-2.858,2.846-4.39,4.161a9.318,9.318,0,0,1-5.361,2.549,27.438,27.438,0,0,0,5.247,8.276c2.286,2.286,5.772,3.829,8.927,2.915a3.864,3.864,0,0,0,2.629-2.092,9.62,9.62,0,0,1,.56-1.612,3.432,3.432,0,0,1,1.2-.971,283.345,283.345,0,0,0,36.052-24.988c3.052-2.481,6.07-4.7,9.145-7.087a19.492,19.492,0,0,0,3.1-2.709,10.286,10.286,0,0,0,1.257-11.339,25.69,25.69,0,0,0-2.88-3.887A34.07,34.07,0,0,0,997.438,651.056Z" transform="translate(143.058 246.475)" fill="#1492e6"/>
    <g id="Group_12" data-name="Group 12" transform="translate(1115.252 872.11)" opacity="0.1">
      <path id="Path_33" data-name="Path 33" d="M982.066,646.955a3.154,3.154,0,0,1-2.652-.892,3.315,3.315,0,0,1-.263-2.709,8.57,8.57,0,0,0,.469-2.766c-.194-1.886-1.852-3.064-2.366-4.812-.331-1.143.412-1.623.332-2.652a1.5,1.5,0,0,0-1.772-1.223,11.546,11.546,0,0,0-2.286.995,3.955,3.955,0,0,1-3.235-.172,2.686,2.686,0,0,1-.88-.72,3.427,3.427,0,0,1,0-3.2v-.1a12.041,12.041,0,0,0-.983,2,3.429,3.429,0,0,0,0,3.189,2.425,2.425,0,0,0,.88.72,3.955,3.955,0,0,0,3.258.149,11.539,11.539,0,0,1,2.286-.995,1.486,1.486,0,0,1,1.771,1.223c.08,1.029-.663,1.509-.331,2.652.514,1.738,2.172,2.926,2.366,4.8a8.63,8.63,0,0,1-.469,2.778,3.315,3.315,0,0,0,.263,2.709,3.188,3.188,0,0,0,2.652.892,3.132,3.132,0,0,0,2.789-.937,3.871,3.871,0,0,0,.515-1.452,4.035,4.035,0,0,1-2.344.526Z" transform="translate(-968.036 -628.7)"/>
      <path id="Path_34" data-name="Path 34" d="M995.672,645.037a4.928,4.928,0,0,1-4.344-.183,18.918,18.918,0,0,1-3.772-2.7,5.405,5.405,0,0,0-1.84-1.143,1.92,1.92,0,0,0-2.012.48,3.7,3.7,0,0,0-.594,1.6,2,2,0,0,1,1.657-.182,5.713,5.713,0,0,1,1.852,1.143,17.654,17.654,0,0,0,3.715,2.709,4.951,4.951,0,0,0,4.355.194,5.291,5.291,0,0,0,2.435-3.2A4.3,4.3,0,0,1,995.672,645.037Z" transform="translate(-965.879 -626.953)"/>
    </g>
    <circle id="Ellipse_19" data-name="Ellipse 19" cx="14.208" cy="14.208" r="14.208" transform="translate(1012.952 1065.427)" fill="#3f3d56"/>
    <circle id="Ellipse_20" data-name="Ellipse 20" cx="14.208" cy="14.208" r="14.208" transform="translate(1012.952 1065.427)" opacity="0.1"/>
    <circle id="Ellipse_21" data-name="Ellipse 21" cx="8.996" cy="8.996" r="8.996" transform="translate(1018.164 1070.639)" fill="#65617d"/>
    <circle id="Ellipse_22" data-name="Ellipse 22" cx="8.996" cy="8.996" r="8.996" transform="translate(1018.164 1070.639)" opacity="0.1"/>
    <path id="Path_35" data-name="Path 35" d="M881.43,790.949l9.328,21.078a1.806,1.806,0,0,0,3.281.069l11.088-22.575Z" transform="translate(134.825 266.419)" fill="#3f3d56"/>
    <path id="Path_36" data-name="Path 36" d="M881.43,790.949l9.328,21.078a1.806,1.806,0,0,0,3.281.069l11.088-22.575Z" transform="translate(134.825 266.419)" opacity="0.1"/>
    <circle id="Ellipse_23" data-name="Ellipse 23" cx="14.208" cy="14.208" r="14.208" transform="translate(924.363 1065.427)" fill="#3f3d56"/>
    <circle id="Ellipse_24" data-name="Ellipse 24" cx="14.208" cy="14.208" r="14.208" transform="translate(924.363 1065.427)" opacity="0.1"/>
    <circle id="Ellipse_25" data-name="Ellipse 25" cx="8.996" cy="8.996" r="8.996" transform="translate(929.576 1070.639)" fill="#65617d"/>
    <circle id="Ellipse_26" data-name="Ellipse 26" cx="8.996" cy="8.996" r="8.996" transform="translate(929.576 1070.639)" opacity="0.1"/>
    <path id="Path_37" data-name="Path 37" d="M803.94,790.949l9.328,21.078a1.806,1.806,0,0,0,3.281.069l11.076-22.575Z" transform="translate(123.738 266.419)" fill="#3f3d56"/>
    <path id="Path_38" data-name="Path 38" d="M803.94,790.949l9.328,21.078a1.806,1.806,0,0,0,3.281.069l11.076-22.575Z" transform="translate(123.738 266.419)" opacity="0.1"/>
    <path id="Path_39" data-name="Path 39" d="M933.134,702.234a2.127,2.127,0,0,0-1.143-1.692,2.195,2.195,0,0,0-2.915,1.223l-8.15,20.244-2.366,90.954h3.784l1.417-90.76,9.213-18.6A2.181,2.181,0,0,0,933.134,702.234Z" transform="translate(140.138 253.663)" fill="#3f3d56"/>
    <path id="Path_40" data-name="Path 40" d="M768.43,720.816l12.791-8.047L919.3,711.58l3.555,9.236Z" transform="translate(137.221 338.678)" fill="#1492e6"/>
    <path id="Path_41" data-name="Path 41" d="M768.43,728.376v-8.527l156.933-1.509-.148,5.772H771.265v4.264Z" transform="translate(137.221 339.645)" fill="#3f3d56"/>
    <circle id="Ellipse_27" data-name="Ellipse 27" cx="14.208" cy="14.208" r="14.208" transform="translate(911.332 1070.399)" fill="#3f3d56"/>
    <circle id="Ellipse_28" data-name="Ellipse 28" cx="8.996" cy="8.996" r="8.996" transform="translate(916.544 1075.611)" fill="#65617d"/>
    <path id="Path_42" data-name="Path 42" d="M792.54,795.3l9.327,21.078a1.806,1.806,0,0,0,3.281.069l11.076-22.564Z" transform="translate(122.107 267.043)" fill="#3f3d56"/>
    <circle id="Ellipse_29" data-name="Ellipse 29" cx="14.208" cy="14.208" r="14.208" transform="translate(1021.707 1070.399)" fill="#3f3d56"/>
    <circle id="Ellipse_30" data-name="Ellipse 30" cx="8.996" cy="8.996" r="8.996" transform="translate(1026.92 1075.611)" fill="#65617d"/>
    <path id="Path_43" data-name="Path 43" d="M889.1,795.3l9.327,21.078a1.806,1.806,0,0,0,3.281.069l11.076-22.564Z" transform="translate(135.922 267.043)" fill="#3f3d56"/>
    <rect id="Rectangle_14" data-name="Rectangle 14" width="93.732" height="93.732" transform="translate(927.941 961.247)" fill="#ededf4"/>
    <path id="Path_44" data-name="Path 44" d="M820.85,743.971h15.889v23.822H820.85Zm19.855-11.911h15.877v35.733H840.705ZM860.56,751.9h15.878v15.889H860.56Z" transform="translate(126.157 258.198)" fill="#1492e6"/>
    <rect id="Rectangle_15" data-name="Rectangle 15" width="93.732" height="93.732" transform="translate(943.944 867.515)" fill="#d7d9e1"/>
    <path id="Path_45" data-name="Path 45" d="M845.27,686.769h31.766v5.956H845.27Zm15.889-15.877a3.978,3.978,0,0,0,0-7.944,4.385,4.385,0,0,0-1.143.148l-8.2-6.035-.491.434,6.07,8.276a3.762,3.762,0,0,0-.183,1.143A3.966,3.966,0,0,0,861.159,670.891Z" transform="translate(129.651 247.467)" fill="#1492e6"/>
    <path id="Path_46" data-name="Path 46" d="M862.4,643.11A25.8,25.8,0,0,0,842.065,684.8h7.293l.491-.5,2.743-2.732-2.835-2.847-2.743,2.732a19.713,19.713,0,0,1-4.367-10.551h3.864v-3.909h-3.864a19.714,19.714,0,0,1,4.367-10.551l2.743,2.732,2.835-2.846-2.732-2.732a19.751,19.751,0,0,1,10.551-4.367v3.863h3.966v-3.863a19.717,19.717,0,0,1,10.551,4.367l-2.732,2.732,2.846,2.846,2.744-2.732a19.809,19.809,0,0,1,4.366,10.551h-3.875v3.966h3.875a19.806,19.806,0,0,1-4.366,10.551l-2.744-2.732L872.2,681.62l2.744,2.732.5.5h7.338a25.81,25.81,0,0,0-20.335-41.688Z" transform="translate(128.41 245.471)" fill="#1492e6"/>
    <rect id="Rectangle_16" data-name="Rectangle 16" width="93.732" height="93.732" transform="translate(434.875 651.473)" opacity="0.1"/>
    <path id="Path_139" data-name="Path 139" d="M0,0H93.732V93.732H0Z" transform="translate(432.589 649.187)" fill="#ededf4"/>
    <g id="Group_17" data-name="Group 17" transform="translate(463.726 819.874)">
      <rect id="Rectangle_28" data-name="Rectangle 28" width="120.574" height="129.44" transform="translate(2.882 3.488)" opacity="0.1"/>
      <rect id="Rectangle_27" data-name="Rectangle 27" width="120.574" height="129.44" transform="translate(0 0)" fill="#ededf4"/>
    </g>
    <path id="Path_47" data-name="Path 47" d="M421.972,453.85h7.944v47.643h-7.944Zm-11.911,33.744h7.933v13.9H410.05Zm23.822-7.944h8v21.844h-8Zm11.911-11.911h7.944v33.755h-7.944Z" transform="translate(47.549 218.393)" fill="#1492e6"/>
    <rect id="Rectangle_18" data-name="Rectangle 18" width="93.732" height="93.732" transform="translate(962.233 650.33)" opacity="0.1"/>
    <rect id="Rectangle_19" data-name="Rectangle 19" width="93.732" height="93.732" transform="translate(959.947 648.044)" fill="#ededf4"/>
    <path id="Path_48" data-name="Path 48" d="M891.955,465.382l-10.825,16.552a5.865,5.865,0,0,1,1.337,3.749,5.955,5.955,0,1,1-11.911,0,7.008,7.008,0,0,1,.1-1.143l-7.144-4.161a5.932,5.932,0,0,1-7.064.892l-7.6,7.121v7.1a5.315,5.315,0,0,0,5.292,5.3h45a5.327,5.327,0,0,0,5.3-5.3V469.165l-7.27-4.835a5.978,5.978,0,0,1-5.224,1.052Z" transform="translate(130.164 219.892)" fill="#1492e6"/>
    <path id="Path_49" data-name="Path 49" d="M859.389,472.071a5.955,5.955,0,0,1,5.955,5.955v.766l7.453,4.172a5.942,5.942,0,0,1,3.772-1.349,6.59,6.59,0,0,1,1.292.137l10.848-16.792a5.936,5.936,0,1,1,10.768-3.429,6.293,6.293,0,0,1-.16,1.406l5.132,3.429v-9.933a5.327,5.327,0,0,0-5.3-5.3h-45a5.315,5.315,0,0,0-5.292,5.3v28.451l4.961-4.755a5.944,5.944,0,0,1,5.578-8Z" transform="translate(130.164 218.004)" fill="#1492e6"/>
    <rect id="Rectangle_20" data-name="Rectangle 20" width="93.732" height="93.732" transform="translate(708.47 654.902)" opacity="0.1"/>
    <rect id="Rectangle_21" data-name="Rectangle 21" width="93.732" height="93.732" transform="translate(706.184 652.616)" fill="#ededf4"/>
    <path id="Path_50" data-name="Path 50" d="M637.27,498.768h31.766v5.955H637.27Zm15.889-15.877a4,4,0,1,0,0-8,4.375,4.375,0,0,0-1.143.149l-8.2-5.978-.491.434,6.07,8.276a3.767,3.767,0,0,0-.183,1.143,3.966,3.966,0,0,0,3.943,3.978Z" transform="translate(99.892 220.569)" fill="#1492e6"/>
    <path id="Path_51" data-name="Path 51" d="M654.4,455.11A25.8,25.8,0,0,0,634.065,496.8h7.293l.491-.5,2.744-2.732-2.835-2.846-2.743,2.732a19.72,19.72,0,0,1-4.367-10.551h3.864v-3.909h-3.864a19.72,19.72,0,0,1,4.367-10.551l2.743,2.732,2.835-2.846-2.732-2.732a19.755,19.755,0,0,1,10.55-4.366v3.864h3.967v-3.864a19.719,19.719,0,0,1,10.551,4.367l-2.732,2.732,2.846,2.846,2.743-2.732a19.81,19.81,0,0,1,4.366,10.551h-3.875v3.966h3.875a19.809,19.809,0,0,1-4.367,10.551l-2.743-2.732L664.2,493.62l2.743,2.732.5.5h7.339a25.81,25.81,0,0,0-20.335-41.688Z" transform="translate(98.65 218.573)" fill="#1492e6"/>
    <rect id="Rectangle_22" data-name="Rectangle 22" width="93.732" height="93.732" transform="translate(702.661 802.359)" opacity="0.1"/>
    <rect id="Rectangle_23" data-name="Rectangle 23" width="93.732" height="93.732" transform="translate(694.66 795.501)" fill="#ededf4"/>
    <path id="Path_52" data-name="Path 52" d="M626.757,588.09l6.367,6.355-13.557,13.58L608.445,596.9,587.87,617.536l3.921,3.921,16.678-16.678L619.59,615.9l17.5-17.489,6.367,6.367V588.09Z" transform="translate(125.879 237.6)" fill="#1492e6"/>
    <path id="Path_53" data-name="Path 53" d="M557.713,850.958c.675-2.881,1.143-5.407,1.143-5.407a11.121,11.121,0,0,1,1.246-5.487v-.777h0v-5.8a19.364,19.364,0,0,0-1.452-3.029c-1.052-1.817,0-8.493,0-8.493s3.864-9.4,2.915-15.352,7.91-26.531,7.91-26.531a25.685,25.685,0,0,0-.846-5.853,5.019,5.019,0,0,1-.1-1.234v-.149h0c.125-3.932,3.235-11.294,3.235-11.294l-.411-14.048s-1.989-8.287,1.257-19.432a90.837,90.837,0,0,0,2.286-9.373,4.383,4.383,0,0,1,.149-.789c-6.664-1.017-11.751-1.863-11.751-1.863s3.864-16.163,6.47-19,4.7-11.717,4.7-11.717,1.36-11.431-.834-14.757-2.5-9.144-2.5-9.144-5.018-3.635-5.647-5.247a27.2,27.2,0,0,1-1.669-7.179c0-1.92.629-3.635.423-4.652s1.463-4.847.628-6.664a5.007,5.007,0,0,1-.343-1.76v.126a24.485,24.485,0,0,1,.446-4.744,13.374,13.374,0,0,1,4.95-2.652l.114-.434.286-1.143a5.609,5.609,0,0,1,.492-.3v-2.046l-.789-3.692c-1.531-6.413,7.019-7.373,7.019-7.373a4.5,4.5,0,0,1,2.435-2.126c1.726-.606.286,9.647-.526,10.288a38.577,38.577,0,0,0-3.429,5.281h0l-.148.263a3.9,3.9,0,0,1,.389.4l-.32,2.286v.343a9.424,9.424,0,0,1,1.36,2.286,4.982,4.982,0,0,0-1.257,3.635,11.436,11.436,0,0,1-.514,4.447c.092-.1,1.2-1.3,2.286-1.006s4.172,1.212,4.172,1.212,2.286.4,2.092.915,1.566,2.72,1.566,2.72l6.172-5.841c.057-.183.126-.354.172-.537a13.347,13.347,0,0,0,.537-2.56,13.584,13.584,0,0,1-1.966-.628,4.107,4.107,0,0,1-1.715-1.143,6.656,6.656,0,0,1-.995-2.652,37.054,37.054,0,0,0-2.286-5.11A16.621,16.621,0,0,1,583.821,617a6.021,6.021,0,0,1,.949-2.686c1.006-1.395,2.835-1.954,4.161-3.063s2.195-2.789,3.738-3.624a7.43,7.43,0,0,1,4.687-.4,24.992,24.992,0,0,1,8.744,3.178,4.423,4.423,0,0,0,2.926.96,3.933,3.933,0,0,0,2.115-1.543v-.092l.069-.08a10.94,10.94,0,0,1,.96,4.572v.743a2.054,2.054,0,0,0,0,.263,1.255,1.255,0,0,0,0,.205h0a1.037,1.037,0,0,0,0,.32,2.289,2.289,0,0,0,.583.834,5.024,5.024,0,0,1,.5.686.747.747,0,0,0-.091-.251,3.577,3.577,0,0,1,.64,1.943,1.943,1.943,0,0,1-.457,1.394,7.612,7.612,0,0,1-1.006.812,12.289,12.289,0,0,1,.183,2.057,11.967,11.967,0,0,1-5.818,10.185l-.206.526a14.638,14.638,0,0,0-1.143,6.733,1.251,1.251,0,0,0,.068.491l.229.252h0s10.185.1,12.574-2.069,6.058,5.3,6.058,5.3,3.646.709,4.378,0,5.018-.1,5.018-.1a9.146,9.146,0,0,1,6.367-2.286,18.678,18.678,0,0,1,4.676-2.595h.114a5.133,5.133,0,0,1,2.286-.286s5.007-4.149,6.47-6.367,8.425-10.471,8.459-10.516v-.389l.08-1.212a3.916,3.916,0,0,0,.629,0,1.442,1.442,0,0,1,.137-.411,23.152,23.152,0,0,1,1.474-3.429s0-1.52-.434-1.9.183-5.944.183-5.944,4.572-10.551,8.562-2.675c0,0,7.647,5.1,1.223,11.042,0,0-2.56,1.234-2.926,2.218-.229.64-1.143,2.423-1.692,3.612l-.252.526h.069l-.091.994v.389c1.212.686,2.035,1.36,1.829,1.886a11.839,11.839,0,0,0-.732,2.72s-8.87,11.122-10.013,15.866c0,0-23.81,14.151-31.64,15.157l1.36,7.076s.411,4.241.309,5.715.937,8.39.937,8.39,1.36,10.1,2.515,11.522.938,7.476.938,7.476a50.279,50.279,0,0,0,1.566,8.584,21.983,21.983,0,0,1,.309,8.6s3.966,9.088-5.533,2.926c0,0-4.664-.286-10.036-.469v2.766c.069,5.2.1,12.38-.137,17.809-.411,9.6-3.338,28.577-3.338,28.577v9.545a12.719,12.719,0,0,1,.274,2.732,17.73,17.73,0,0,1-2.572,9.556l-.732,6.367a24.95,24.95,0,0,0-1.749,6.7,3.225,3.225,0,0,0,.08.606,4.57,4.57,0,0,1,.08.972c.091,2.892-1.646,9.807-1.646,9.807s-.1,6.973-1.143,7.385,1.143,4.012,1.818,5.064a.977.977,0,0,0,0-.194l.126.206a4.857,4.857,0,0,1,.32,1.772,2.527,2.527,0,0,1-1.143,2.446c-1.989,1.212-3.052,2.217-1.372,2.629a15.575,15.575,0,0,1,1.84.389,2.042,2.042,0,0,0,.091-.24,1.143,1.143,0,0,1,.686,1.223,5.213,5.213,0,0,1-.617,2.366,24.963,24.963,0,0,1-2.835,5.155l-.8-.092a4.2,4.2,0,0,0,.469.857,3.306,3.306,0,0,0,1.143,1.052,3.8,3.8,0,0,0,1.429.491,4.022,4.022,0,0,1,2.96,1.44c1.04,1.337,1.692,3.178-.366,4.789l-7.464,2.572s-12.848,1.669-12.162-1.212,1.143-5.406,1.143-5.406a11.349,11.349,0,0,1,1.04-5.109c.137-.251.286-.5.457-.754h-.457s-.937-6.367-2.195-7.579c-.286-.286-.354-.491-.286-.663-.126-.343.194-.549.617-.663a1.637,1.637,0,0,1,.091.252,6.235,6.235,0,0,1,1.246-.137s.423-3.338-.937-4.572a1.315,1.315,0,0,1-.263-.994,5.608,5.608,0,0,1,.137-1.349l.057.069a49.629,49.629,0,0,1,2.995-7.83s.1-3.029-.731-4.241.1-16.472.1-16.472-.309-7.384.629-10.814-1.143-7.476-1.143-7.476v-.229h0a7.023,7.023,0,0,1,.126-1.143v.069c.206-1.955.606-5.487.9-7.121.412-2.286-.1-13.442-.1-13.442l-1.726-4.641-3.338,8.184-3.521,10.905a9.281,9.281,0,0,0-1.829,4.652v1.074a6.541,6.541,0,0,1-1.143,3.887s-.937,5.155-2.4,6.47a5.831,5.831,0,0,0-1.463,3.841s-1.772,7.476-2.617,8.79c-.7,1.143-.732,4.149-.732,5.087h0v.274s-.251,2.675-.24,4.915v.743a7.708,7.708,0,0,0,.217,1.818v-.275a19.3,19.3,0,0,1,.537,4.664c0,2.686-.366,5.864-1.989,7.739-2.823,3.235-4.572,2.823-4.572,2.823s1.36,4.047,3.029,4.858a.748.748,0,0,1,.172.114,1.746,1.746,0,0,0,0-.24,1.989,1.989,0,0,1,.491,1.509,10.839,10.839,0,0,1-2.069,5.99,3.312,3.312,0,0,1-1.417.823l.263.16a6.311,6.311,0,0,0,.583.274,3.248,3.248,0,0,0,.846.229,3.99,3.99,0,0,1,2.961,1.429c1.04,1.349,1.692,3.178-.366,4.79l-7.464,2.583S557.039,853.827,557.713,850.958Z" transform="translate(121.561 239.822)" fill="url(#linear-gradient-2)"/>
    <path id="Path_54" data-name="Path 54" d="M602.1,825.931l7.224-2.572c2-1.612,1.36-3.429.354-4.79a3.829,3.829,0,0,0-2.858-1.44,3.534,3.534,0,0,1-1.383-.492,3.188,3.188,0,0,1-1.143-1.052,5.336,5.336,0,0,1-.834-2.789s-7.933-2.286-10.1,0a6.126,6.126,0,0,0-.96,1.406,11.806,11.806,0,0,0-1.006,5.109s-.4,2.526-1.063,5.407S602.1,825.931,602.1,825.931Z" transform="translate(126.227 269.604)" fill="#3f3d56"/>
    <path id="Path_55" data-name="Path 55" d="M571.157,822.822l7.224-2.583c1.989-1.612,1.36-3.429.354-4.79a3.829,3.829,0,0,0-2.858-1.429,3.1,3.1,0,0,1-.835-.229,4.9,4.9,0,0,1-.548-.275c-2.023-1.143-1.978-3.841-1.978-3.841s-7.933-2.286-10.1,0a6.2,6.2,0,0,0-.754,1.041,11.429,11.429,0,0,0-1.212,5.487s-.411,2.526-1.063,5.407S571.157,822.822,571.157,822.822Z" transform="translate(121.8 269.158)" fill="#3f3d56"/>
    <path id="Path_56" data-name="Path 56" d="M560.187,816.847a20.8,20.8,0,0,1,1.417,3.029v8c2.023,3.326,12.574,2.218,13.946.4s2.926-6.573,1.315-7.373-2.938-4.858-2.938-4.858,1.726.411,4.447-2.823,1.921-10.414,1.417-12.128,0-7.475,0-7.475-.1-4.046.709-5.361,2.526-8.791,2.526-8.791a5.942,5.942,0,0,1,1.417-3.84c1.417-1.315,2.286-6.47,2.286-6.47a6.608,6.608,0,0,0,1.006-4.344c-.3-2.526,1.726-5.247,1.726-5.247l3.429-10.916,3.235-8.184,1.818,4.744s.514,11.122.1,13.443-1.006,8.493-1.006,8.493,2.023,4.035,1.143,7.475-.606,10.814-.606,10.814-.914,15.26-.1,16.471.709,4.241.709,4.241-4.138,8.893-2.823,10.1.9,4.572.9,4.572-2.823,0-1.612,1.212,2.115,7.578,2.115,7.578l12.219,1.417a25.715,25.715,0,0,0,2.744-5.155c1.611-3.738-.309-3.338-1.932-3.738s-.594-1.418,1.326-2.629.8-3.943.8-3.943-2.926-4.95-1.92-5.35,1.143-7.384,1.143-7.384,2.012-8.287,1.509-10.505,1.623-7.579,1.623-7.579l.709-6.367a17.509,17.509,0,0,0,2.206-12.059v-9.808s2.835-19,3.235-28.577c.263-6.15.183-14.54.1-19.775,0-2.938-.1-4.881-.1-4.881l-43.654-4.573a35.959,35.959,0,0,1-.789,6.481,94.045,94.045,0,0,1-2.286,9.385,42.6,42.6,0,0,0-1.212,19.432l.4,14.048s-3.841,9.4-3.029,12.574a27.133,27.133,0,0,1,.8,5.864s-8.584,20.507-7.67,26.474-2.835,15.363-2.835,15.363S559.181,815.029,560.187,816.847Z" transform="translate(121.853 253.427)" fill="#65617d"/>
    <g id="Group_13" data-name="Group 13" transform="translate(681.591 956.4)" opacity="0.05">
      <path id="Path_57" data-name="Path 57" d="M604.6,802.216a2.355,2.355,0,0,0,1.086-1.726l.126.206s1.143,2.732-.812,3.944l-.617.411c-.354-.069-.743-.115-1.143-.206C601.649,804.5,602.678,803.427,604.6,802.216Z" transform="translate(-553.624 -688.411)"/>
      <path id="Path_58" data-name="Path 58" d="M590.922,801.549c-.32-.3-.309-1.075-.114-2.069a5.5,5.5,0,0,1,.675,2.926,2.479,2.479,0,0,0-.56-.857Z" transform="translate(-555.311 -688.556)"/>
      <path id="Path_59" data-name="Path 59" d="M592.516,757.31a13.709,13.709,0,0,1,.8,3.715,14.2,14.2,0,0,0-.926-2.549S592.436,758.019,592.516,757.31Z" transform="translate(-555.065 -694.589)"/>
      <path id="Path_60" data-name="Path 60" d="M568.623,752.813a5.216,5.216,0,0,1-.1-1.143c.149.755.251,1.463.331,2.069C568.783,753.465,568.714,753.19,568.623,752.813Z" transform="translate(-558.48 -695.396)"/>
      <path id="Path_61" data-name="Path 61" d="M592.789,789.026a6.367,6.367,0,0,1-.309-2.286,7.553,7.553,0,0,1,.594,2.835,2.392,2.392,0,0,0-.285-.549Z" transform="translate(-555.053 -690.379)"/>
      <path id="Path_62" data-name="Path 62" d="M604.9,802s-.1,6.973-1.143,7.373h0c-.514-1.143-.857-2.286-.4-2.423,1.006-.411,1.143-7.384,1.143-7.384s2.023-8.287,1.52-10.5,1.612-7.579,1.612-7.579l.708-6.367a17.513,17.513,0,0,0,2.218-12.025v-9.807s2.835-19,3.235-28.577c.263-6.15.194-14.54.1-19.775V702.44h.354s0,1.943.091,4.881c.092,5.235.16,13.625-.091,19.775-.412,9.6-3.235,28.577-3.235,28.577v9.8a17.557,17.557,0,0,1-2.286,12.025l-.709,6.367s-2.114,5.361-1.611,7.579S604.9,802,604.9,802Z" transform="translate(-553.526 -702.44)"/>
      <path id="Path_63" data-name="Path 63" d="M559.775,799.71a19.378,19.378,0,0,1,1.417,3.029v1.417c-.229-.514-.56-1.2-1.006-2.023a6.045,6.045,0,0,1-.446-2.5Z" transform="translate(-559.737 -688.534)"/>
      <path id="Path_64" data-name="Path 64" d="M572.794,802.959a17.934,17.934,0,0,1-.994-2.4s1.715.411,4.447-2.823c1.978-2.355,2.092-6.8,1.806-9.7.514,1.726,1.326,8.894-1.406,12.128C574.863,802.273,573.515,802.856,572.794,802.959Z" transform="translate(-558.011 -690.194)"/>
      <path id="Path_65" data-name="Path 65" d="M577.36,788.446a53.027,53.027,0,0,0-.206,5.99,8.749,8.749,0,0,0-.206-.937c-.5-1.715,0-7.476,0-7.476s-.091-4.047.709-5.361,2.526-8.79,2.526-8.79a5.945,5.945,0,0,1,1.417-3.841c1.418-1.315,2.286-6.458,2.286-6.458a6.7,6.7,0,0,0,1.017-4.355c-.309-2.526,1.715-5.247,1.715-5.247l3.429-10.917,3.235-8.184,1.818,4.744v1.543l-1.372-3.852-3.235,8.185-3.429,10.916s-2.012,2.732-1.714,5.258a6.607,6.607,0,0,1-1.006,4.343s-.915,5.156-2.286,6.458a5.979,5.979,0,0,0-1.406,3.841s-1.726,7.487-2.526,8.8S577.36,788.446,577.36,788.446Z" transform="translate(-557.306 -698.086)"/>
    </g>
    <path id="Path_66" data-name="Path 66" d="M569.882,620.03l.755,3.692v2.858l4.218.434.469-.88h0a38.677,38.677,0,0,1,3.28-5.292c.777-.652,2.161-10.917.492-10.288a4.433,4.433,0,0,0-2.343,2.126S568.385,613.617,569.882,620.03Z" transform="translate(123.28 240.809)" fill="#ffcdd3"/>
    <path id="Path_67" data-name="Path 67" d="M570.45,624.785l4.218.434.468-.88h0a3.7,3.7,0,0,0-4.652-.766Z" transform="translate(123.387 242.604)" opacity="0.1"/>
    <path id="Path_68" data-name="Path 68" d="M569.52,626.728l5.555,1.292.126-.823.309-2.286a3.818,3.818,0,0,0-5.384-.732l-.274,1.143Z" transform="translate(123.254 242.649)" fill="#dce6f2"/>
    <path id="Path_69" data-name="Path 69" d="M648.32,621.429l5.932,3.178s.217-.469.537-1.143c.56-1.143,1.406-2.96,1.635-3.6.354-.983,2.823-2.286,2.823-2.286,6.218-5.933-1.143-11.031-1.143-11.031-3.909-7.887-8.276,2.675-8.276,2.675s-.617,5.555-.183,5.933.423,1.9.423,1.9a24.021,24.021,0,0,0-1.429,3.429A9.8,9.8,0,0,0,648.32,621.429Z" transform="translate(134.528 239.822)" fill="#ffcdd3"/>
    <path id="Path_70" data-name="Path 70" d="M648.32,619.321l5.932,3.178s.217-.469.537-1.143c-.846-.7-3.806-3.109-4.789-2.995a7.706,7.706,0,0,1-1.406,0C648.412,618.966,648.32,619.321,648.32,619.321Z" transform="translate(134.528 241.93)" opacity="0.1"/>
    <path id="Path_71" data-name="Path 71" d="M647.78,621.062l6.676,3.281.137-1.429.092-.995s-3.863-3.315-5.007-3.189a6.119,6.119,0,0,1-1.737,0l-.08,1.143Z" transform="translate(134.451 241.983)" fill="#dce6f2"/>
    <path id="Path_72" data-name="Path 72" d="M584,643.1s29.08,3.281,23.65,1.52c-3.783-1.234-5.292-3.635-5.6-6.31a15.1,15.1,0,0,1,1.075-6.733,29.182,29.182,0,0,1,2.606-5.247S583.5,614.1,587.943,625.192a17.671,17.671,0,0,1,1.257,5.258,14.615,14.615,0,0,1-.572,5.338A15.867,15.867,0,0,1,584,643.1Z" transform="translate(125.325 242.243)" fill="#ffcdd3"/>
    <path id="Path_73" data-name="Path 73" d="M587.523,625.225a17.665,17.665,0,0,1,1.257,5.258c2.092,1.76,4.389,1.646,7.339,1.646,2.286,0,4.778.549,6.584-.548a29.178,29.178,0,0,1,2.606-5.247S583.077,614.1,587.523,625.225Z" transform="translate(125.746 242.244)" opacity="0.1"/>
    <circle id="Ellipse_31" data-name="Ellipse 31" cx="12.025" cy="12.025" r="12.025" transform="translate(710.24 851.088)" fill="#ffcdd3"/>
    <path id="Path_74" data-name="Path 74" d="M584,641.349s29.08,3.281,23.65,1.52c-3.783-1.234-5.292-3.635-5.6-6.31-1.452-1.566-4.366-2.7-6.23-3.3a8.731,8.731,0,0,0-5.27-.08,7.458,7.458,0,0,0-1.92.892A15.862,15.862,0,0,1,584,641.349Z" transform="translate(125.325 243.997)" opacity="0.1"/>
    <path id="Path_75" data-name="Path 75" d="M569.52,626.505l5.555,1.292.126-.823a4.9,4.9,0,0,0-5.35-1.829Z" transform="translate(123.254 242.873)" opacity="0.1"/>
    <path id="Path_76" data-name="Path 76" d="M647.78,620.912l6.676,3.28.137-1.429a49.9,49.9,0,0,0-6.733-2.983Z" transform="translate(134.451 242.133)" opacity="0.1"/>
    <path id="Path_77" data-name="Path 77" d="M573.94,705.2c11.259,1.783,27.285,4.092,29.834,3.315,2.1-.64,8.847-.572,14.711-.366,0-2.938-.1-4.881-.1-4.881L574.728,698.7A35.97,35.97,0,0,1,573.94,705.2Z" transform="translate(123.886 253.425)" opacity="0.1"/>
    <path id="Path_78" data-name="Path 78" d="M564.11,713.8s37.081,6.367,41.071,5.155,24.4.092,24.4.092c9.2,6.173,5.361-2.926,5.361-2.926a22.412,22.412,0,0,0-.308-8.585,52.447,52.447,0,0,1-1.509-8.6s.206-6.058-.915-7.475-2.423-11.523-2.423-11.523-1.006-6.858-.9-8.39a56.6,56.6,0,0,0-.309-5.715l-1.315-7.075c7.578-1.017,30.623-15.157,30.623-15.157,1.143-4.755,9.693-15.866,9.693-15.866a11.6,11.6,0,0,1,.709-2.732c.606-1.612-8.482-4.847-8.482-4.847s-6.778,8.287-8.184,10.505-6.264,6.367-6.264,6.367a5.009,5.009,0,0,0-2.286.286h-.114a18.066,18.066,0,0,0-4.572,2.595,8.8,8.8,0,0,0-6.161,2.286s-4.138-.606-4.846.1-4.241,0-4.241,0-3.543-7.487-5.864-5.315-12.139,2.137-12.139,2.137c-1.315-1.749-4.515-3.006-6.516-3.647a8.737,8.737,0,0,0-5.27-.091,6.724,6.724,0,0,0-2.08,1.006l-5.99,5.864s-1.715-2.286-1.509-2.732-2.023-.915-2.023-.915-2.926-.9-4.047-1.212-2.126.9-2.218,1.006a11.736,11.736,0,0,0,.5-4.435,5.088,5.088,0,0,1,1.212-3.635c-3.532-8.7-11.522-1.417-11.522-1.417s-.9,4.744-.1,6.561-.8,5.715-.606,6.676-.4,2.732-.4,4.652a27.084,27.084,0,0,0,1.623,7.167c.606,1.623,5.453,5.258,5.453,5.258s.3,5.715,2.423,9.145.812,14.746.812,14.746-2.023,8.893-4.572,11.728S564.11,713.8,564.11,713.8Z" transform="translate(122.48 242.188)" fill="#3f3d56"/>
    <path id="Path_79" data-name="Path 79" d="M600.558,633.773a2.549,2.549,0,0,1-.937,1.623,2.414,2.414,0,0,1-1.143.252c-3.669.228-7.487.388-10.882-1.017a4.254,4.254,0,0,1-1.646-1.143,6.647,6.647,0,0,1-.96-2.664,39.471,39.471,0,0,0-2.218-5.11,17.147,17.147,0,0,1-1.2-9.144,6.333,6.333,0,0,1,.926-2.687c.971-1.383,2.743-1.943,4.024-3.052s2.115-2.8,3.623-3.624a6.859,6.859,0,0,1,4.573-.4,23.706,23.706,0,0,1,8.47,3.178,4.312,4.312,0,0,0,2.835.96,3.956,3.956,0,0,0,2.08-1.6,11.163,11.163,0,0,1,.891,5.247,1.54,1.54,0,0,0,.56,1.623c.9,1.052,1.463,2.709.572,3.772-.389.457-.983.708-1.36,1.143-.686.846-.457,2.069-.435,3.143a1.625,1.625,0,0,1-.274,1.063,1.509,1.509,0,0,1-1.475.354,4.185,4.185,0,0,0-1.589-.149,2.664,2.664,0,0,0-1.371,1.063A18.711,18.711,0,0,0,600.558,633.773Z" transform="translate(124.953 240.246)" fill="#2d293d"/>
    <path id="Path_80" data-name="Path 80" d="M602.05,636.784s-15.032,1.989-16.38-.274" transform="translate(125.565 244.527)" opacity="0.1"/>
    <path id="Path_81" data-name="Path 81" d="M452.207,740.69H440.776a1.143,1.143,0,0,0,0,2.286h2.286v15.271h-39.15a1.141,1.141,0,0,0-.857-.411H391.624a1.143,1.143,0,1,0,0,2.286h2.286v15.683H356.12a1.144,1.144,0,0,0-1.074-.823H343.615a1.143,1.143,0,0,0,0,2.286h1.143v16.106h-38.4a1.141,1.141,0,0,0-.469-.1H294.462a1.143,1.143,0,0,0,0,2.286h1.143v15.374H257.69a1.143,1.143,0,0,0-.926-.515H245.333a1.143,1.143,0,0,0,0,2.286h1.143V829.85H504.811V740.69Z" transform="translate(43.652 259.433)" fill="#3f3d56"/>
    <path id="Path_82" data-name="Path 82" d="M192.542,830.441a9.144,9.144,0,0,0,3.9,4.252,33.553,33.553,0,0,1,4.87,3.326c1.76,1.669,2.9,3.978,4.972,5.258a10.067,10.067,0,0,0,2.515,1.04,15.825,15.825,0,0,0,3.1.629,21.89,21.89,0,0,0,8-1.371,7.416,7.416,0,0,0,2.4-1.052,6.689,6.689,0,0,0,.914-.88,5.147,5.147,0,0,0,1.257-1.989,1.623,1.623,0,0,0-.114-1.2,2.766,2.766,0,0,0-1.017-.972,17.287,17.287,0,0,0-2.286-1.269,11.748,11.748,0,0,1-2.995-1.589,6.975,6.975,0,0,1-1.452-1.955,18.929,18.929,0,0,1-1.646-3.943,12.834,12.834,0,0,0-.915-2.686c-.492-.9-1.28-1.681-1.806-2.561a2.112,2.112,0,0,0,.834-.114,7.8,7.8,0,0,0-.914-4.046c1.143.091,1.68-1.406,1.5-2.515s-.72-2.286-.24-3.292a6.1,6.1,0,0,1,1.292-1.486c1.817-1.92,1.76-4.847,2.515-7.361a21.339,21.339,0,0,1,1.886-4.092c2.183-3.944,3.189-8.882,6.71-11.729l3.166-2.56a1.349,1.349,0,0,0,.492-.583c.183-.491-.206-1.006-.183-1.531.057-.926,1.315-1.3,1.737-2.138a5.276,5.276,0,0,0,.309-1.269c.332-1.452,1.749-2.355,2.766-3.429a7.784,7.784,0,0,0,2.023-6.218,5.274,5.274,0,0,1-.091-1.692,8.162,8.162,0,0,1,.446-1.143,10.288,10.288,0,0,0,.377-3.7,33.146,33.146,0,0,1,.72-5.887l15.614-3.544c.1.114.194.229.309.343,1.383,1.406,2.069,3.429,3.429,4.892l1.783,1.966c.343.377.7.88.492,1.338s-.469.469-.686.72a1.223,1.223,0,0,0,1.052,1.932,2.355,2.355,0,0,0,1.223,3.532,9.474,9.474,0,0,1-1.3,1.989,1.646,1.646,0,0,1,.343,1.006,4.79,4.79,0,0,1-.229.64,2.709,2.709,0,0,0,.126,1.44,21.64,21.64,0,0,1,0,11.2,6.473,6.473,0,0,0-.3,1.543,4.577,4.577,0,0,0,.194,1.292c.526,1.886,1.577,3.864.846,5.715a11.752,11.752,0,0,0-.617,1.337c-.412,1.372.537,2.72,1.052,4.058a13.718,13.718,0,0,1,.5,5.715c-.126,2.652-.263,5.292-.389,7.933a3.156,3.156,0,0,0,.149,1.429,2.436,2.436,0,0,0,1.6,1.234c-.16.537-.32,1.074-.5,1.6a.949.949,0,0,0-1.6-.068,1.693,1.693,0,0,0-.206.754,18.983,18.983,0,0,0,.926,5.613,2.606,2.606,0,0,1,.08.892,5.6,5.6,0,0,1-.309.9,1.351,1.351,0,0,0-.069.228,5.568,5.568,0,0,0,.252,2.721,2.4,2.4,0,0,0,.789,1.452,2.286,2.286,0,0,0,1.029.32c5.464.629,10.791-2.926,16.254-2.286,1.143.126,2.218.423,3.338.537a17.51,17.51,0,0,0,3.944-.194c1.829-.24,3.647-.549,5.441-.9A13.519,13.519,0,0,0,296.1,826.7a4.937,4.937,0,0,0,2.549-3.12,2.343,2.343,0,0,0-.229-1.76,2.034,2.034,0,0,0-.457-.48,4.919,4.919,0,0,0-1.417-.674l-2.115-.766a12.737,12.737,0,0,0-3.155-.823c-.789-.069-1.6,0-2.389,0-2.789-.149-5.247-1.749-7.544-3.28l-3.132-2.081a2.023,2.023,0,0,0-2.138-.354l-.434.16,1.932-1.075q.137-14.128-.069-28.245a29.6,29.6,0,0,0-.663-6.961c-.343-1.3-.709-3.007.434-3.738.3-1.017-.309-2.035-.583-3.041s.114-2.458,1.143-2.469c-1.052-1.851-1.017-4.092-1.063-6.218a45.175,45.175,0,0,0-.343-5.224,14.782,14.782,0,0,0-1.806-6.15l15.409-3.5-.5-2.229,2.286-.514L279.4,689.511a1.452,1.452,0,0,0,.949-1.3c-.057-.537-.583-1.029-.411-1.543.1-.308.411-.48.606-.743a1.772,1.772,0,0,0-.194-2.035.9.9,0,0,1-.217-.5,1,1,0,0,1,.114-.354,2.675,2.675,0,0,0-.766-3.178,1.047,1.047,0,0,0-.446-.229,3.241,3.241,0,0,1-1.052,0c-.366-.114-.377-.32-.789-.354h-.126l-4.7-20.678a20.582,20.582,0,0,0,.823-3.064,9.738,9.738,0,0,0-.492-5.544,11.328,11.328,0,0,0,2.721-2.046,1.532,1.532,0,0,0,.366-1.943,13.842,13.842,0,0,0-4.572-6.253c-.652-.491-2.195-1.794-3.143-1.509q.354-.514.754-.994a10.079,10.079,0,0,0,1.5-1.875,13.054,13.054,0,0,0,7.784-14.86,3.968,3.968,0,0,0-.149-.526,2.115,2.115,0,0,0,1.76-.64,2.286,2.286,0,0,0,.206-2.286,18.158,18.158,0,0,0-1.143-2.057c-.857-1.555-.652-3.567-1.532-5.018a16.754,16.754,0,0,0-3.121-3.429,10,10,0,0,0-8.322-1.9,18.081,18.081,0,0,0-7.83,3.932,10.282,10.282,0,0,1-2.195,1.52c-1.3.595-2.9.571-3.989,1.5-1.44,1.223-1.257,3.429-.709,5.258s1.36,3.692.732,5.475a11.449,11.449,0,0,0-.629,1.612,4.663,4.663,0,0,0,.766,2.961,3.667,3.667,0,0,0,.366-.651.148.148,0,0,1,0,.068c.08.3.172.594.252.892a.891.891,0,0,0-.377.08c-.537.24-.777.869-1.223,1.257s-1.555.64-1.772,1.36c-.1.343,0,.72-.126,1.051-.274.652-1.235.652-1.737,1.143a1.463,1.463,0,0,0-.286,1.486,3.1,3.1,0,0,0,.389.777,1.646,1.646,0,0,0,.1.995l-6.378,1.543a14.036,14.036,0,0,0-2.961.972,4.572,4.572,0,0,0-2.183,2.137.386.386,0,0,1-.24.309.512.512,0,0,1-.32,0,5.716,5.716,0,0,0-3.3.16,17.865,17.865,0,0,0-8.447,6.172,3.111,3.111,0,0,0-.812,1.6c-.057.686.32,1.452,0,2.046l-.331.137a16.267,16.267,0,0,0-2.709,1.143c-.926.549-1.737,1.269-2.606,1.909-3.555,2.606-8.253,3.9-10.768,7.5-.823,1.143-1.417,2.618-2.675,3.349a17.357,17.357,0,0,0-1.715.88c-1.052.812-1.143,2.218-1.383,3.555l-22.461,5.109.5,2.218-2.286.514,20.758,91.343,19.158-4.344a5.5,5.5,0,0,0,.183,1.291,11.1,11.1,0,0,0,1.315,3.8,2.184,2.184,0,0,0-1.509,2.024c-.1.88.057,1.795-.126,2.663-.343,1.555-1.692,2.664-2.812,3.818-5.1,5.235-6.173,12.963-8.779,19.73-1.223,3.155-2.812,6.184-3.612,9.453-.915,3.715-.972,8-3.9,10.573a2.046,2.046,0,0,0-.663.777,1.247,1.247,0,0,0,0,.709,3.428,3.428,0,0,0,1.086,1.738l-.137.263a1.037,1.037,0,0,0-.343,0c-.594,0-.926.754-1.143,1.212a13.065,13.065,0,0,0-1.509,5.155,1.474,1.474,0,0,0-.5,0,2.137,2.137,0,0,0-1.543,1.269A3.429,3.429,0,0,0,192.542,830.441ZM266.99,640.828h-.229a9.843,9.843,0,0,1,.674-1.555A9.567,9.567,0,0,0,266.99,640.828ZM205.836,823.411a1.887,1.887,0,0,1-.652.995h-.057a2.942,2.942,0,0,1,.114-.366l.251-.72Z" transform="translate(33.963 239.935)" fill="url(#linear-gradient-3)"/>
    <path id="Path_83" data-name="Path 83" d="M262.168,792.91c-3.429,1.269-7.087,2.4-10.745,2.069-.56,0-1.246-.274-1.3-.834a1.294,1.294,0,0,1,.126-.572,34.066,34.066,0,0,0,1.84-6.858.537.537,0,0,1,.137-.32.512.512,0,0,1,.343-.08c1.669,0,3.258.754,4.927.834a6.538,6.538,0,0,0,2.48-.366c.7-.24,1.532-1.052,2.183-1.143C262.294,788.029,261.905,790.429,262.168,792.91Z" transform="translate(44.5 265.864)" fill="#3f3d56"/>
    <path id="Path_84" data-name="Path 84" d="M201.511,801.652c-2.709-1.075-5.521-2.218-7.476-4.39a.9.9,0,0,1-.274-.458,1.062,1.062,0,0,1,.08-.525,20.576,20.576,0,0,1,3.784-6.55,14.856,14.856,0,0,1,3.429,1.943c.732.491,2.595,1.143,2.812,2.057.137.549-.354,1.3-.549,1.794-.251.675-.492,1.349-.709,2.035A25.443,25.443,0,0,0,201.511,801.652Z" transform="translate(36.436 266.449)" fill="#3f3d56"/>
    <path id="Path_85" data-name="Path 85" d="M249.993,802.983a2.445,2.445,0,0,0,.777,1.452,2.052,2.052,0,0,0,1.029.32c5.384.651,10.619-2.881,16-2.286,1.143.126,2.195.434,3.292.537a17.12,17.12,0,0,0,3.9-.183c1.795-.229,3.589-.526,5.361-.88a13.074,13.074,0,0,0,3.9-1.246,4.984,4.984,0,0,0,2.515-3.121,2.469,2.469,0,0,0-.24-1.76,2.035,2.035,0,0,0-.457-.48,4.954,4.954,0,0,0-1.395-.686l-2.092-.766a12.577,12.577,0,0,0-3.109-.834,23.1,23.1,0,0,0-2.355,0c-2.755-.172-5.178-1.772-7.453-3.315l-3.086-2.092a2.592,2.592,0,0,0-1.029-.492,2.508,2.508,0,0,0-1.086.137,14.62,14.62,0,0,0-6.275,3.829,9.589,9.589,0,0,1-1.452,1.36,6.115,6.115,0,0,1-4.824.48c-.72-.194-.617-.423-1.029-.971s-1.143-.789-1.589-.1a1.555,1.555,0,0,0-.206.755,19.367,19.367,0,0,0,.926,5.612,2.641,2.641,0,0,1,.091.891,5.62,5.62,0,0,1-.309.9,1.673,1.673,0,0,0-.057.229A5.565,5.565,0,0,0,249.993,802.983Z" transform="translate(44.353 266.079)" fill="#65617d"/>
    <path id="Path_86" data-name="Path 86" d="M249.92,801.957a2.447,2.447,0,0,0,.777,1.451,2.053,2.053,0,0,0,1.029.32c5.384.652,10.619-2.88,16-2.286,1.143.125,2.195.434,3.292.537a17.133,17.133,0,0,0,3.9-.183c1.795-.229,3.589-.526,5.361-.88a13.06,13.06,0,0,0,3.9-1.246,4.983,4.983,0,0,0,2.515-3.12,2.47,2.47,0,0,0-.24-1.76,2.032,2.032,0,0,0-.457-.48c-.16.674-.183,1.532-.3,1.863a3.577,3.577,0,0,1-1.955,2.206,5.8,5.8,0,0,1-2.183.206c-4.767-.091-9.568.983-14.277.275a33.486,33.486,0,0,0-4.869-.7,34.652,34.652,0,0,0-4.915.709c-2.583.365-5.224.16-7.83.332A5.568,5.568,0,0,0,249.92,801.957Z" transform="translate(44.426 267.104)" fill="#3f3d56"/>
    <path id="Path_87" data-name="Path 87" d="M190.559,803.407a9.293,9.293,0,0,0,3.864,4.264,32.258,32.258,0,0,1,4.812,3.349c1.738,1.669,2.869,3.989,4.927,5.27a9.951,9.951,0,0,0,2.48,1.052,16.3,16.3,0,0,0,3.052.64,21.2,21.2,0,0,0,7.91-1.349,7.169,7.169,0,0,0,2.378-1.052,6.407,6.407,0,0,0,.846-.9,5.066,5.066,0,0,0,1.223-1.989,1.681,1.681,0,0,0-.1-1.143,2.823,2.823,0,0,0-1.006-.971,17.7,17.7,0,0,0-2.286-1.269,11.6,11.6,0,0,1-2.961-1.612,6.981,6.981,0,0,1-1.44-1.955,18.94,18.94,0,0,1-1.623-3.955,13.069,13.069,0,0,0-.914-2.686c-.72-1.314-2.058-2.354-2.286-3.841a1.04,1.04,0,0,0-.194-.617.88.88,0,0,0-.56-.194,9.378,9.378,0,0,0-2.709,0,3.052,3.052,0,0,0-2.172,1.475c-.263.526-.366,1.143-.857,1.509a1.946,1.946,0,0,1-.812.217,6.742,6.742,0,0,1-3.989-.309,4.8,4.8,0,0,1-2.343-3.063c-.091-.491,0-1.052-.766-.983s-.9.754-1.143,1.211a12.963,12.963,0,0,0-1.474,5.155,1.487,1.487,0,0,0-.5,0,2.1,2.1,0,0,0-1.509,1.269,3.511,3.511,0,0,0,.16,2.481Z" transform="translate(35.934 266.958)" fill="#65617d"/>
    <path id="Path_88" data-name="Path 88" d="M190.556,802.615a9.291,9.291,0,0,0,3.864,4.264,32.258,32.258,0,0,1,4.812,3.349c1.737,1.669,2.869,3.989,4.927,5.27a9.932,9.932,0,0,0,2.48,1.052,16.282,16.282,0,0,0,3.052.64,21.2,21.2,0,0,0,7.91-1.349,7.158,7.158,0,0,0,2.378-1.052,6.389,6.389,0,0,0,.846-.9,5.064,5.064,0,0,0,1.223-1.989,3.9,3.9,0,0,0-1.7,0c-1.143.32-1.737,1.612-2.778,2.195-1.475.845-3.3.08-5,.068-1.143,0-2.206.309-3.3.206a8.333,8.333,0,0,1-2.686-.88,12.776,12.776,0,0,1-3.075-1.863A16.309,16.309,0,0,1,201.37,809a43.855,43.855,0,0,0-4.286-5.029,4.337,4.337,0,0,0-.789-.663,10.035,10.035,0,0,0-.96-.4,6.481,6.481,0,0,1-2.675-3.029,5.717,5.717,0,0,0-.7-1.063,2.1,2.1,0,0,0-1.509,1.269,3.51,3.51,0,0,0,.1,2.527Z" transform="translate(35.937 267.75)" fill="#3f3d56"/>
    <path id="Path_89" data-name="Path 89" d="M258.716,634.594a11.817,11.817,0,0,0-2.355,4.481c-.412,1.646-2.149,14.071-1.52,15.649-1.737-1.143-7.384-.068-9.145-1.143-.732-.457-4.572-2.709-5.258-3.292s-4.572-1.246-5.121-1.863c-2.069-2.286,7.533-14.94,5.43-17.146a.492.492,0,0,1-.091-.743,18.746,18.746,0,0,1,2.9-3.12,5.716,5.716,0,0,0,1.909-3.715,11.429,11.429,0,0,1,3.5,1.372q3.9,2.034,7.716,4.252c.994.572,2.812,1.223,3.429,2.218S259.367,633.8,258.716,634.594Z" transform="translate(42.34 242.694)" fill="#a1616a"/>
    <path id="Path_90" data-name="Path 90" d="M241.383,633.38a35.208,35.208,0,0,1,6.024,2.995,10.481,10.481,0,0,1,4.412,4.447c.332.766.5,1.589.8,2.366,1.326,3.429,4.961,5.281,7.053,8.264a17,17,0,0,1,1.577,2.949,38.882,38.882,0,0,1,2.012,6.024c.491,2-1.143,3.829-1.463,5.864a33.812,33.812,0,0,0,0,5.99A70.877,70.877,0,0,1,261,683.6c-.983,7.91-4.972,30.086-5.955,38.007-8.584-.194-31.24,0-39.4-2.617-2.732-.88,12.574-21.33,9.819-21.856a.984.984,0,0,1-1.029-1.143c0-11.8,5.933-22.862,7.087-34.555.411-4.069,1.943-7.819,2.846-11.808.812-3.612.823-7.407,1.989-10.928a6.5,6.5,0,0,1,.972-2,7.831,7.831,0,0,1,1.292-1.246C239.554,634.66,240.469,634.089,241.383,633.38Z" transform="translate(39.52 244.079)" fill="#d7d9e1"/>
    <circle id="Ellipse_32" data-name="Ellipse 32" cx="13.02" cy="13.02" r="13.02" transform="translate(284.435 850.426)" fill="#a1616a"/>
    <path id="Path_91" data-name="Path 91" d="M246.907,628.983a4.39,4.39,0,0,0-4.938.389,2.389,2.389,0,0,0-.892,2.618l-6.275,1.532a12.894,12.894,0,0,0-2.926.949,4.492,4.492,0,0,0-2.138,2.126c-.057.126-.114.263-.24.309s-.206,0-.309,0a5.615,5.615,0,0,0-3.269.149,17.384,17.384,0,0,0-8.3,6.138,3.051,3.051,0,0,0-.8,1.589c0,.766.423,1.623,0,2.286,1.349,5.91.571,11.888.526,17.958a7.83,7.83,0,0,1-1.28,3.166,11.339,11.339,0,0,0-1.349,3.509c-.469,3.246,1.909,6.39,1.475,9.648a15.82,15.82,0,0,1-1.395,3.909,8.939,8.939,0,0,0-.834,4.812c.114.732.377,1.44.514,2.172a13.564,13.564,0,0,1,.126,2.972c0,1.84-.149,3.681-.263,5.521-.171,2.972-.56,6.23-2.72,8.287,6.275-.343,12.871-.789,18.152-4.207a9.6,9.6,0,0,0,2.012-1.646c1.749-1.955,2.172-4.721,2.515-7.316a30.615,30.615,0,0,0,.343-8.779,9.6,9.6,0,0,1-.229-2.789c.229-1.692,1.566-2.983,2.8-4.172a17.809,17.809,0,0,0,3.532-4.321,6.859,6.859,0,0,0,.594-5.407c-.309-.869-.846-1.635-1.143-2.526a2.16,2.16,0,0,1,.72-2.446c4.1-2.286,5.018-8,4.972-12.734a36.123,36.123,0,0,0-1.029-7.156l-.972-4.573a6.23,6.23,0,0,0,.983-4.789,5.386,5.386,0,0,1-.3-1.452,3.956,3.956,0,0,1,.663-1.76A14.213,14.213,0,0,0,246.907,628.983Z" transform="translate(38.992 243.367)" fill="#3f3d56"/>
    <path id="Path_92" data-name="Path 92" d="M258.261,639.292a34.8,34.8,0,0,0,1.143,4.229c.24.514.572.972.846,1.463a9.453,9.453,0,0,1,.777,6.115,33.488,33.488,0,0,1-1.852,5.978,8.211,8.211,0,0,0-.56,2.058,9.874,9.874,0,0,0,.091,2.172,64.25,64.25,0,0,1,.423,8.767,16.976,16.976,0,0,1-1.429,7.43,2.057,2.057,0,0,1-1.04,1.143,2.286,2.286,0,0,1-1.086,0l-3.521-.5a2.11,2.11,0,0,1-.846-.228,2.011,2.011,0,0,1-.743-1.143,19.1,19.1,0,0,1-.32-8c.926-8.081,2.789-16.083,2.755-24.21,0-2.286-.514-5.624.674-7.693.48-.857.331-.5,1.143-.309a9.83,9.83,0,0,1,1.269.332A3.84,3.84,0,0,1,258.261,639.292Z" transform="translate(44.464 244.5)" fill="#3f3d56"/>
    <path id="Path_93" data-name="Path 93" d="M212.23,692" transform="translate(39.079 252.466)" fill="#464353"/>
    <path id="Path_94" data-name="Path 94" d="M253.1,655.911q.251,7.156.469,14.3l-13.363-.446a9.144,9.144,0,0,1,.24-4.023c.5-3.143-.206-6.355,0-9.533.194-2.423.949-4.767,1.143-7.19.08-1.406,0-2.823,0-4.24a30.3,30.3,0,0,1,.606-4.172,25.148,25.148,0,0,1,1.589-5.715c1.749.24,3.635.537,4.881,1.795a6.035,6.035,0,0,1,1.395,2.526c.869,2.789.491,5.864,1.463,8.6A25.419,25.419,0,0,1,253.1,655.911Z" transform="translate(43.064 244.295)" fill="#1492e6"/>
    <path id="Path_95" data-name="Path 95" d="M258.021,711.877c-.091,2.858,1.578,5.43,3.018,7.9a64.944,64.944,0,0,1,5.361,11.717,10.57,10.57,0,0,0,1.337,2.972,28.852,28.852,0,0,0,2.1,2.16c1.783,1.955,2.366,4.7,2.675,7.327a52.288,52.288,0,0,1,.354,5.224c.057,2.126,0,4.378,1.075,6.23-1.052,0-1.44,1.44-1.143,2.458s.88,2.035.594,3.052c-1.143.72-.754,2.423-.423,3.738a30.163,30.163,0,0,1,.686,6.961q.252,14.117.16,28.234c-4.229,2.435-9.145,5.109-13.968,4.15a2.881,2.881,0,0,1-2.195-1.406,3.121,3.121,0,0,1-.148-1.417l.354-7.933a14.015,14.015,0,0,0-.514-5.715c-.514-1.338-1.452-2.686-1.052-4.058.137-.468.423-.88.606-1.337.72-1.818-.331-3.8-.846-5.715a4.308,4.308,0,0,1-.206-1.3,7.059,7.059,0,0,1,.286-1.543,21.89,21.89,0,0,0-.057-11.2,2.675,2.675,0,0,1-.126-1.429,3.628,3.628,0,0,0,.217-.652,1.6,1.6,0,0,0-.343-1.006,9.49,9.49,0,0,0,1.292-1.978,2.377,2.377,0,0,1-1.223-3.532,1.246,1.246,0,0,1-1.052-1.943c.229-.251.549-.411.686-.72s-.16-.96-.492-1.326l-1.76-1.943c-1.314-1.474-2-3.5-3.372-4.915a40.786,40.786,0,0,1-5.03-6.79l-5.83-9.145-1.955,2.663a7.772,7.772,0,0,0-1.486,2.732,10.049,10.049,0,0,0,0,2.869c.343,5.613-2,11.088-2.057,16.7a10.289,10.289,0,0,1-.354,3.715,6.852,6.852,0,0,0-.434,1.143,5.3,5.3,0,0,0,.092,1.692,7.774,7.774,0,0,1-1.966,6.207c-1.006,1.143-2.4,2-2.72,3.429a5.864,5.864,0,0,1-.3,1.269c-.423.834-1.646,1.2-1.7,2.126,0,.526.366,1.052.183,1.543a1.4,1.4,0,0,1-.491.572l-3.1,2.549c-3.429,2.846-4.447,7.773-6.584,11.716a20.662,20.662,0,0,0-1.84,4.069c-.743,2.515-.674,5.441-2.458,7.361a5.962,5.962,0,0,0-1.269,1.475c-.469,1.017.057,2.183.24,3.292s-.343,2.606-1.463,2.515a7.8,7.8,0,0,1,.914,4.046,20.952,20.952,0,0,1-13.523-2.195,5.041,5.041,0,0,1-2.789-2.926,1.246,1.246,0,0,1,0-.709,2.023,2.023,0,0,1,.652-.777c2.869-2.515,2.926-6.859,3.806-10.551.777-3.269,2.286-6.3,3.521-9.442,2.56-6.767,3.589-14.483,8.6-19.7,1.143-1.143,2.423-2.286,2.755-3.806.183-.88,0-1.783.126-2.675a2.149,2.149,0,0,1,1.475-2.012,11.337,11.337,0,0,1-1.315-3.795,5.274,5.274,0,0,1-.183-1.738,8.841,8.841,0,0,1,.48-1.852,16.356,16.356,0,0,0,.263-9.144,14.428,14.428,0,0,1-.9-4.664c.069-.812.32-1.578.446-2.378a13.641,13.641,0,0,0-.251-4.2l-.846-5.235a25.443,25.443,0,0,1-.492-5.258c.172-4.252-2.595-21.273.674-24s12.494,8.756,16.7,8.07a18.959,18.959,0,0,1,5.624-.183,26.572,26.572,0,0,1,8.413,3.178l9.076,4.675A28.877,28.877,0,0,0,258.021,711.877Z" transform="translate(36.462 252.638)" fill="#65617d"/>
    <path id="Path_96" data-name="Path 96" d="M263.121,606.679a9.831,9.831,0,0,0-8.207-1.932,17.717,17.717,0,0,0-7.7,3.909,10.394,10.394,0,0,1-2.16,1.521c-1.292.583-2.858.56-3.932,1.474-1.417,1.223-1.234,3.429-.674,5.258s1.337,3.7.732,5.475a14.577,14.577,0,0,0-.617,1.612,4.755,4.755,0,0,0,.766,2.972,21.429,21.429,0,0,0,1.143-2.286,1.992,1.992,0,0,1,2.092-1.143c.8.251.983,1.143,1.143,1.921s.617,1.623,1.395,1.7a1.578,1.578,0,0,0,1.452-.994c.892-1.772-.149-4.069.72-5.853.5-1.029,1.555-1.7,2-2.755.343-.823.263-1.761.526-2.618s1.143-1.657,1.977-1.28a3.031,3.031,0,0,1,.743.64,3.429,3.429,0,0,0,4.2.286,6.587,6.587,0,0,1,1.532-1.143,2.126,2.126,0,0,1,2.172.617,4.251,4.251,0,0,1,1.017,2.126,5.235,5.235,0,0,0,1.143,2.983,3.431,3.431,0,0,0,1.143.595,2.743,2.743,0,0,0,3.041-.377,2.287,2.287,0,0,0,.194-2.286,17.2,17.2,0,0,0-1.143-2.058c-.857-1.566-.663-3.578-1.532-5.03A16.977,16.977,0,0,0,263.121,606.679Z" transform="translate(43.056 239.951)" fill="#3f3d56"/>
    <path id="Path_97" data-name="Path 97" d="M265.381,643.273a1.954,1.954,0,0,1,.137,1.143,1.84,1.84,0,0,1-.492.754,13.432,13.432,0,0,1-5.544,3.3,1.807,1.807,0,0,0-.777.4,1.509,1.509,0,0,0,0,1.749,4.332,4.332,0,0,1,.777,1.68c.1,1.143-1.143,1.966-2.206,2.366a6.218,6.218,0,0,1-4.744.149,7.053,7.053,0,0,1-2.5-2.389c-4.7-6.378-7.556-13.957-12.288-20.312a5.019,5.019,0,0,1-.8-1.371,1.509,1.509,0,0,1,.274-1.486c.5-.491,1.452-.491,1.715-1.143.126-.32,0-.708.114-1.04.217-.732,1.143-.869,1.749-1.36s.674-1.017,1.143-1.246a1.839,1.839,0,0,1,1.612.3c2.286,1.291,3.738,3.5,5.27,5.555a79.577,79.577,0,0,0,7.761,8.87c-.32-.32.423-3.5.949-3.726.914-.423,2.538.995,3.2,1.509A13.922,13.922,0,0,1,265.381,643.273Z" transform="translate(42.602 242.794)" fill="#1492e6"/>
    <rect id="Rectangle_25" data-name="Rectangle 25" width="93.732" height="93.732" transform="translate(324.138 984.247) rotate(167.2)" fill="#ededf4"/>
    <path id="Path_98" data-name="Path 98" d="M254.283,691.343a25.811,25.811,0,0,0-30.863-19.432c-.652.149-1.326.332-1.92.514l6.15,27.022,27.022-6.138C254.558,692.68,254.432,691.994,254.283,691.343Z" transform="translate(40.405 249.5)" fill="#1492e6"/>
    <path id="Path_99" data-name="Path 99" d="M254.317,697.314l-27.034,6.138-6.138-27.022a25.8,25.8,0,1,0,33.149,20.884Z" transform="translate(37.754 250.239)" fill="#1492e6"/>
    <path id="Path_100" data-name="Path 100" d="M213.044,692.779a26.06,26.06,0,0,1,3.589,2.378,6.286,6.286,0,0,1,2.218,3.6,2.069,2.069,0,0,1-.114,1.234,1,1,0,0,1-1.017.572,1.61,1.61,0,0,1-.64-.354,23.474,23.474,0,0,0-2.286-1.543c-.286-.172-.64-.354-.926-.194a.893.893,0,0,0-.32.332,2.616,2.616,0,0,0-.491,1.349,2.869,2.869,0,0,0,1.36,2.092,5.985,5.985,0,0,1,1.863,1.76.892.892,0,0,1,.126.675.971.971,0,0,1-.331.446,6.173,6.173,0,0,1-5,1.486c-1.143-.183-2.286-.72-3.5-.858a7.258,7.258,0,0,1-1.5-.194A2.926,2.926,0,0,1,204.437,704a7.714,7.714,0,0,1-.594-2.286,26.576,26.576,0,0,1-.069-8.973,1.234,1.234,0,0,1,.206-.526,1.074,1.074,0,0,1,.491-.263c1.337-.457,3.429-1.669,4.881-1.463a3.715,3.715,0,0,1,1.406.777C211.135,691.533,212.964,692.425,213.044,692.779Z" transform="translate(37.819 252.247)" fill="#a1616a"/>
    <path id="Path_101" data-name="Path 101" d="M214.2,698.145c-.274-1.315.617-4.847-2.012-4.47-.309-1.406,1.463-2.72.766-4.126-.229-.457-.732-.777-.9-1.269-.491-1.395,1.92-2.755,1.143-4.035-.286-.492-.926-.686-1.143-1.143-.571-1.143,1.52-2.229,1.28-3.521-.091-.423-.434-.777-.514-1.212a3.59,3.59,0,0,1,.411-1.566c.4-1.349-.354-3.132.732-4.035-.8.263-1.349-.88-1.143-1.692s.709-1.612.526-2.423a3.613,3.613,0,0,1-.217-.892c0-.834,1.314-1.143,1.349-2.023a5.854,5.854,0,0,0-.172-.891,1.714,1.714,0,0,1,1.029-1.463,5.154,5.154,0,0,0,1.589-1.006c.309-.366.64-.948,1.143-.789.171,0,.286.217.434.32.606.446,1.475,0,1.989-.56a8.459,8.459,0,0,0,1.806-6.23c-.091-2.229-.606-4.424-.617-6.641a15.586,15.586,0,0,1,.137-2.069,9.893,9.893,0,0,0,.469-2.126c-.183-1.257-2.549.172-3.486.515a15,15,0,0,0-2.675,1.143,29.045,29.045,0,0,0-2.56,1.9c-3.5,2.595-8.127,3.875-10.585,7.453-.812,1.143-1.395,2.618-2.629,3.349a16.858,16.858,0,0,0-1.692.88c-1.326,1.029-1.143,3.041-1.589,4.641a9.279,9.279,0,0,0-.4,1.326,5.082,5.082,0,0,0,.126,1.554l.743,3.75a141.726,141.726,0,0,0,4.572,18.62,16,16,0,0,1,1.326,6.138c0,.56-.149,1.143-.16,1.692a9.537,9.537,0,0,0,.24,1.978l.457,2.435a.745.745,0,0,0,.252.526.8.8,0,0,0,.686,0c3.281-1.063,6.241-3.727,9.67-3.3" transform="translate(36.85 245.567)" fill="#3f3d56"/>
    <path id="Path_102" data-name="Path 102" d="M265.213,670.356a1.041,1.041,0,0,1,.446.228,2.732,2.732,0,0,1,.766,3.178,1,1,0,0,0-.114.355.868.868,0,0,0,.217.5,1.829,1.829,0,0,1,.194,2.046c-.183.251-.491.423-.594.731-.171.515.354,1.006.412,1.543.069.72-.674,1.246-1.349,1.5a1.761,1.761,0,0,1-1.623,0,1.326,1.326,0,0,1-.32-1.394,3.907,3.907,0,0,1,.8-1.269,1.623,1.623,0,0,1-1.818-1.063,2.286,2.286,0,0,1,.446-2.149.834.834,0,0,0,.263-.5c0-.251-.252-.423-.469-.56-.926-.606-2-2.389-.617-3.143a3.777,3.777,0,0,1,1.543-.286c.412,0,.457.263.789.354S264.859,670.3,265.213,670.356Z" transform="translate(46.084 249.329)" fill="#a1616a"/>
    <path id="Path_103" data-name="Path 103" d="M240.47,626.007a2.628,2.628,0,0,1,2.218.537,5.944,5.944,0,0,1,1.44,2.48,23.772,23.772,0,0,0,5.11,7.8" transform="translate(43.12 243.016)" opacity="0.1"/>
    <path id="Path_104" data-name="Path 104" d="M238.5,628.448a3.133,3.133,0,0,1,2.961.971,9.039,9.039,0,0,1,1.257,2.5,14.931,14.931,0,0,0,3.875,4.984" transform="translate(42.838 243.364)" opacity="0.1"/>
    <g id="man" transform="translate(484.882 847.64)">
      <circle id="Ellipse_34" data-name="Ellipse 34" cx="2.62" cy="2.62" r="2.62" transform="translate(27.508 28.739)" fill="#1492e6" stroke="#1492e6" stroke-width="1"/>
      <path id="Path_114" data-name="Path 114" d="M80.21,74.41l-6.56-6.56a3.865,3.865,0,0,0,.394-1.683,3.92,3.92,0,0,0-7.618-1.31H59.393a3.926,3.926,0,0,0-2.379-2.379V58.849L65.8,50.064a1.3,1.3,0,0,0,.385-.926V43.657a3.92,3.92,0,1,0-5-5H55.706a1.31,1.31,0,0,0-1.31,1.31v4.171a3.907,3.907,0,0,0,0,7.377V57H52.845a3.926,3.926,0,0,0-2.379-2.379V37.108a3.914,3.914,0,0,0,1.6-1.069h4.951a1.306,1.306,0,0,0,.926-.384l1.31-1.31a1.3,1.3,0,0,0,.384-.926v-1.31h6.791a3.93,3.93,0,1,0,0-2.62H63.565v-8.1a3.92,3.92,0,0,0-1.31-7.618,3.865,3.865,0,0,0-1.683.394l-9.18-9.18a1.306,1.306,0,0,0-.926-.384H22.958a2.633,2.633,0,0,1-2.443-1.7,1.316,1.316,0,0,0-1.4-.833,9.24,9.24,0,0,0-6.091,3.555A9.095,9.095,0,0,0,17.473,19.8a24.61,24.61,0,0,0-1.064,7.07H15.1a6.55,6.55,0,1,0,0,13.1h1.45A24.933,24.933,0,0,0,29.508,59.259v5.6H11.169A9.18,9.18,0,0,0,2,74.026v6.549H4.62V74.026a6.557,6.557,0,0,1,6.55-6.55H30.442l9.545,5.965v7.134h7.859a1.306,1.306,0,0,0,.926-.384l4.314-4.313,1.694,1.694a1.306,1.306,0,0,0,.926.384h4.171a3.92,3.92,0,1,0,5-5V67.476h1.551a3.924,3.924,0,0,0,3.689,2.62A3.865,3.865,0,0,0,71.8,69.7l1.7,1.7L71.809,73.1a1.3,1.3,0,0,0-.384.926v6.549h2.62V74.568l1.31-1.31,2.62,2.62v4.7h2.62v-5.24A1.3,1.3,0,0,0,80.21,74.41ZM52.017,64.857h-9.41v-5.24h2.861a3.907,3.907,0,0,0,7.377,0H54.4v2.861A3.926,3.926,0,0,0,52.017,64.857ZM45.468,16.39a3.926,3.926,0,0,0,2.379,2.379V24.25h-5.24V16.39Zm2.379-1.31a1.31,1.31,0,1,1,1.31,1.31A1.311,1.311,0,0,1,47.847,15.08ZM45.468,34.729a3.926,3.926,0,0,0,2.379,2.379v5.481h-5.24V34.729Zm5,23.578A1.31,1.31,0,1,1,49.156,57,1.311,1.311,0,0,1,50.466,58.307Zm-5-1.31H42.607V45.208h5.24v9.41A3.926,3.926,0,0,0,45.468,57Zm11.548,9.169a1.31,1.31,0,1,1-1.31-1.31A1.311,1.311,0,0,1,57.016,66.167Zm7.859-27.508a1.31,1.31,0,1,1-1.31,1.31A1.311,1.311,0,0,1,64.875,38.659Zm-3.689,2.62a3.926,3.926,0,0,0,2.379,2.379V48.6l-6.55,6.55V51.517a3.907,3.907,0,0,0,0-7.377V41.278Zm-5.481,5.24a1.31,1.31,0,1,1-1.31,1.31A1.311,1.311,0,0,1,55.706,46.518Zm-6.55-11.789a1.31,1.31,0,1,1,1.31-1.31A1.311,1.311,0,0,1,49.156,34.729Zm7.317-1.31H53.086a3.92,3.92,0,0,0-7.618-1.31H42.607v-5.24h9.937l4.472,4.472v1.535Zm13.641-3.93A1.31,1.31,0,1,1,68.8,30.8,1.311,1.311,0,0,1,70.115,29.489ZM63.565,17.7a1.31,1.31,0,1,1-1.31-1.31A1.311,1.311,0,0,1,63.565,17.7ZM58.72,16.017a3.865,3.865,0,0,0-.394,1.683,3.924,3.924,0,0,0,2.62,3.689v8.1H58.868l-4.856-4.856a1.306,1.306,0,0,0-.926-.384h-2.62V18.769a3.92,3.92,0,1,0-5-5H42.607V7.221h7.317ZM13.855,12.108a6.557,6.557,0,0,1,4.729-7.262,5.267,5.267,0,0,0,4.375,2.375H39.987V17.7H20.614a6.864,6.864,0,0,1-1.045-.081.956.956,0,0,0-.1-.014l-.1-.016A6.633,6.633,0,0,1,13.855,12.108ZM15.1,37.349a3.93,3.93,0,1,1,0-7.859h1.31v7.859Zm3.93,0V26.869A22.042,22.042,0,0,1,20.037,20.3c.193.012,19.95.018,19.95.018V59.579a22.3,22.3,0,0,1-20.958-22.23ZM39.987,62.17v8.183L32.128,65.44V60.465A24.669,24.669,0,0,0,39.987,62.17ZM47.3,77.956h-4.7v-5.24h7.317l1.31,1.31Zm16.261,0a1.31,1.31,0,1,1,1.31-1.31A1.311,1.311,0,0,1,63.565,77.956Zm-1.31-5a3.926,3.926,0,0,0-2.379,2.379H56.248L51.392,70.48a1.306,1.306,0,0,0-.926-.384H42.607v-2.62h9.41a3.907,3.907,0,0,0,7.377,0h2.861Zm6.55-6.791a1.31,1.31,0,1,1,1.31,1.31A1.311,1.311,0,0,1,68.8,66.167Z" transform="translate(-2 -2.06)" fill="#1492e6" stroke="#1492e6" stroke-width="1"/>
    </g>
  </g>
</svg>
